{"glyphs":{"0":{"ha":771,"x_min":68,"x_max":703,"o":"m 386 -18 q 154 115 240 -18 q 68 513 68 247 q 154 908 68 778 q 386 1038 240 1038 q 617 908 531 1038 q 703 513 703 778 q 617 115 703 247 q 386 -18 531 -18 m 386 83 q 526 185 472 83 q 579 513 579 288 q 526 836 579 736 q 386 936 472 936 q 245 836 299 936 q 192 513 192 736 q 245 185 192 288 q 386 83 299 83 z "},"1":{"ha":771,"x_min":122,"x_max":681,"o":"m 122 0 l 122 106 l 349 106 l 349 865 l 168 865 l 168 946 q 287 976 236 958 q 379 1019 338 994 l 476 1019 l 476 106 l 681 106 l 681 0 l 122 0 z "},"2":{"ha":771,"x_min":56,"x_max":701,"o":"m 61 0 l 61 75 q 415 443 301 285 q 528 732 528 601 q 481 876 528 819 q 340 933 435 933 q 224 899 278 933 q 129 815 171 865 l 56 888 q 188 997 118 956 q 356 1038 258 1038 q 572 955 492 1038 q 651 736 651 872 q 601 531 651 635 q 462 321 551 428 q 253 100 372 214 q 337 106 293 103 q 419 110 381 110 l 701 110 l 701 0 l 61 0 z "},"3":{"ha":771,"x_min":40,"x_max":693,"o":"m 367 -18 q 169 24 247 -18 q 40 121 90 67 l 104 204 q 210 122 149 157 q 357 88 271 88 q 506 138 447 88 q 564 278 564 189 q 533 384 564 339 q 434 455 503 429 q 247 481 365 481 l 247 578 q 414 603 353 578 q 502 674 475 629 q 529 772 529 718 q 483 890 529 846 q 357 933 436 933 q 242 906 296 933 q 146 835 189 879 l 78 915 q 204 1003 135 968 q 363 1038 274 1038 q 515 1007 449 1038 q 620 919 582 976 q 658 782 658 863 q 608 628 658 689 q 478 536 558 567 l 478 531 q 631 443 568 510 q 693 272 693 376 q 649 117 693 182 q 531 17 606 51 q 367 -18 457 -18 z "},"4":{"ha":771,"x_min":28,"x_max":726,"o":"m 160 382 l 472 382 l 472 694 q 475 786 472 732 q 479 879 478 840 l 474 879 q 435 804 456 842 q 392 729 414 767 l 160 382 m 472 0 l 472 281 l 28 281 l 28 364 l 451 1019 l 592 1019 l 592 382 l 726 382 l 726 281 l 592 281 l 592 0 l 472 0 z "},"5":{"ha":771,"x_min":39,"x_max":696,"o":"m 363 -18 q 167 24 244 -18 q 39 117 90 65 l 101 200 q 204 122 146 157 q 351 88 263 88 q 460 117 411 88 q 539 200 510 146 q 568 328 568 254 q 510 499 568 438 q 357 560 453 560 q 269 544 306 560 q 188 500 232 529 l 119 542 l 151 1019 l 647 1019 l 647 910 l 263 910 l 238 615 q 308 645 272 635 q 389 656 343 656 q 543 622 474 656 q 654 516 613 588 q 696 332 696 444 q 649 142 696 221 q 525 23 601 64 q 363 -18 449 -18 z "},"6":{"ha":771,"x_min":78,"x_max":710,"o":"m 407 538 q 303 507 360 538 q 199 407 246 476 q 266 165 210 249 q 418 81 322 81 q 542 144 492 81 q 592 313 592 208 q 546 476 592 415 q 407 538 500 538 m 418 -18 q 244 38 321 -18 q 122 206 167 94 q 78 486 78 318 q 108 741 78 636 q 192 911 139 846 q 313 1007 244 976 q 454 1038 381 1038 q 592 1008 533 1038 q 692 933 650 978 l 622 854 q 549 911 592 890 q 458 932 506 932 q 331 892 389 932 q 235 760 272 853 q 196 508 199 667 q 306 599 243 565 q 428 632 368 632 q 633 552 557 632 q 710 313 710 472 q 669 140 710 214 q 563 24 629 65 q 418 -18 497 -18 z "},"7":{"ha":771,"x_min":68,"x_max":706,"o":"m 275 0 q 299 266 282 144 q 350 495 317 388 q 435 704 383 603 q 561 910 486 806 l 68 910 l 68 1019 l 706 1019 l 706 942 q 560 722 617 828 q 473 506 504 615 q 427 273 442 396 q 407 0 413 150 l 275 0 z "},"8":{"ha":771,"x_min":63,"x_max":707,"o":"m 388 -18 q 221 17 294 -18 q 105 113 147 51 q 63 253 63 175 q 90 375 63 321 q 161 469 118 429 q 250 533 204 508 l 250 540 q 153 637 194 579 q 113 775 113 694 q 149 911 113 853 q 249 1001 186 969 q 392 1033 313 1033 q 542 999 479 1033 q 638 905 604 965 q 671 765 671 844 q 649 665 671 713 q 597 581 628 618 q 535 519 565 543 l 535 513 q 619 451 579 488 q 683 365 658 415 q 707 246 707 315 q 667 112 707 172 q 555 17 626 51 q 388 -18 483 -18 m 457 553 q 563 758 563 646 q 517 887 563 833 q 390 940 472 940 q 274 894 319 940 q 228 775 228 849 q 260 673 228 714 q 345 604 293 632 q 457 553 397 576 m 390 76 q 532 124 478 76 q 586 249 586 172 q 549 360 586 317 q 450 435 511 404 q 317 494 389 465 q 217 397 256 456 q 178 264 178 338 q 206 167 178 210 q 281 101 233 125 q 390 76 329 76 z "},"9":{"ha":771,"x_min":61,"x_max":694,"o":"m 181 707 q 226 542 181 604 q 363 481 272 481 q 471 513 415 481 q 575 617 526 544 q 508 856 565 774 q 353 938 451 938 q 231 874 281 938 q 181 707 181 811 m 325 -18 q 183 12 243 -18 q 81 86 124 42 l 151 165 q 228 108 183 129 q 321 88 272 88 q 444 128 388 88 q 536 260 500 168 q 576 511 572 353 q 467 420 529 454 q 342 386 406 386 q 138 467 215 386 q 61 707 61 549 q 101 880 61 806 q 208 996 142 954 q 353 1038 274 1038 q 528 984 451 1038 q 650 823 606 931 q 694 553 694 715 q 664 290 694 399 q 581 113 633 181 q 463 13 529 44 q 325 -18 397 -18 z "},"!":{"ha":449,"x_min":132,"x_max":315,"o":"m 181 307 l 164 896 l 160 1040 l 289 1040 l 285 896 l 268 307 l 181 307 m 224 -18 q 159 8 186 -18 q 132 78 132 35 q 159 149 132 122 q 224 176 186 176 q 289 149 263 176 q 315 78 315 122 q 289 8 315 35 q 224 -18 263 -18 z "},"\"":{"ha":660,"x_min":125,"x_max":532,"o":"m 153 671 l 128 928 l 125 1071 l 258 1071 l 256 928 l 231 671 l 153 671 m 426 671 l 401 928 l 397 1071 l 532 1071 l 529 928 l 503 671 l 426 671 z "},"#":{"ha":771,"x_min":56,"x_max":725,"o":"m 140 0 l 178 317 l 56 317 l 56 406 l 189 406 l 218 636 l 86 636 l 86 724 l 228 724 l 264 1010 l 346 1010 l 311 724 l 517 724 l 554 1010 l 636 1010 l 600 724 l 725 724 l 725 636 l 590 636 l 561 406 l 693 406 l 693 317 l 550 317 l 513 0 l 429 0 l 467 317 l 261 317 l 222 0 l 140 0 m 272 406 l 478 406 l 507 636 l 300 636 l 272 406 z "},"%":{"ha":1279,"x_min":54,"x_max":1225,"o":"m 285 394 q 117 479 181 394 q 54 718 54 564 q 117 954 54 871 q 285 1038 181 1038 q 453 954 390 1038 q 517 718 517 871 q 453 479 517 564 q 285 394 390 394 m 285 474 q 383 535 346 474 q 421 718 421 596 q 383 900 421 840 q 285 960 346 960 q 188 900 225 960 q 150 718 150 840 q 188 535 150 596 q 285 474 225 474 m 315 -18 l 876 1038 l 963 1038 l 400 -18 l 315 -18 m 994 -18 q 826 66 890 -18 q 763 304 763 150 q 826 540 763 457 q 994 624 890 624 q 1162 540 1099 624 q 1225 304 1225 457 q 1162 66 1225 150 q 994 -18 1099 -18 m 994 60 q 1092 121 1054 60 q 1129 304 1129 182 q 1092 486 1129 426 q 994 546 1054 546 q 897 486 935 546 q 860 304 860 426 q 897 121 860 182 q 994 60 935 60 z "},"&":{"ha":944,"x_min":50,"x_max":921,"o":"m 293 799 q 306 711 293 757 q 342 618 319 665 q 463 715 411 665 q 515 833 515 765 q 493 913 515 878 q 419 947 471 947 q 327 905 361 947 q 293 799 293 863 m 360 -18 q 198 18 268 -18 q 89 118 128 54 q 50 264 50 182 q 78 386 50 333 q 153 481 107 439 q 250 558 199 522 q 201 680 219 619 q 183 796 183 740 q 213 919 183 864 q 294 1006 242 974 q 418 1038 347 1038 q 565 981 513 1038 q 618 836 618 925 q 585 717 618 769 q 499 620 551 664 q 389 535 446 576 q 507 381 439 456 q 647 247 575 307 q 792 549 743 372 l 908 549 q 835 356 879 447 q 731 185 792 264 q 921 88 835 111 l 888 -18 q 654 99 776 13 q 523 14 596 46 q 360 -18 450 -18 m 174 271 q 232 135 174 186 q 375 83 290 83 q 477 106 428 83 q 569 165 526 128 q 425 309 494 231 q 301 469 356 388 q 210 378 247 426 q 174 271 174 331 z "},"'":{"ha":386,"x_min":125,"x_max":258,"o":"m 153 671 l 128 928 l 125 1071 l 258 1071 l 256 928 l 231 671 l 153 671 z "},"(":{"ha":469,"x_min":128,"x_max":411,"o":"m 332 -274 q 182 55 236 -117 q 128 432 128 226 q 182 808 128 636 q 332 1136 236 981 l 411 1100 q 277 781 321 951 q 233 432 233 610 q 277 84 233 256 q 411 -236 321 -87 l 332 -274 z "},")":{"ha":469,"x_min":60,"x_max":343,"o":"m 138 -274 l 60 -236 q 194 84 150 -87 q 238 432 238 256 q 194 781 238 610 q 60 1100 150 951 l 138 1136 q 289 808 235 981 q 343 432 343 636 q 289 55 343 226 q 138 -274 235 -117 z "},"*":{"ha":649,"x_min":90,"x_max":557,"o":"m 214 654 l 153 699 l 240 843 l 90 906 l 114 976 l 272 938 l 286 1106 l 361 1106 l 375 939 l 533 976 l 557 906 l 406 843 l 494 699 l 433 654 l 324 786 l 214 654 z "},"+":{"ha":771,"x_min":53,"x_max":718,"o":"m 335 161 l 335 465 l 53 465 l 53 560 l 335 560 l 335 864 l 436 864 l 436 560 l 718 560 l 718 465 l 436 465 l 436 161 l 335 161 z "},",":{"ha":386,"x_min":74,"x_max":307,"o":"m 104 -264 l 74 -189 q 176 -110 139 -160 q 213 0 213 -61 q 197 -1 207 -1 q 133 22 161 -1 q 104 88 104 44 q 133 152 104 128 q 200 176 161 176 q 278 136 250 176 q 307 26 307 96 q 253 -149 307 -74 q 104 -264 199 -224 z "},"-":{"ha":482,"x_min":64,"x_max":419,"o":"m 64 340 l 64 438 l 419 438 l 419 340 l 64 340 z "},".":{"ha":386,"x_min":101,"x_max":285,"o":"m 193 -18 q 128 8 156 -18 q 101 78 101 35 q 128 149 101 122 q 193 176 156 176 q 258 149 231 176 q 285 78 285 122 q 258 8 285 35 q 193 -18 231 -18 z "},"/":{"ha":544,"x_min":15,"x_max":524,"o":"m 15 -249 l 432 1103 l 524 1103 l 108 -249 l 15 -249 z "},":":{"ha":386,"x_min":101,"x_max":285,"o":"m 193 542 q 128 569 156 542 q 101 638 101 596 q 128 709 101 682 q 193 736 156 736 q 258 709 231 736 q 285 638 285 682 q 258 569 285 596 q 193 542 231 542 m 193 -18 q 128 8 156 -18 q 101 78 101 35 q 128 149 101 122 q 193 176 156 176 q 258 149 231 176 q 285 78 285 122 q 258 8 285 35 q 193 -18 231 -18 z "},";":{"ha":386,"x_min":74,"x_max":307,"o":"m 193 542 q 128 569 156 542 q 101 638 101 596 q 128 709 101 682 q 193 736 156 736 q 258 709 231 736 q 285 638 285 682 q 258 569 285 596 q 193 542 231 542 m 104 -264 l 74 -189 q 176 -110 139 -160 q 213 0 213 -61 q 197 -1 207 -1 q 133 22 161 -1 q 104 88 104 44 q 133 152 104 128 q 200 176 161 176 q 278 136 250 176 q 307 26 307 96 q 253 -149 307 -74 q 104 -264 199 -224 z "},"<":{"ha":771,"x_min":53,"x_max":718,"o":"m 718 203 l 53 464 l 53 567 l 718 828 l 718 717 l 390 596 l 182 518 l 182 513 l 390 435 l 718 314 l 718 203 z "},"=":{"ha":771,"x_min":53,"x_max":718,"o":"m 53 632 l 53 726 l 718 726 l 718 632 l 53 632 m 53 299 l 53 393 l 718 393 l 718 299 l 53 299 z "},">":{"ha":771,"x_min":53,"x_max":718,"o":"m 53 203 l 53 314 l 381 435 l 589 513 l 589 518 l 381 596 l 53 717 l 53 828 l 718 567 l 718 464 l 53 203 z "},"?":{"ha":658,"x_min":60,"x_max":585,"o":"m 247 307 q 256 435 238 379 q 308 538 275 492 q 377 626 342 585 q 437 710 413 668 q 461 803 461 753 q 423 909 461 865 q 311 953 385 953 q 214 929 260 953 q 132 864 168 906 l 60 931 q 174 1022 108 986 q 325 1058 240 1058 q 514 992 443 1058 q 585 811 585 925 q 560 701 585 750 q 499 608 535 651 q 428 519 463 564 q 373 424 393 475 q 360 307 353 372 l 247 307 m 307 -18 q 242 8 269 -18 q 215 78 215 35 q 242 149 215 122 q 307 176 269 176 q 373 149 346 176 q 400 78 400 122 q 373 8 400 35 q 307 -18 346 -18 z "},"@":{"ha":1314,"x_min":78,"x_max":1235,"o":"m 625 -240 q 412 -204 511 -240 q 238 -98 313 -168 q 120 76 163 -28 q 78 315 78 181 q 130 597 78 471 q 272 815 182 724 q 479 954 363 906 q 725 1003 596 1003 q 996 938 882 1003 q 1172 758 1110 874 q 1235 489 1235 642 q 1206 310 1235 388 q 1132 181 1178 233 q 1032 103 1086 129 q 925 76 978 76 q 817 106 861 76 q 765 194 772 135 l 761 194 q 674 119 724 150 q 572 88 624 88 q 440 145 493 88 q 386 308 386 203 q 407 433 386 369 q 467 549 428 496 q 562 635 507 603 q 685 668 617 668 q 808 592 767 668 l 811 592 l 829 656 l 913 656 l 851 346 q 851 208 829 253 q 936 164 872 164 q 1034 202 986 164 q 1114 312 1082 240 q 1146 483 1146 383 q 1097 708 1146 610 q 953 862 1049 806 q 715 918 857 918 q 514 876 611 918 q 340 755 417 833 q 217 566 263 676 q 172 319 172 456 q 233 62 172 168 q 397 -100 293 -44 q 633 -156 501 -156 q 769 -136 704 -156 q 886 -86 835 -117 l 919 -161 q 778 -221 851 -201 q 625 -240 706 -240 m 597 175 q 665 197 629 175 q 742 267 701 219 l 785 514 q 740 565 763 550 q 685 579 717 579 q 602 555 639 579 q 540 491 565 531 q 501 406 515 451 q 488 315 488 360 q 519 208 488 240 q 597 175 550 175 z "},"A":{"ha":843,"x_min":4,"x_max":839,"o":"m 315 569 l 265 414 l 574 414 l 525 569 q 472 740 497 656 q 422 914 447 825 l 417 914 q 368 740 393 825 q 315 569 343 656 m 4 0 l 350 1019 l 493 1019 l 839 0 l 703 0 l 606 311 l 233 311 l 135 0 l 4 0 z "},"B":{"ha":913,"x_min":139,"x_max":850,"o":"m 139 0 l 139 1019 l 442 1019 q 624 994 546 1019 q 747 915 703 969 q 792 769 792 860 q 753 633 792 693 q 643 549 714 572 l 643 542 q 792 463 733 524 q 850 299 850 403 q 801 133 850 199 q 665 33 751 67 q 464 0 578 0 l 139 0 m 268 585 l 419 585 q 608 631 551 585 q 665 753 665 676 q 605 880 665 843 q 425 917 544 917 l 268 917 l 268 585 m 268 103 l 446 103 q 651 151 578 103 q 724 303 724 200 q 651 442 724 397 q 446 488 579 488 l 268 488 l 268 103 z "},"C":{"ha":886,"x_min":81,"x_max":836,"o":"m 524 -18 q 297 44 397 -18 q 139 225 197 107 q 81 508 81 343 q 140 792 81 674 q 301 974 199 910 q 532 1038 403 1038 q 697 999 625 1038 q 811 911 768 960 l 742 828 q 651 898 703 871 q 533 925 599 925 q 365 875 438 925 q 253 733 293 825 q 213 513 213 640 q 251 290 213 385 q 361 145 290 196 q 529 94 432 94 q 660 125 603 94 q 765 208 717 156 l 836 128 q 699 20 776 58 q 524 -18 622 -18 z "},"D":{"ha":954,"x_min":139,"x_max":875,"o":"m 139 0 l 139 1019 l 394 1019 q 752 888 629 1019 q 875 513 875 756 q 753 135 875 271 q 400 0 631 0 l 139 0 m 268 106 l 383 106 q 653 213 564 106 q 742 513 742 319 q 653 810 742 707 q 383 914 564 914 l 268 914 l 268 106 z "},"E":{"ha":817,"x_min":139,"x_max":742,"o":"m 139 0 l 139 1019 l 726 1019 l 726 910 l 268 910 l 268 590 l 654 590 l 654 481 l 268 481 l 268 110 l 742 110 l 742 0 l 139 0 z "},"F":{"ha":767,"x_min":139,"x_max":726,"o":"m 139 0 l 139 1019 l 726 1019 l 726 910 l 268 910 l 268 565 l 657 565 l 657 457 l 268 457 l 268 0 l 139 0 z "},"G":{"ha":957,"x_min":81,"x_max":854,"o":"m 539 -18 q 302 44 406 -18 q 140 225 199 107 q 81 508 81 343 q 141 792 81 674 q 307 974 201 910 q 547 1038 413 1038 q 726 998 654 1038 q 840 911 797 958 l 771 828 q 680 897 732 868 q 550 925 628 925 q 372 875 449 925 q 254 733 296 825 q 213 513 213 640 q 301 207 213 319 q 553 94 389 94 q 656 110 607 94 q 736 154 706 126 l 736 421 l 521 421 l 521 528 l 854 528 l 854 100 q 724 15 806 49 q 539 -18 642 -18 z "},"H":{"ha":1011,"x_min":139,"x_max":871,"o":"m 139 0 l 139 1019 l 268 1019 l 268 592 l 743 592 l 743 1019 l 871 1019 l 871 0 l 743 0 l 743 481 l 268 481 l 268 0 l 139 0 z "},"I":{"ha":407,"x_min":139,"x_max":268,"o":"m 139 0 l 139 1019 l 268 1019 l 268 0 l 139 0 z "},"J":{"ha":744,"x_min":49,"x_max":608,"o":"m 329 -18 q 163 23 232 -18 q 49 143 93 64 l 140 208 q 218 122 175 149 q 317 94 261 94 q 440 145 399 94 q 481 311 481 196 l 481 1019 l 608 1019 l 608 299 q 580 140 608 211 q 490 25 551 68 q 329 -18 429 -18 z "},"K":{"ha":897,"x_min":139,"x_max":892,"o":"m 139 0 l 139 1019 l 268 1019 l 268 507 l 272 507 l 697 1019 l 842 1019 l 524 631 l 892 0 l 749 0 l 443 531 l 268 322 l 268 0 l 139 0 z "},"L":{"ha":754,"x_min":139,"x_max":713,"o":"m 139 0 l 139 1019 l 268 1019 l 268 110 l 713 110 l 713 0 l 139 0 z "},"M":{"ha":1128,"x_min":139,"x_max":989,"o":"m 139 0 l 139 1019 l 294 1019 l 490 474 q 526 367 508 421 q 563 261 544 314 l 569 261 q 604 367 588 314 q 639 474 621 421 l 833 1019 l 989 1019 l 989 0 l 868 0 l 868 564 q 874 713 868 629 q 885 864 879 797 l 879 864 l 799 632 l 606 103 l 519 103 l 326 632 l 246 864 l 240 864 q 250 713 244 797 q 256 564 256 629 l 256 0 l 139 0 z "},"N":{"ha":1003,"x_min":139,"x_max":864,"o":"m 139 0 l 139 1019 l 272 1019 l 643 376 l 751 167 l 758 167 q 747 327 753 244 q 742 489 742 410 l 742 1019 l 864 1019 l 864 0 l 732 0 l 361 643 l 251 853 l 246 853 q 256 696 250 776 q 261 535 261 615 l 261 0 l 139 0 z "},"O":{"ha":1031,"x_min":81,"x_max":950,"o":"m 515 -18 q 290 47 388 -18 q 136 231 192 111 q 81 513 81 350 q 136 794 81 676 q 290 974 192 911 q 515 1038 388 1038 q 741 974 643 1038 q 894 794 839 911 q 950 513 950 676 q 894 231 950 350 q 741 47 839 111 q 515 -18 643 -18 m 515 94 q 675 146 607 94 q 781 292 743 197 q 818 513 818 386 q 781 733 818 640 q 675 875 743 825 q 515 925 607 925 q 356 875 424 925 q 250 733 288 825 q 213 513 213 640 q 250 292 213 386 q 356 146 288 197 q 515 94 424 94 z "},"P":{"ha":878,"x_min":139,"x_max":811,"o":"m 139 0 l 139 1019 l 431 1019 q 630 991 544 1019 q 763 897 715 963 q 811 719 811 831 q 764 542 811 613 q 633 438 717 472 q 436 404 549 404 l 268 404 l 268 0 l 139 0 m 268 508 l 419 508 q 619 559 554 508 q 683 719 683 610 q 616 872 683 831 q 414 914 549 914 l 268 914 l 268 508 z "},"Q":{"ha":1031,"x_min":81,"x_max":972,"o":"m 515 88 q 675 140 607 88 q 781 288 743 192 q 818 513 818 383 q 781 733 818 640 q 675 875 743 825 q 515 925 607 925 q 356 875 424 925 q 250 733 288 825 q 213 513 213 640 q 250 288 213 383 q 356 140 288 192 q 515 88 424 88 m 826 -256 q 591 -187 686 -256 q 453 -14 496 -119 q 258 69 342 1 q 127 251 174 138 q 81 513 81 364 q 136 794 81 676 q 290 974 192 911 q 515 1038 388 1038 q 741 974 643 1038 q 894 794 839 911 q 950 513 950 676 q 905 255 950 367 q 779 75 860 143 q 590 -12 699 7 q 692 -115 625 -81 q 840 -149 758 -149 q 901 -144 875 -149 q 947 -133 928 -139 l 972 -233 q 911 -249 950 -242 q 826 -256 872 -256 z "},"R":{"ha":883,"x_min":139,"x_max":844,"o":"m 139 0 l 139 1019 l 458 1019 q 642 992 563 1019 q 768 901 722 964 q 814 732 814 839 q 751 542 814 614 q 583 446 688 471 l 844 0 l 699 0 l 451 432 l 268 432 l 268 0 l 139 0 m 268 536 l 439 536 q 622 585 558 536 q 686 732 686 633 q 622 874 686 833 q 439 914 558 914 l 268 914 l 268 536 z "},"S":{"ha":829,"x_min":65,"x_max":768,"o":"m 422 -18 q 223 23 314 -18 q 65 133 132 64 l 143 221 q 271 129 197 164 q 424 94 344 94 q 581 140 524 94 q 638 261 638 186 q 615 345 638 314 q 555 399 593 376 q 468 442 517 421 l 321 506 q 226 559 274 526 q 146 642 178 592 q 114 767 114 693 q 156 907 114 846 q 270 1003 197 968 q 435 1038 343 1038 q 603 1003 525 1038 q 735 911 681 968 l 667 829 q 563 899 619 874 q 435 925 506 925 q 297 885 349 925 q 244 775 244 844 q 270 694 244 726 q 335 642 296 663 q 413 606 374 622 l 558 543 q 665 483 618 518 q 740 398 713 449 q 768 271 768 347 q 726 125 768 190 q 606 21 683 60 q 422 -18 529 -18 z "},"T":{"ha":832,"x_min":43,"x_max":789,"o":"m 351 0 l 351 910 l 43 910 l 43 1019 l 789 1019 l 789 910 l 481 910 l 481 0 l 351 0 z "},"U":{"ha":1001,"x_min":135,"x_max":867,"o":"m 500 -18 q 314 24 397 -18 q 183 161 231 65 q 135 421 135 257 l 135 1019 l 264 1019 l 264 417 q 295 224 264 294 q 381 124 326 153 q 500 94 435 94 q 623 124 568 94 q 710 224 678 153 q 743 417 743 294 l 743 1019 l 867 1019 l 867 421 q 819 161 867 257 q 688 24 771 65 q 500 -18 604 -18 z "},"V":{"ha":799,"x_min":1,"x_max":799,"o":"m 326 0 l 1 1019 l 136 1019 l 301 467 q 350 299 329 378 q 400 131 371 221 l 406 131 q 456 299 433 221 q 504 467 478 378 l 668 1019 l 799 1019 l 475 0 l 326 0 z "},"W":{"ha":1219,"x_min":36,"x_max":1182,"o":"m 251 0 l 36 1019 l 168 1019 l 275 464 q 306 299 290 382 q 335 135 321 217 l 340 135 q 377 299 358 217 q 414 464 396 382 l 554 1019 l 672 1019 l 814 464 q 851 301 833 383 q 886 135 868 218 l 893 135 q 951 464 922 301 l 1058 1019 l 1182 1019 l 971 0 l 817 0 l 663 614 q 637 731 649 675 q 613 846 625 788 l 607 846 q 581 731 594 788 q 556 614 568 675 l 404 0 l 251 0 z "},"X":{"ha":796,"x_min":24,"x_max":772,"o":"m 24 0 l 321 526 l 43 1019 l 185 1019 l 324 758 q 361 689 343 724 q 404 610 379 654 l 410 610 q 447 689 431 654 q 482 758 464 724 l 618 1019 l 753 1019 l 475 519 l 772 0 l 631 0 l 481 275 q 440 353 461 314 q 393 439 418 393 l 388 439 q 345 353 365 393 q 306 275 325 314 l 158 0 l 24 0 z "},"Y":{"ha":738,"x_min":-1,"x_max":739,"o":"m 304 0 l 304 396 l -1 1019 l 136 1019 l 267 731 q 316 620 292 675 q 367 508 340 565 l 372 508 q 426 620 400 565 q 474 731 451 675 l 606 1019 l 739 1019 l 433 396 l 433 0 l 304 0 z "},"Z":{"ha":838,"x_min":69,"x_max":771,"o":"m 69 0 l 69 76 l 607 910 l 118 910 l 118 1019 l 765 1019 l 765 943 l 228 110 l 771 110 l 771 0 l 69 0 z "},"[":{"ha":469,"x_min":146,"x_max":422,"o":"m 146 -236 l 146 1099 l 422 1099 l 422 1028 l 242 1028 l 242 -164 l 422 -164 l 422 -236 l 146 -236 z "},"\\":{"ha":544,"x_min":21,"x_max":528,"o":"m 438 -249 l 21 1103 l 113 1103 l 528 -249 l 438 -249 z "},"]":{"ha":469,"x_min":47,"x_max":324,"o":"m 47 -236 l 47 -164 l 228 -164 l 228 1028 l 47 1028 l 47 1099 l 324 1099 l 324 -236 l 47 -236 z "},"a":{"ha":783,"x_min":81,"x_max":671,"o":"m 301 -18 q 144 38 207 -18 q 81 196 81 94 q 192 385 81 319 q 544 478 304 451 q 531 570 544 526 q 485 641 518 614 q 389 668 451 668 q 265 643 324 668 q 163 588 207 618 l 113 675 q 242 741 165 708 q 410 774 319 774 q 609 689 547 774 q 671 464 671 604 l 671 0 l 567 0 l 556 90 l 551 90 q 434 14 497 46 q 301 -18 371 -18 m 338 83 q 441 109 393 83 q 544 183 489 135 l 544 394 q 343 353 418 379 q 236 290 268 328 q 204 204 204 253 q 243 112 204 140 q 338 83 282 83 z "},"b":{"ha":858,"x_min":128,"x_max":788,"o":"m 460 -18 q 351 8 408 -18 q 246 78 294 33 l 240 78 l 229 0 l 128 0 l 128 1106 l 254 1106 l 254 803 l 250 667 q 363 742 301 711 q 486 774 424 774 q 651 726 585 774 q 753 592 718 678 q 788 390 788 506 q 742 169 788 261 q 622 30 696 78 q 460 -18 547 -18 m 439 88 q 594 167 533 88 q 656 388 656 247 q 610 590 656 513 q 457 667 564 667 q 359 640 410 667 q 254 563 308 614 l 254 167 q 353 106 304 124 q 439 88 401 88 z "},"c":{"ha":707,"x_min":71,"x_max":669,"o":"m 425 -18 q 245 28 325 -18 q 118 163 165 75 q 71 376 71 251 q 122 591 71 503 q 256 726 172 679 q 435 774 339 774 q 562 747 508 774 q 656 685 615 721 l 590 601 q 521 649 557 631 q 440 668 485 668 q 318 631 372 668 q 233 529 264 594 q 203 376 203 464 q 232 225 203 290 q 314 124 261 160 q 436 88 367 88 q 534 109 489 88 q 614 163 579 131 l 669 78 q 556 7 618 32 q 425 -18 493 -18 z "},"d":{"ha":861,"x_min":74,"x_max":732,"o":"m 385 -18 q 158 85 243 -18 q 74 376 74 188 q 119 588 74 499 q 240 725 165 676 q 400 774 314 774 q 515 750 467 774 q 613 685 563 726 l 607 815 l 607 1106 l 732 1106 l 732 0 l 629 0 l 618 89 l 614 89 q 511 14 569 46 q 385 -18 453 -18 m 413 88 q 513 114 465 88 q 607 192 560 140 l 607 588 q 514 649 558 631 q 422 667 469 667 q 312 631 361 667 q 233 529 263 594 q 204 378 204 464 q 258 165 204 242 q 413 88 313 88 z "},"e":{"ha":769,"x_min":71,"x_max":711,"o":"m 432 -18 q 250 28 332 -18 q 119 164 168 75 q 71 376 71 253 q 119 588 71 499 q 246 725 168 676 q 411 774 324 774 q 633 677 556 774 q 711 419 711 581 q 710 380 711 399 q 706 347 708 361 l 197 347 q 272 155 204 226 q 447 83 340 83 q 549 99 503 83 q 636 143 594 115 l 682 60 q 571 5 632 28 q 432 -18 510 -18 m 196 439 l 600 439 q 551 613 600 553 q 413 672 501 672 q 269 611 332 672 q 196 439 207 550 z "},"f":{"ha":451,"x_min":46,"x_max":494,"o":"m 149 0 l 149 651 l 46 651 l 46 747 l 149 754 l 149 875 q 202 1057 149 990 q 368 1124 256 1124 q 435 1117 403 1124 q 494 1099 468 1110 l 467 1003 q 382 1022 424 1022 q 275 874 275 1022 l 275 754 l 435 754 l 435 651 l 275 651 l 275 0 l 149 0 z "},"g":{"ha":782,"x_min":71,"x_max":764,"o":"m 382 -347 q 157 -294 243 -347 q 71 -144 71 -242 q 100 -52 71 -96 q 182 26 129 -8 l 182 32 q 132 81 151 50 q 113 156 113 111 q 140 239 113 203 q 197 296 168 275 l 197 301 q 129 384 160 332 q 99 504 99 436 q 138 648 99 588 q 241 741 176 708 q 382 774 306 774 q 441 767 414 774 q 488 754 468 761 l 750 754 l 750 657 l 596 657 q 640 590 624 631 q 657 501 657 550 q 620 362 657 421 q 521 271 583 303 q 382 239 458 239 q 269 265 322 239 q 235 227 249 247 q 221 175 221 207 q 249 116 221 139 q 353 93 276 93 l 500 93 q 698 50 632 93 q 764 -86 764 7 q 717 -215 764 -156 q 585 -311 671 -275 q 382 -347 499 -347 m 382 325 q 495 374 447 325 q 543 504 543 422 q 496 633 543 586 q 382 681 449 681 q 268 634 315 681 q 221 504 221 588 q 269 374 221 422 q 382 325 317 325 m 400 -261 q 526 -239 472 -261 q 610 -181 581 -217 q 640 -106 640 -144 q 601 -33 640 -53 q 486 -12 561 -12 l 356 -12 q 309 -9 335 -12 q 258 0 283 -6 q 200 -62 218 -29 q 182 -128 182 -94 q 240 -224 182 -187 q 400 -261 299 -261 z "},"h":{"ha":843,"x_min":128,"x_max":731,"o":"m 128 0 l 128 1106 l 254 1106 l 254 803 l 250 647 q 363 737 303 700 q 500 774 424 774 q 675 698 619 774 q 731 478 731 622 l 731 0 l 604 0 l 604 461 q 570 615 604 568 q 461 663 536 663 q 357 633 403 663 q 254 547 311 604 l 254 0 l 128 0 z "},"i":{"ha":382,"x_min":107,"x_max":276,"o":"m 128 0 l 128 754 l 254 754 l 254 0 l 128 0 m 192 910 q 131 933 154 910 q 107 994 107 956 q 131 1053 107 1031 q 192 1076 154 1076 q 253 1053 229 1076 q 276 994 276 1031 q 253 933 276 956 q 192 910 229 910 z "},"j":{"ha":383,"x_min":-61,"x_max":275,"o":"m 50 -337 q -13 -331 15 -337 q -61 -318 -42 -325 l -36 -221 q -3 -231 -21 -226 q 36 -235 15 -235 q 111 -194 93 -235 q 129 -86 129 -154 l 129 754 l 256 754 l 256 -86 q 208 -269 256 -201 q 50 -337 161 -337 m 192 910 q 131 933 154 910 q 107 994 107 956 q 131 1053 107 1031 q 192 1076 154 1076 q 251 1053 228 1076 q 275 994 275 1031 q 251 933 275 956 q 192 910 228 910 z "},"k":{"ha":767,"x_min":128,"x_max":753,"o":"m 128 0 l 128 1106 l 253 1106 l 253 356 l 257 356 l 578 754 l 719 754 l 468 450 l 753 0 l 615 0 l 394 364 l 253 199 l 253 0 l 128 0 z "},"l":{"ha":396,"x_min":128,"x_max":335,"o":"m 261 -18 q 159 26 190 -18 q 128 150 128 69 l 128 1106 l 254 1106 l 254 142 q 265 100 254 113 q 290 88 276 88 q 301 88 296 88 q 317 90 307 89 l 335 -7 q 304 -15 321 -12 q 261 -18 288 -18 z "},"m":{"ha":1286,"x_min":128,"x_max":1168,"o":"m 128 0 l 128 754 l 232 754 l 243 644 l 247 644 q 355 736 296 699 q 482 774 414 774 q 618 735 568 774 q 690 629 668 696 q 810 733 749 693 q 939 774 871 774 q 1112 698 1056 774 q 1168 478 1168 622 l 1168 0 l 1042 0 l 1042 461 q 1008 615 1042 568 q 901 663 974 663 q 711 547 817 663 l 711 0 l 585 0 l 585 461 q 551 615 585 568 q 444 663 517 663 q 254 547 357 663 l 254 0 l 128 0 z "},"n":{"ha":849,"x_min":128,"x_max":731,"o":"m 128 0 l 128 754 l 232 754 l 243 646 l 247 646 q 363 736 301 699 q 500 774 424 774 q 675 698 619 774 q 731 478 731 622 l 731 0 l 604 0 l 604 461 q 570 615 604 568 q 461 663 536 663 q 357 633 403 663 q 254 547 311 604 l 254 0 l 128 0 z "},"o":{"ha":842,"x_min":71,"x_max":771,"o":"m 421 -18 q 249 28 329 -18 q 120 163 169 75 q 71 376 71 251 q 120 591 71 503 q 249 726 169 679 q 421 774 329 774 q 593 726 514 774 q 722 591 672 679 q 771 376 771 503 q 722 163 771 251 q 593 28 672 75 q 421 -18 514 -18 m 421 88 q 580 167 519 88 q 640 376 640 246 q 613 529 640 464 q 535 631 585 594 q 421 668 486 668 q 306 631 356 668 q 230 529 257 594 q 203 376 203 464 q 263 167 203 246 q 421 88 324 88 z "},"p":{"ha":861,"x_min":128,"x_max":788,"o":"m 128 -318 l 128 754 l 232 754 l 243 668 l 247 668 q 360 742 299 710 q 488 774 422 774 q 651 726 585 774 q 753 592 718 678 q 788 389 788 506 q 742 169 788 260 q 622 30 696 78 q 460 -18 547 -18 q 356 5 408 -18 q 251 69 303 28 l 254 -62 l 254 -318 l 128 -318 m 439 88 q 594 167 533 88 q 656 388 656 247 q 610 590 656 513 q 457 667 564 667 q 360 640 410 667 q 254 563 310 614 l 254 167 q 353 106 306 124 q 439 88 401 88 z "},"q":{"ha":861,"x_min":74,"x_max":732,"o":"m 607 -318 l 607 -50 l 613 88 q 508 13 567 43 q 385 -18 450 -18 q 158 85 243 -18 q 74 376 74 188 q 119 588 74 499 q 240 725 165 676 q 400 774 314 774 q 516 750 465 774 q 615 682 567 726 l 619 682 l 632 754 l 732 754 l 732 -318 l 607 -318 m 413 88 q 513 114 465 88 q 607 192 560 140 l 607 588 q 514 649 558 631 q 422 667 469 667 q 312 631 361 667 q 233 529 263 594 q 204 378 204 464 q 258 165 204 242 q 413 88 313 88 z "},"r":{"ha":539,"x_min":128,"x_max":542,"o":"m 128 0 l 128 754 l 232 754 l 243 617 l 247 617 q 342 731 288 689 q 461 774 397 774 q 542 757 510 774 l 518 646 q 444 658 486 658 q 344 620 397 658 q 254 485 292 582 l 254 0 l 128 0 z "},"s":{"ha":650,"x_min":43,"x_max":600,"o":"m 325 -18 q 171 12 244 -18 q 43 86 97 42 l 106 169 q 208 106 154 131 q 329 81 261 81 q 441 115 404 81 q 478 199 478 150 q 452 263 478 238 q 387 308 426 289 q 306 342 347 326 q 202 388 253 361 q 118 455 151 414 q 85 560 85 496 q 116 668 85 619 q 206 745 147 717 q 346 774 264 774 q 476 749 415 774 q 579 689 536 724 l 518 607 q 438 655 479 636 q 347 674 397 674 q 241 642 275 674 q 207 565 207 610 q 230 506 207 529 q 290 467 253 483 q 369 435 328 451 q 478 388 425 414 q 565 320 531 363 q 600 206 600 278 q 568 94 600 144 q 475 13 536 43 q 325 -18 414 -18 z "},"t":{"ha":524,"x_min":38,"x_max":504,"o":"m 365 -18 q 197 51 244 -18 q 150 233 150 121 l 150 651 l 38 651 l 38 747 l 156 754 l 171 967 l 276 967 l 276 754 l 481 754 l 481 651 l 276 651 l 276 231 q 302 123 276 161 q 393 85 328 85 q 437 91 413 85 q 479 104 461 97 l 504 10 q 436 -9 472 0 q 365 -18 400 -18 z "},"u":{"ha":843,"x_min":118,"x_max":717,"o":"m 347 -18 q 174 58 229 -18 q 118 276 118 133 l 118 754 l 244 754 l 244 292 q 278 139 244 186 q 386 92 311 92 q 490 122 444 92 q 590 219 536 151 l 590 754 l 717 754 l 717 0 l 611 0 l 601 118 l 597 118 q 485 19 544 57 q 347 -18 425 -18 z "},"v":{"ha":724,"x_min":18,"x_max":706,"o":"m 290 0 l 18 754 l 150 754 l 292 325 q 327 213 310 269 q 363 103 344 156 l 368 103 q 403 213 386 156 q 438 325 421 269 l 581 754 l 706 754 l 438 0 l 290 0 z "},"w":{"ha":1114,"x_min":38,"x_max":1076,"o":"m 247 0 l 38 754 l 167 754 l 279 318 q 302 212 290 264 q 324 107 314 160 l 331 107 q 356 213 343 160 q 382 318 368 265 l 499 754 l 622 754 l 740 318 q 767 212 754 264 q 793 107 779 160 l 799 107 q 822 212 811 160 q 846 318 833 264 l 957 754 l 1076 754 l 874 0 l 721 0 l 611 407 q 585 513 597 460 q 560 624 574 567 l 553 624 q 528 513 540 567 q 501 404 517 458 l 396 0 l 247 0 z "},"x":{"ha":692,"x_min":21,"x_max":671,"o":"m 21 0 l 269 393 l 40 754 l 176 754 l 278 589 q 315 526 296 557 q 353 463 335 494 l 358 463 q 393 526 376 494 q 426 589 410 557 l 519 754 l 651 754 l 422 381 l 671 0 l 532 0 l 421 176 q 382 245 403 211 q 340 311 361 279 l 333 311 q 294 245 314 279 q 256 176 275 211 l 154 0 l 21 0 z "},"y":{"ha":724,"x_min":18,"x_max":706,"o":"m 140 -325 q 51 -310 89 -325 l 76 -208 q 103 -217 88 -212 q 133 -221 119 -221 q 240 -174 199 -221 q 304 -58 282 -128 l 321 -1 l 18 754 l 150 754 l 304 335 q 340 231 321 286 q 376 124 358 175 l 383 124 q 415 230 399 175 q 447 335 432 285 l 582 754 l 706 754 l 421 -62 q 359 -196 396 -136 q 269 -290 322 -256 q 140 -325 215 -325 z "},"z":{"ha":658,"x_min":49,"x_max":619,"o":"m 49 0 l 49 68 l 446 651 l 92 651 l 92 754 l 606 754 l 606 686 l 208 103 l 619 103 l 619 0 l 49 0 z "},"{":{"ha":469,"x_min":53,"x_max":422,"o":"m 354 -236 q 217 -193 261 -236 q 172 -29 172 -150 q 179 124 172 56 q 186 269 186 192 q 175 328 186 300 q 135 374 164 356 q 53 392 106 392 l 53 471 q 135 490 106 472 q 175 535 164 507 q 186 592 186 563 q 179 739 186 671 q 172 892 172 807 q 217 1056 172 1013 q 354 1099 261 1099 l 422 1099 l 422 1028 l 382 1028 q 298 994 319 1028 q 276 885 276 960 q 281 749 276 814 q 285 603 285 683 q 264 488 285 528 q 192 435 243 449 l 192 429 q 264 374 243 415 q 285 260 285 333 q 281 115 285 181 q 276 -22 276 49 q 298 -131 276 -97 q 382 -164 319 -164 l 422 -164 l 422 -236 l 354 -236 z "},"|":{"ha":374,"x_min":143,"x_max":232,"o":"m 143 -387 l 143 1164 l 232 1164 l 232 -387 l 143 -387 z "},"}":{"ha":469,"x_min":47,"x_max":417,"o":"m 47 -236 l 47 -164 l 88 -164 q 172 -131 151 -164 q 193 -22 193 -97 q 190 115 193 49 q 186 260 186 181 q 207 374 186 333 q 278 429 228 415 l 278 435 q 207 488 228 449 q 186 603 186 528 q 190 749 186 683 q 193 885 193 814 q 172 994 193 960 q 88 1028 151 1028 l 47 1028 l 47 1099 l 117 1099 q 253 1056 208 1099 q 297 892 297 1013 q 291 739 297 807 q 285 592 285 671 q 296 535 285 563 q 335 490 307 507 q 417 471 364 472 l 417 392 q 335 374 364 392 q 296 328 307 356 q 285 269 285 300 q 291 124 285 192 q 297 -29 297 56 q 253 -193 297 -150 q 117 -236 208 -236 l 47 -236 z "},"~":{"ha":771,"x_min":56,"x_max":715,"o":"m 522 399 q 440 419 476 399 q 371 465 403 439 q 309 510 339 490 q 246 531 279 531 q 183 508 213 531 q 126 436 154 486 l 56 486 q 149 592 99 560 q 250 625 199 625 q 333 606 296 625 q 401 560 369 586 q 462 514 432 533 q 525 494 492 494 q 588 517 558 494 q 643 589 617 539 l 715 538 q 622 432 672 465 q 522 399 572 399 z "},"·":{"ha":779,"x_min":292,"x_max":475,"o":"m 383 408 q 319 435 346 408 q 292 504 292 463 q 319 576 292 549 q 383 603 346 603 q 448 576 421 603 q 475 504 475 549 q 448 435 475 463 q 383 408 421 408 z "},"—":{"ha":1242,"x_min":64,"x_max":1178,"o":"m 64 346 l 64 435 l 1178 435 l 1178 346 l 64 346 z "},"‘":{"ha":386,"x_min":88,"x_max":289,"o":"m 185 667 q 113 703 139 667 q 88 806 88 739 q 130 966 88 899 q 253 1081 172 1033 l 289 1021 q 201 938 231 982 q 172 828 172 893 q 185 829 176 829 q 242 809 217 829 q 267 751 267 789 q 244 689 267 711 q 185 667 221 667 z "},"’":{"ha":386,"x_min":97,"x_max":299,"o":"m 133 669 l 97 729 q 185 813 156 769 q 215 922 215 857 q 200 921 211 921 q 144 941 169 921 q 119 1000 119 961 q 142 1063 119 1040 q 200 1085 165 1085 q 273 1048 247 1085 q 299 944 299 1011 q 256 784 299 851 q 133 669 214 717 z "},"“":{"ha":660,"x_min":88,"x_max":561,"o":"m 185 667 q 113 703 139 667 q 88 806 88 739 q 130 966 88 899 q 253 1081 172 1033 l 289 1021 q 201 938 231 982 q 172 828 172 893 q 185 829 176 829 q 242 809 217 829 q 267 751 267 789 q 244 689 267 711 q 185 667 221 667 m 457 667 q 387 703 413 667 q 361 806 361 739 q 403 966 361 899 q 525 1081 446 1033 l 561 1021 q 474 938 504 982 q 444 828 444 893 q 457 829 449 829 q 515 809 489 829 q 540 751 540 789 q 517 689 540 711 q 457 667 493 667 z "},"”":{"ha":660,"x_min":97,"x_max":571,"o":"m 133 669 l 97 729 q 185 813 156 769 q 215 922 215 857 q 200 921 211 921 q 144 941 169 921 q 119 1000 119 961 q 142 1063 119 1040 q 200 1085 165 1085 q 273 1048 247 1085 q 299 944 299 1011 q 256 784 299 851 q 133 669 214 717 m 407 669 l 369 729 q 458 813 429 769 q 488 922 488 857 q 481 921 485 921 q 474 921 476 921 q 417 941 442 921 q 392 1000 392 961 q 415 1063 392 1040 q 474 1085 439 1085 q 545 1048 519 1085 q 571 944 571 1011 q 528 784 571 851 q 407 669 486 717 z "},"…":{"ha":1389,"x_min":140,"x_max":1249,"o":"m 232 619 q 297 593 271 619 q 324 528 324 567 q 297 463 324 489 q 232 436 271 436 q 167 463 193 436 q 140 528 140 489 q 167 593 140 567 q 232 619 193 619 m 694 619 q 760 593 733 619 q 786 528 786 567 q 760 463 786 489 q 694 436 733 436 q 629 463 656 436 q 603 528 603 489 q 629 593 603 567 q 694 619 656 619 m 1157 619 q 1222 593 1196 619 q 1249 528 1249 567 q 1222 463 1249 489 q 1157 436 1196 436 q 1092 463 1118 436 q 1065 528 1065 489 q 1092 593 1065 567 q 1157 619 1118 619 z "},"。":{"ha":1389,"x_min":58,"x_max":482,"o":"m 269 339 q 377 310 329 339 q 453 234 425 282 q 482 128 482 186 q 453 21 482 69 q 377 -56 425 -28 q 269 -85 329 -85 q 164 -56 213 -85 q 87 21 115 -28 q 58 128 58 69 q 87 234 58 186 q 164 310 115 282 q 269 339 213 339 m 269 -14 q 370 27 329 -14 q 411 128 411 68 q 370 226 411 185 q 269 268 329 268 q 171 226 213 268 q 129 128 129 185 q 171 27 129 68 q 269 -14 213 -14 z "},"《":{"ha":1389,"x_min":735,"x_max":1338,"o":"m 1119 -94 l 1043 -119 l 735 528 l 1043 1175 l 1119 1150 l 819 528 l 1119 -94 m 1338 -94 l 1263 -119 l 954 528 l 1263 1175 l 1338 1150 l 1039 528 l 1338 -94 z "},"》":{"ha":1389,"x_min":50,"x_max":653,"o":"m 269 -94 l 568 528 l 269 1150 l 344 1175 l 653 528 l 344 -119 l 269 -94 m 50 -94 l 349 528 l 50 1150 l 125 1175 l 433 528 l 125 -119 l 50 -94 z "},"【":{"ha":1389,"x_min":925,"x_max":1342,"o":"m 1342 1168 q 1204 1008 1267 1104 q 1104 791 1142 913 q 1067 528 1067 669 q 1104 265 1067 388 q 1204 47 1142 143 q 1342 -112 1267 -49 l 1342 -119 l 925 -119 l 925 1175 l 1342 1175 l 1342 1168 z "},"】":{"ha":1389,"x_min":47,"x_max":464,"o":"m 464 -119 l 47 -119 l 47 -112 q 185 47 124 -49 q 285 265 247 143 q 322 528 322 388 q 285 791 322 669 q 185 1008 247 913 q 47 1168 124 1104 l 47 1175 l 464 1175 l 464 -119 z "},"一":{"ha":1389,"x_min":67,"x_max":1328,"o":"m 67 597 l 1328 597 l 1328 485 l 67 485 l 67 597 z "},"丁":{"ha":1389,"x_min":89,"x_max":1300,"o":"m 1300 1035 l 1300 929 l 793 929 l 793 61 q 774 -30 793 0 q 711 -74 756 -60 q 588 -91 667 -87 q 389 -94 508 -94 q 369 -35 383 -69 q 339 22 354 0 q 464 19 404 21 q 568 19 524 18 q 631 19 613 19 q 666 30 656 21 q 676 63 676 39 l 676 929 l 89 929 l 89 1035 l 1300 1035 z "},"七":{"ha":1389,"x_min":74,"x_max":1319,"o":"m 699 44 l 1054 44 q 1123 65 1100 44 q 1156 140 1146 85 q 1174 297 1167 194 q 1224 269 1193 283 q 1278 249 1256 256 q 1250 68 1269 135 q 1186 -28 1231 1 q 1057 -57 1142 -57 l 694 -57 q 561 -40 610 -57 q 492 23 513 -22 q 472 150 472 68 l 472 571 l 90 510 l 74 613 l 472 676 l 472 1138 l 581 1138 l 581 693 l 1303 810 l 1319 706 l 581 589 l 581 149 q 590 84 581 107 q 624 53 599 61 q 699 44 650 44 z "},"万":{"ha":1389,"x_min":51,"x_max":1299,"o":"m 1299 957 l 572 957 q 567 817 571 889 q 556 674 563 746 l 1172 674 q 1172 654 1172 674 q 1171 624 1172 635 q 1152 338 1161 456 q 1131 142 1143 219 q 1105 20 1119 65 q 1069 -47 1090 -25 q 1019 -84 1046 -74 q 951 -97 992 -94 q 846 -99 913 -100 q 707 -92 779 -97 q 696 -40 706 -68 q 671 10 686 -12 q 817 0 749 1 q 913 -1 885 -1 q 951 2 936 -1 q 978 17 965 6 q 1014 97 999 36 q 1041 274 1029 158 q 1063 574 1053 390 l 543 574 q 478 310 524 438 q 348 74 432 182 q 126 -110 264 -33 q 93 -66 114 -89 q 51 -29 72 -43 q 242 117 167 32 q 360 304 317 203 q 426 516 404 406 q 454 739 447 626 q 464 957 461 851 l 90 957 l 90 1057 l 1299 1057 l 1299 957 z "},"丈":{"ha":1389,"x_min":93,"x_max":1319,"o":"m 1299 793 l 894 793 q 849 458 885 608 q 719 192 814 307 q 1319 -10 938 33 q 1285 -56 1303 -28 q 1258 -107 1268 -83 q 646 115 868 -53 q 444 -8 563 44 q 157 -97 325 -61 q 132 -51 150 -76 q 99 -7 114 -25 q 373 74 260 25 q 563 186 486 122 q 398 411 465 282 q 286 704 331 540 l 383 728 q 483 464 421 581 q 636 260 544 347 q 748 494 718 361 q 785 793 778 626 l 93 793 l 93 893 l 789 893 q 790 1013 790 950 q 790 1142 790 1075 l 901 1142 q 901 1014 901 1076 q 899 893 900 951 l 1299 893 l 1299 793 z "},"三":{"ha":1389,"x_min":96,"x_max":1292,"o":"m 175 1028 l 1217 1028 l 1217 925 l 175 925 l 175 1028 m 264 578 l 1108 578 l 1108 474 l 264 474 l 264 578 m 96 99 l 1292 99 l 1292 -6 l 96 -6 l 96 99 z "},"上":{"ha":1389,"x_min":76,"x_max":1314,"o":"m 703 63 l 1314 63 l 1314 -40 l 76 -40 l 76 63 l 594 63 l 594 1140 l 703 1140 l 703 715 l 1219 715 l 1219 613 l 703 613 l 703 63 z "},"下":{"ha":1389,"x_min":82,"x_max":1308,"o":"m 1308 957 l 722 957 l 722 710 l 740 731 q 872 665 803 701 q 1008 588 940 628 q 1133 512 1075 549 q 1233 443 1192 475 l 1161 350 q 1041 437 1114 389 q 885 535 968 485 q 722 626 801 585 l 722 -104 l 613 -104 l 613 957 l 82 957 l 82 1060 l 1308 1060 l 1308 957 z "},"不":{"ha":1389,"x_min":67,"x_max":1326,"o":"m 1288 961 l 847 961 q 800 885 825 922 q 749 808 775 847 l 749 -103 l 639 -103 l 639 669 q 407 446 533 550 q 136 265 281 342 q 103 311 125 285 q 67 356 82 338 q 326 521 204 425 q 547 730 447 617 q 715 961 647 843 l 101 961 l 101 1064 l 1288 1064 l 1288 961 m 776 663 l 853 729 q 981 643 914 690 q 1112 547 1047 596 q 1233 451 1176 497 q 1326 364 1289 404 l 1244 285 q 1153 373 1207 325 q 1035 472 1099 421 q 904 573 971 524 q 776 663 838 622 z "},"与":{"ha":1389,"x_min":79,"x_max":1313,"o":"m 1313 364 l 1313 264 l 1047 264 q 1001 51 1026 125 q 944 -56 976 -24 q 890 -92 918 -82 q 821 -104 863 -101 q 715 -105 783 -106 q 574 -99 647 -104 q 562 -47 572 -76 q 536 3 551 -18 q 685 -6 617 -4 q 785 -8 754 -8 q 827 -5 811 -8 q 857 10 843 -1 q 903 92 882 32 q 943 264 925 153 l 79 264 l 79 364 l 957 364 q 969 458 964 408 q 981 565 975 508 l 403 565 q 394 528 399 546 q 385 493 389 510 l 278 504 q 315 648 296 567 q 355 819 335 729 q 392 997 375 908 q 424 1164 410 1086 l 529 1154 q 512 1063 521 1111 q 492 965 503 1014 l 1168 965 l 1168 867 l 472 867 q 449 761 461 814 q 425 660 436 708 l 1092 660 q 1091 641 1092 660 q 1089 611 1090 622 q 1075 478 1082 540 q 1061 364 1068 417 l 1313 364 z "},"丐":{"ha":1389,"x_min":110,"x_max":1283,"o":"m 1283 967 l 739 967 l 739 789 l 1196 789 l 1196 694 l 739 694 l 739 506 l 1275 506 l 1271 456 q 1232 186 1251 292 q 1190 22 1213 81 q 1138 -64 1167 -37 q 1086 -95 1114 -86 q 1018 -106 1058 -104 q 920 -106 983 -107 q 786 -101 857 -106 q 775 -51 785 -79 q 750 -3 765 -22 q 891 -10 825 -8 q 985 -12 957 -12 q 1025 -10 1010 -12 q 1054 1 1040 -8 q 1112 123 1086 29 q 1160 408 1138 217 l 299 408 q 290 360 294 383 q 281 318 285 338 l 179 333 q 211 490 194 400 q 244 674 228 579 q 269 850 260 769 l 372 840 q 347 676 361 764 q 317 506 332 588 l 638 506 l 638 967 l 110 967 l 110 1064 l 1283 1064 l 1283 967 z "},"丑":{"ha":1389,"x_min":76,"x_max":1315,"o":"m 460 36 l 908 36 q 928 246 919 131 q 947 486 938 361 l 524 486 q 492 244 508 360 q 460 36 475 128 m 975 971 l 583 971 q 562 785 574 882 q 538 589 550 688 l 954 589 q 967 785 961 688 q 975 971 972 882 m 1315 486 l 1051 486 q 1034 244 1043 360 q 1015 36 1025 129 l 1299 36 l 1299 -62 l 92 -62 l 92 36 l 351 36 q 386 245 368 129 q 421 486 404 361 l 76 486 l 76 589 l 435 589 q 458 785 447 688 q 479 971 469 882 l 193 971 l 193 1071 l 1083 1071 q 1072 838 1078 961 q 1057 589 1065 714 l 1315 589 l 1315 486 z "},"专":{"ha":1389,"x_min":83,"x_max":1285,"o":"m 1285 644 l 540 644 q 513 566 526 604 q 488 492 500 528 l 1089 492 l 1107 496 l 1185 450 q 1011 276 1110 374 q 817 88 913 179 q 942 34 883 61 q 1043 -19 1000 7 l 981 -108 q 858 -42 931 -76 q 699 28 785 -7 q 526 94 614 63 q 360 150 439 126 l 418 225 q 563 181 488 207 q 714 128 638 156 q 856 264 783 193 q 989 394 929 335 l 344 394 q 388 511 365 447 q 435 644 411 575 l 83 644 l 83 744 l 467 744 q 493 826 481 785 q 519 908 506 868 l 194 908 l 194 1007 l 547 1007 q 572 1088 560 1047 q 593 1165 583 1128 l 697 1150 q 677 1080 688 1117 q 656 1007 667 1043 l 1186 1007 l 1186 908 l 625 908 q 599 826 611 868 q 572 744 586 785 l 1285 744 l 1285 644 z "},"且":{"ha":1389,"x_min":79,"x_max":1311,"o":"m 399 299 l 399 54 l 1003 54 l 1003 299 l 399 299 m 1003 981 l 399 981 l 399 742 l 1003 742 l 1003 981 m 1003 399 l 1003 644 l 399 644 l 399 399 l 1003 399 m 1108 54 l 1311 54 l 1311 -47 l 79 -47 l 79 54 l 297 54 l 297 1081 l 1108 1081 l 1108 54 z "},"世":{"ha":1389,"x_min":71,"x_max":1322,"o":"m 743 428 l 1004 428 l 1004 718 l 743 718 l 743 428 m 1107 269 l 1004 269 l 1004 331 l 743 331 l 743 263 l 642 263 l 642 718 l 383 718 l 383 96 l 1275 96 l 1275 -4 l 383 -4 l 383 -106 l 278 -106 l 278 718 l 71 718 l 71 817 l 278 817 l 278 1125 l 383 1125 l 383 817 l 642 817 l 642 1154 l 743 1154 l 743 817 l 1004 817 l 1004 1138 l 1107 1138 l 1107 817 l 1322 817 l 1322 718 l 1107 718 l 1107 269 z "},"丘":{"ha":1389,"x_min":74,"x_max":1317,"o":"m 397 568 l 397 53 l 867 53 l 867 568 l 397 568 m 972 53 l 1317 53 l 1317 -49 l 74 -49 l 74 53 l 293 53 l 293 1018 l 388 996 q 635 1036 511 1014 q 870 1085 760 1058 q 1058 1140 981 1113 l 1138 1056 q 918 994 1042 1022 q 660 943 794 965 q 397 904 526 921 l 397 668 l 1247 668 l 1247 568 l 972 568 l 972 53 z "},"丙":{"ha":1389,"x_min":99,"x_max":1290,"o":"m 743 967 l 743 765 l 743 761 l 1242 761 l 1242 31 q 1228 -44 1242 -17 q 1179 -83 1215 -71 q 1081 -99 1144 -96 q 926 -101 1018 -101 q 911 -49 922 -79 q 889 1 900 -19 q 1024 -1 963 -1 q 1107 0 1086 -1 q 1133 8 1126 1 q 1140 31 1140 14 l 1140 663 l 739 663 q 718 551 732 607 q 856 447 785 503 q 989 335 926 390 q 1092 235 1051 279 l 1018 157 q 928 249 983 199 q 811 354 874 300 q 686 457 749 408 q 569 284 647 368 q 357 129 492 200 q 323 171 346 147 q 281 208 300 194 q 487 349 414 272 q 590 507 560 426 q 629 663 621 588 l 253 663 l 253 -106 l 150 -106 l 150 761 l 633 761 l 633 767 l 633 967 l 99 967 l 99 1068 l 1290 1068 l 1290 967 l 743 967 z "},"业":{"ha":1389,"x_min":89,"x_max":1303,"o":"m 1182 842 l 1275 796 q 1201 631 1242 717 q 1119 463 1161 544 q 1036 318 1076 382 l 951 364 q 1033 509 990 426 q 1116 678 1076 592 q 1182 842 1156 765 m 410 368 l 307 329 q 260 474 290 390 q 192 649 229 558 q 118 817 154 739 l 214 846 q 289 681 251 769 q 359 511 326 593 q 410 368 392 429 m 915 68 l 1303 68 l 1303 -33 l 89 -33 l 89 68 l 475 68 l 475 1144 l 578 1144 l 578 68 l 813 68 l 813 1143 l 915 1143 l 915 68 z "},"丛":{"ha":1389,"x_min":82,"x_max":1311,"o":"m 896 1144 l 1006 1138 q 994 990 1000 1061 q 979 850 988 918 q 1024 674 996 765 q 1092 497 1051 583 q 1186 334 1132 410 q 1311 206 1240 258 q 1272 164 1294 192 q 1236 114 1249 136 q 1106 260 1163 176 q 1008 440 1050 344 q 939 629 967 535 q 828 328 899 461 q 643 94 757 194 q 603 136 631 111 q 557 175 576 161 q 749 412 679 271 q 851 737 818 553 q 896 1144 883 921 m 704 418 l 624 343 q 544 486 596 404 q 436 646 493 568 q 342 343 403 478 q 182 106 282 208 q 142 145 169 121 q 94 183 114 169 q 260 426 201 283 q 347 751 319 569 q 383 1149 374 933 l 492 1142 q 478 954 486 1044 q 460 782 471 864 q 554 658 507 724 q 641 531 601 593 q 704 418 681 468 m 82 -64 l 82 42 l 1310 42 l 1310 -64 l 82 -64 z "},"东":{"ha":1389,"x_min":104,"x_max":1301,"o":"m 361 363 l 463 336 q 340 124 414 226 q 192 -50 267 21 q 151 -15 178 -35 q 104 18 124 6 q 249 174 181 82 q 361 363 318 265 m 1208 474 l 808 474 l 808 35 q 797 -36 808 -11 q 753 -74 785 -61 q 667 -91 721 -87 q 540 -94 614 -94 q 526 -42 538 -72 q 501 11 514 -11 q 612 9 563 10 q 678 10 661 8 q 700 17 694 11 q 706 36 706 22 l 706 474 l 400 474 q 300 469 339 474 q 251 453 261 464 q 235 504 246 471 q 213 560 224 538 q 260 594 236 567 q 317 668 285 622 q 370 749 335 692 q 447 881 406 806 l 113 881 l 113 979 l 499 979 q 544 1074 522 1025 q 586 1169 567 1122 l 693 1124 q 660 1052 678 1089 q 624 979 643 1015 l 1267 979 l 1267 881 l 571 881 q 476 719 525 797 q 378 574 426 642 l 706 574 l 706 776 l 808 776 l 808 574 l 1210 574 l 1208 474 m 922 322 l 1007 365 q 1118 251 1061 314 q 1224 128 1175 189 q 1301 18 1272 67 l 1208 -32 q 1135 77 1182 15 q 1032 203 1088 139 q 922 322 976 268 z "},"丝":{"ha":1389,"x_min":76,"x_max":1308,"o":"m 864 324 l 1267 343 q 1260 294 1263 321 q 1258 250 1258 268 q 997 235 1096 242 q 846 224 899 229 q 769 216 793 219 q 732 208 746 213 q 718 253 728 224 q 700 303 708 283 q 754 336 724 310 q 824 404 785 363 q 890 476 846 425 q 986 596 933 528 q 830 585 883 590 q 753 577 776 581 q 719 568 731 574 q 706 614 715 583 q 686 664 696 644 q 726 692 706 668 q 772 751 747 715 q 810 810 785 769 q 868 908 836 851 q 931 1028 900 964 q 988 1158 963 1093 l 1083 1119 q 963 887 1029 1001 q 828 679 897 772 l 1054 688 q 1124 790 1090 736 q 1189 894 1158 843 l 1279 846 q 1081 566 1188 700 q 864 324 974 432 m 299 318 l 658 338 q 653 289 656 315 q 651 246 650 263 q 411 229 501 236 q 273 218 321 222 q 203 210 225 214 q 171 200 182 206 q 156 246 167 215 q 135 296 146 276 q 190 331 161 303 q 257 401 218 358 q 318 472 278 422 q 407 588 358 521 q 258 577 310 582 q 185 568 207 572 q 153 560 164 564 q 139 606 149 575 q 119 656 129 636 q 160 684 139 660 q 204 744 181 708 q 242 803 217 763 q 299 902 268 844 q 360 1025 329 960 q 414 1156 390 1090 l 511 1117 q 393 882 458 999 q 260 671 328 765 l 471 679 q 542 789 507 732 q 607 903 576 846 l 700 856 q 508 569 611 708 q 299 318 404 429 m 76 71 l 1308 71 l 1308 -25 l 76 -25 l 76 71 z "},"丢":{"ha":1389,"x_min":86,"x_max":1301,"o":"m 1301 529 l 1301 432 l 613 432 l 660 413 q 517 234 592 321 q 368 76 443 147 l 1035 124 q 958 224 997 174 q 881 317 919 274 l 975 356 q 1090 221 1032 294 q 1197 75 1149 147 q 1274 -54 1246 3 l 1172 -100 q 1138 -36 1158 -71 q 1094 36 1118 -1 q 715 6 867 18 q 469 -14 563 -6 q 324 -28 375 -22 q 247 -38 272 -33 q 207 -50 222 -43 l 207 -49 q 192 1 203 -32 q 174 54 182 33 q 220 76 194 57 q 276 126 246 96 q 341 190 297 144 q 438 299 385 236 q 538 432 490 363 l 86 432 l 86 529 l 642 529 l 642 715 l 200 715 l 200 814 l 642 814 l 642 985 q 410 969 526 975 q 188 961 294 964 q 178 1010 186 982 q 161 1057 169 1039 q 422 1069 288 1061 q 688 1089 557 1076 q 931 1117 818 1101 q 1128 1154 1044 1133 l 1206 1064 q 992 1024 1111 1042 q 744 994 874 1006 l 744 814 l 1188 814 l 1188 715 l 744 715 l 744 529 l 1301 529 z "},"两":{"ha":1389,"x_min":88,"x_max":1303,"o":"m 817 775 l 817 965 l 565 965 l 565 775 l 817 775 m 1303 965 l 918 965 l 918 775 l 1246 775 l 1246 25 q 1233 -49 1246 -22 q 1183 -89 1219 -76 q 1085 -104 1149 -101 q 928 -107 1021 -107 q 913 -55 924 -85 q 892 -3 903 -25 q 1028 -7 965 -7 q 1110 -6 1090 -7 q 1137 3 1129 -4 q 1144 28 1144 10 l 1144 678 l 917 678 q 912 611 915 646 q 903 540 908 576 q 990 437 946 492 q 1070 331 1033 382 q 1128 242 1107 281 l 1067 163 q 986 288 1038 215 q 878 429 935 360 q 810 253 856 340 q 689 90 764 165 q 656 128 678 106 q 615 163 635 150 q 738 326 696 238 q 796 506 779 414 q 815 678 813 597 l 564 678 q 559 608 563 644 q 550 536 556 572 q 632 432 592 486 q 694 339 672 378 l 632 257 q 586 334 615 290 q 524 421 557 378 q 456 249 501 333 q 336 90 410 164 q 303 128 325 106 q 264 163 282 150 q 385 326 343 238 q 443 506 426 414 q 463 678 460 597 l 247 678 l 247 -107 l 146 -107 l 146 775 l 464 775 l 464 965 l 88 965 l 88 1065 l 1303 1065 l 1303 965 z "},"严":{"ha":1389,"x_min":46,"x_max":1296,"o":"m 599 993 l 599 632 l 786 632 l 786 993 l 599 993 m 1296 632 l 1296 540 l 263 540 l 263 404 q 252 238 263 329 q 212 56 242 146 q 125 -107 182 -35 q 87 -68 113 -92 q 46 -36 61 -44 q 122 108 97 31 q 153 262 146 185 q 161 406 161 339 l 161 632 l 497 632 l 497 993 l 150 993 l 150 1083 l 1253 1083 l 1253 993 l 888 993 l 888 632 l 1296 632 m 418 696 l 325 663 q 280 788 313 715 q 207 918 247 860 l 294 950 q 370 821 336 892 q 418 696 404 750 m 1032 661 l 949 690 q 998 772 972 725 q 1047 867 1024 818 q 1083 954 1069 915 l 1189 919 q 1110 781 1153 853 q 1032 661 1068 710 z "},"丧":{"ha":1389,"x_min":81,"x_max":1329,"o":"m 1147 435 l 1228 376 q 1081 270 1163 324 q 928 176 1000 217 q 1107 62 1007 108 q 1329 -8 1207 15 q 1295 -51 1314 -25 q 1265 -99 1276 -78 q 866 100 1024 -40 q 625 460 708 240 l 411 460 l 411 38 l 744 110 q 740 58 742 88 q 739 13 738 28 q 511 -41 597 -21 q 379 -73 425 -61 q 313 -92 333 -85 q 279 -107 292 -100 q 263 -59 275 -87 q 236 -12 250 -31 q 281 17 257 -4 q 304 81 304 39 l 304 460 l 81 460 l 81 556 l 640 556 l 640 913 l 131 913 l 131 1007 l 640 1007 l 640 1161 l 742 1161 l 742 1007 l 1264 1007 l 1264 913 l 742 913 l 742 556 l 1313 556 l 1313 460 l 725 460 q 788 340 753 396 q 865 236 822 285 q 965 298 914 264 q 1065 368 1017 332 q 1147 435 1113 404 m 243 836 l 331 874 q 390 797 360 839 q 447 714 421 754 q 488 642 474 674 l 393 597 q 356 671 381 629 q 302 756 332 713 q 243 836 272 800 m 946 590 l 867 626 q 926 704 894 660 q 985 794 957 749 q 1033 878 1014 840 l 1136 838 q 1041 706 1092 774 q 946 590 990 638 z "},"个":{"ha":1389,"x_min":31,"x_max":1365,"o":"m 689 1051 q 540 867 632 964 q 333 678 447 769 q 97 515 219 588 q 67 558 86 533 q 31 597 47 582 q 215 717 125 650 q 383 860 304 785 q 526 1013 463 936 q 629 1158 589 1089 l 736 1158 q 915 949 811 1051 q 1135 759 1018 846 q 1365 615 1251 672 q 1328 571 1346 596 q 1294 522 1310 546 q 1123 635 1210 572 q 955 769 1036 699 q 806 911 874 839 q 689 1051 738 983 m 636 707 l 743 707 l 743 -106 l 636 -106 l 636 707 z "},"丫":{"ha":1389,"x_min":251,"x_max":1142,"o":"m 639 697 l 744 697 l 744 -106 l 639 -106 l 639 697 m 251 1075 l 340 1122 q 447 1001 394 1067 q 542 873 499 936 q 607 757 585 810 l 511 704 q 448 820 489 756 q 356 952 407 885 q 251 1075 304 1019 m 1038 1139 l 1142 1093 q 1053 958 1101 1028 q 955 825 1004 889 q 861 714 906 761 l 769 757 q 864 873 814 807 q 960 1009 914 939 q 1038 1139 1006 1079 z "},"中":{"ha":1389,"x_min":139,"x_max":1249,"o":"m 744 446 l 1143 446 l 1143 814 l 744 814 l 744 446 m 240 446 l 638 446 l 638 814 l 240 814 l 240 446 m 744 915 l 1249 915 l 1249 265 l 1143 265 l 1143 344 l 744 344 l 744 -106 l 638 -106 l 638 344 l 240 344 l 240 258 l 139 258 l 139 915 l 638 915 l 638 1163 l 744 1163 l 744 915 z "},"丰":{"ha":1389,"x_min":79,"x_max":1313,"o":"m 1313 329 l 1313 228 l 747 228 l 747 -103 l 640 -103 l 640 228 l 79 228 l 79 329 l 640 329 l 640 553 l 199 553 l 199 651 l 640 651 l 640 857 l 131 857 l 131 958 l 640 958 l 640 1161 l 747 1161 l 747 958 l 1257 958 l 1257 857 l 747 857 l 747 651 l 1193 651 l 1193 553 l 747 553 l 747 329 l 1313 329 z "},"串":{"ha":1389,"x_min":150,"x_max":1246,"o":"m 744 215 l 1136 215 l 1136 415 l 744 415 l 744 215 m 254 215 l 636 215 l 636 415 l 254 415 l 254 215 m 308 718 l 636 718 l 636 910 l 308 910 l 308 718 m 1075 910 l 744 910 l 744 718 l 1075 718 l 1075 910 m 744 511 l 1246 511 l 1246 67 l 1136 67 l 1136 122 l 744 122 l 744 -106 l 636 -106 l 636 122 l 254 122 l 254 64 l 150 64 l 150 511 l 636 511 l 636 626 l 204 626 l 204 1001 l 636 1001 l 636 1160 l 744 1160 l 744 1001 l 1185 1001 l 1185 626 l 744 626 l 744 511 z "},"临":{"ha":1389,"x_min":122,"x_max":1315,"o":"m 122 76 l 122 994 l 219 994 l 219 76 l 122 76 m 351 -96 l 351 1143 l 453 1143 l 453 -96 l 351 -96 m 888 426 l 693 426 l 693 64 l 888 64 l 888 426 m 1175 64 l 1175 426 l 983 426 l 983 64 l 1175 64 m 593 -106 l 593 525 l 1278 525 l 1278 -100 l 1175 -100 l 1175 -32 l 693 -32 l 693 -106 l 593 -106 m 1113 649 l 1043 575 q 978 640 1018 603 q 893 717 938 678 q 807 789 849 757 l 875 850 q 962 781 917 818 q 1047 710 1007 744 q 1113 649 1088 675 m 785 1000 l 1315 1000 l 1315 900 l 743 900 q 665 749 707 819 q 574 624 622 679 q 532 653 560 635 q 485 681 504 671 q 631 897 568 768 q 731 1168 693 1025 l 832 1149 q 810 1074 822 1111 q 785 1000 797 1036 z "},"丸":{"ha":1389,"x_min":47,"x_max":1358,"o":"m 1089 17 l 1210 17 q 1241 36 1231 17 q 1256 110 1251 56 q 1263 267 1261 164 q 1309 240 1281 253 q 1358 219 1338 226 q 1342 38 1354 104 q 1301 -57 1329 -29 q 1219 -85 1272 -85 l 1072 -85 q 967 -51 996 -85 q 938 78 938 -18 l 938 764 l 619 764 q 599 591 613 676 q 561 424 585 506 q 693 326 632 375 q 797 235 754 278 l 719 151 q 634 232 685 189 q 524 319 583 275 q 374 79 469 189 q 122 -108 278 -31 q 90 -65 113 -89 q 47 -28 67 -42 q 292 151 200 46 q 435 385 385 257 q 305 470 371 429 q 178 546 239 511 l 249 617 q 357 556 301 589 q 468 486 413 522 q 497 622 486 553 q 513 764 507 692 l 122 764 l 122 865 l 519 865 q 523 1012 522 939 q 524 1157 524 1085 l 631 1157 q 629 1012 631 1085 q 625 865 628 939 l 1044 865 l 1044 76 q 1053 27 1044 38 q 1089 17 1061 17 z "},"丹":{"ha":1389,"x_min":53,"x_max":1313,"o":"m 519 864 l 592 922 q 692 844 640 888 q 790 758 744 801 q 865 681 836 715 l 788 615 q 715 694 760 650 q 618 783 669 738 q 519 864 567 828 m 379 558 l 1021 558 l 1021 994 l 381 994 l 381 622 q 381 591 381 607 q 379 558 381 575 m 1313 558 l 1313 460 l 1125 460 l 1125 31 q 1109 -50 1125 -22 q 1057 -90 1093 -78 q 952 -104 1019 -101 q 778 -107 885 -107 q 763 -56 774 -86 q 739 -7 751 -26 q 890 -10 821 -10 q 982 -8 960 -10 q 1012 1 1003 -7 q 1021 31 1021 8 l 1021 460 l 374 460 q 340 259 365 361 q 265 62 315 157 q 129 -110 215 -33 q 95 -71 119 -94 q 53 -36 71 -47 q 176 115 131 33 q 243 285 221 197 q 272 460 265 374 l 79 460 l 79 558 l 276 558 q 278 592 278 575 q 278 624 278 608 l 278 1089 l 1125 1089 l 1125 558 l 1313 558 z "},"为":{"ha":1389,"x_min":81,"x_max":1247,"o":"m 468 919 l 374 874 q 313 976 354 917 q 229 1083 271 1036 l 318 1122 q 403 1019 360 1076 q 468 919 446 961 m 671 829 l 1247 829 q 1247 808 1247 829 q 1246 775 1246 786 q 1229 424 1238 568 q 1210 188 1221 281 q 1186 42 1200 94 q 1151 -36 1172 -11 q 1101 -76 1128 -64 q 1036 -90 1075 -87 q 940 -92 1001 -93 q 817 -87 879 -92 q 806 -34 815 -64 q 781 19 796 -4 q 910 11 850 13 q 996 10 969 10 q 1031 14 1017 10 q 1056 31 1044 18 q 1091 126 1076 51 q 1117 346 1106 200 q 1138 726 1128 492 l 661 726 q 619 519 649 625 q 532 307 589 413 q 385 101 475 201 q 161 -87 294 1 q 124 -47 149 -68 q 81 -11 100 -25 q 345 222 247 97 q 491 475 443 346 q 556 726 539 604 l 119 726 l 119 829 l 567 829 q 571 915 569 874 q 572 996 572 957 l 572 1158 l 675 1158 l 675 994 q 671 829 675 917 m 971 293 l 881 243 q 833 327 864 279 q 765 424 801 375 q 693 515 729 474 l 778 557 q 853 469 815 517 q 922 376 890 422 q 971 293 953 329 z "},"主":{"ha":1389,"x_min":83,"x_max":1311,"o":"m 749 40 l 1311 40 l 1311 -61 l 83 -61 l 83 40 l 639 40 l 639 382 l 211 382 l 211 481 l 639 481 l 639 785 l 147 785 l 147 886 l 757 886 q 691 956 731 918 q 607 1031 651 993 q 521 1099 563 1068 l 604 1157 q 697 1085 649 1125 q 789 1006 746 1046 q 858 933 832 967 l 793 886 l 1242 886 l 1242 785 l 749 785 l 749 481 l 1185 481 l 1185 382 l 749 382 l 749 40 z "},"丽":{"ha":1389,"x_min":79,"x_max":1311,"o":"m 629 836 l 629 21 q 620 -43 629 -19 q 583 -79 611 -67 q 516 -95 557 -92 q 411 -97 475 -99 q 401 -49 410 -78 q 382 1 392 -21 q 459 -1 424 0 q 506 0 494 -1 q 528 22 528 0 l 528 742 l 251 742 l 251 -106 l 154 -106 l 154 836 l 629 836 m 497 311 l 413 274 q 378 360 400 311 q 331 459 357 408 q 281 554 306 510 l 361 583 q 413 492 386 542 q 461 394 439 442 q 497 311 483 347 m 1246 836 l 1246 18 q 1236 -47 1246 -24 q 1200 -82 1226 -69 q 1129 -98 1174 -96 q 1019 -100 1085 -100 q 1008 -51 1017 -79 q 989 -3 1000 -24 q 1072 -4 1033 -4 q 1121 -4 1110 -4 q 1144 18 1144 -4 l 1144 742 l 849 742 l 849 -106 l 751 -106 l 751 836 l 1246 836 m 1106 304 l 1025 267 q 988 350 1011 303 q 938 447 964 397 q 886 539 911 497 l 963 571 q 1017 480 989 529 q 1068 385 1044 431 q 1106 304 1092 339 m 79 1078 l 1311 1078 l 1311 978 l 79 978 l 79 1078 z "},"举":{"ha":1389,"x_min":47,"x_max":1347,"o":"m 768 956 l 676 914 q 626 1019 661 958 q 553 1132 592 1081 l 639 1169 q 713 1060 676 1121 q 768 956 750 1000 m 746 432 l 746 263 l 1267 263 l 1267 164 l 746 164 l 746 -108 l 643 -108 l 643 164 l 133 164 l 133 263 l 643 263 l 643 432 l 328 432 l 328 529 l 643 529 l 643 699 l 746 699 l 746 529 l 1072 529 l 1072 432 l 746 432 m 1310 796 l 979 796 q 1143 624 1044 703 q 1347 503 1242 546 q 1309 465 1329 489 q 1278 419 1289 440 q 1124 515 1200 457 q 984 646 1049 574 q 874 796 919 718 l 524 796 q 415 638 479 713 q 273 505 350 564 q 114 408 196 446 q 83 451 103 428 q 47 488 63 474 q 256 615 157 532 q 418 796 356 697 l 82 796 l 82 890 l 363 890 q 302 988 342 932 q 222 1089 263 1044 l 310 1131 q 395 1029 353 1086 q 460 928 438 972 l 386 890 l 883 890 q 944 969 913 925 q 1006 1060 976 1014 q 1054 1144 1035 1107 l 1163 1108 q 1081 995 1125 1053 q 997 890 1038 938 l 1310 890 l 1310 796 z "},"乃":{"ha":1389,"x_min":54,"x_max":1289,"o":"m 939 708 l 1289 708 q 1288 688 1289 708 q 1286 657 1288 668 q 1266 359 1276 482 q 1243 156 1256 236 q 1214 28 1231 75 q 1176 -42 1197 -19 q 1124 -81 1151 -69 q 1054 -94 1096 -92 q 949 -95 1015 -96 q 808 -90 882 -94 q 797 -37 807 -67 q 771 14 786 -8 q 919 6 850 7 q 1015 4 988 4 q 1056 8 1040 4 q 1083 22 1071 11 q 1122 106 1106 42 q 1152 294 1139 171 q 1176 608 1165 417 l 926 608 q 918 556 922 581 q 911 507 914 531 l 803 517 q 824 650 814 575 q 844 808 835 725 q 861 968 854 890 l 501 968 l 501 875 q 491 649 501 772 q 444 393 481 525 q 335 133 408 261 q 133 -107 261 4 q 97 -64 121 -90 q 54 -24 74 -37 q 243 197 174 79 q 345 435 313 315 q 387 669 378 556 q 396 875 396 782 l 396 968 l 126 968 l 126 1067 l 979 1067 q 960 890 971 983 q 939 708 950 796 z "},"久":{"ha":1389,"x_min":53,"x_max":1338,"o":"m 875 943 l 949 910 q 893 724 925 813 q 822 556 861 636 q 945 319 869 431 q 1121 122 1021 208 q 1338 -14 1221 36 q 1298 -56 1319 -28 q 1264 -104 1276 -83 q 971 117 1099 -26 q 760 443 843 261 q 483 110 642 247 q 147 -110 325 -28 q 112 -62 136 -90 q 68 -19 88 -33 q 383 169 236 51 q 641 453 529 288 q 814 835 753 619 l 451 835 q 310 608 388 713 q 144 425 232 503 q 101 463 131 440 q 53 500 72 486 q 300 786 193 613 q 471 1161 407 960 l 579 1136 q 543 1035 563 1085 q 501 938 524 986 l 856 938 l 875 943 z "},"么":{"ha":1389,"x_min":72,"x_max":1303,"o":"m 599 1153 l 707 1113 q 553 893 642 1004 q 362 682 464 782 q 153 504 260 582 q 115 544 139 521 q 72 582 92 567 q 276 750 176 654 q 460 951 376 846 q 599 1153 544 1056 m 1303 -32 l 1204 -96 q 1172 -36 1190 -68 q 1131 29 1153 -4 q 783 3 957 15 q 452 -19 608 -10 q 174 -37 296 -29 l 157 69 l 319 78 q 440 245 378 153 q 565 437 503 338 q 681 633 626 536 q 779 818 736 731 l 892 771 q 754 540 829 661 q 601 301 679 418 q 447 85 522 183 q 747 103 588 93 q 1065 124 906 114 q 959 259 1015 192 q 846 382 903 326 l 938 436 q 1082 281 1011 365 q 1211 116 1153 197 q 1303 -32 1269 35 z "},"义":{"ha":1389,"x_min":56,"x_max":1332,"o":"m 806 836 l 711 797 q 677 901 700 843 q 628 1019 654 958 q 575 1133 601 1081 l 664 1167 q 718 1054 690 1114 q 769 938 746 994 q 806 836 792 882 m 1097 1060 l 1203 1026 q 1026 634 1129 817 q 774 301 922 451 q 1033 116 893 196 q 1332 -12 1172 36 q 1293 -56 1314 -29 q 1261 -106 1272 -83 q 956 33 1097 -51 q 696 226 815 117 q 435 40 579 124 q 113 -106 290 -43 q 87 -60 103 -86 q 56 -17 71 -35 q 369 119 229 40 q 624 299 510 199 q 385 609 489 439 q 207 972 281 779 l 301 1001 q 469 664 369 824 q 700 372 569 504 q 937 688 840 514 q 1097 1060 1033 863 z "},"之":{"ha":1389,"x_min":49,"x_max":1332,"o":"m 1175 894 l 1253 846 q 1109 646 1192 749 q 931 445 1026 543 q 732 260 835 347 q 528 103 629 172 q 729 35 615 51 q 976 18 843 18 q 1024 18 990 18 q 1103 18 1058 18 q 1193 18 1147 18 q 1276 19 1239 18 q 1332 19 1314 19 q 1309 -29 1321 1 q 1293 -82 1297 -60 l 971 -82 q 694 -61 818 -82 q 476 17 571 -40 q 313 183 381 75 q 234 37 276 111 q 147 -104 192 -37 l 49 -44 q 147 98 99 17 q 238 264 196 179 q 306 424 279 349 l 406 383 q 385 338 396 361 q 363 288 375 314 q 400 222 379 251 q 446 167 421 192 q 624 299 535 225 q 799 457 714 374 q 957 625 883 540 q 1085 789 1031 710 l 140 789 l 140 888 l 640 888 l 640 1160 l 743 1160 l 743 888 l 1153 888 l 1175 894 z "},"乌":{"ha":1389,"x_min":85,"x_max":1274,"o":"m 1049 274 l 1049 181 l 85 181 l 85 274 l 1049 274 m 1274 524 l 1274 475 q 1253 193 1264 300 q 1229 28 1243 86 q 1193 -53 1215 -29 q 1149 -85 1172 -76 q 1089 -97 1125 -94 q 1002 -99 1058 -100 q 885 -94 946 -99 q 875 -45 883 -72 q 851 3 867 -18 q 972 -4 917 -3 q 1051 -6 1026 -6 q 1084 -3 1071 -6 q 1107 10 1097 0 q 1134 71 1122 25 q 1155 203 1146 117 q 1171 428 1164 290 l 269 428 l 269 1019 l 539 1019 q 574 1096 557 1056 q 601 1169 592 1136 l 710 1153 q 676 1083 693 1118 q 640 1019 658 1049 l 1143 1019 l 1139 972 q 1111 756 1126 825 q 1072 661 1096 686 q 1031 636 1054 643 q 978 626 1008 629 q 901 627 951 626 q 799 632 851 628 q 791 676 797 651 q 775 719 785 701 q 874 713 828 714 q 939 711 921 711 q 969 713 958 711 q 988 725 979 715 q 1010 785 1000 739 q 1031 925 1021 832 l 369 925 l 369 524 l 1274 524 z "},"乍":{"ha":1389,"x_min":61,"x_max":1304,"o":"m 1304 825 l 663 825 l 663 622 l 1225 622 l 1225 524 l 663 524 l 663 313 l 1246 313 l 1246 211 l 663 211 l 663 -107 l 556 -107 l 556 825 l 385 825 q 275 663 333 739 q 156 525 217 586 q 110 559 140 539 q 61 590 81 579 q 206 751 138 658 q 333 949 275 843 q 432 1165 390 1056 l 538 1138 q 492 1031 517 1083 q 442 926 468 978 l 1304 926 l 1304 825 z "},"乎":{"ha":1389,"x_min":81,"x_max":1313,"o":"m 1313 510 l 1313 406 l 761 406 l 761 33 q 744 -50 761 -22 q 686 -89 726 -78 q 578 -106 647 -103 q 400 -108 510 -108 q 381 -56 394 -86 q 354 -3 368 -25 q 515 -6 442 -6 q 611 -6 588 -6 q 644 4 635 -4 q 653 35 653 13 l 653 406 l 81 406 l 81 510 l 653 510 l 653 969 q 419 953 536 960 q 194 943 303 946 q 185 992 193 965 q 169 1036 176 1018 q 428 1049 294 1040 q 692 1072 561 1058 q 936 1102 822 1085 q 1135 1142 1050 1119 l 1189 1049 q 992 1009 1101 1026 q 761 981 882 992 l 761 510 l 1313 510 m 233 868 l 324 899 q 378 797 351 851 q 427 690 406 742 q 458 599 449 639 l 364 561 q 333 654 354 601 q 287 763 313 707 q 233 868 261 819 m 1017 564 l 933 599 q 988 699 960 642 q 1041 815 1015 756 q 1083 924 1067 875 l 1193 886 q 1104 715 1151 804 q 1017 564 1057 625 z "},"乏":{"ha":1389,"x_min":67,"x_max":1339,"o":"m 1131 725 l 1206 674 q 1015 458 1128 567 q 772 251 903 349 q 510 82 642 154 q 697 26 590 40 q 933 13 803 13 q 988 13 949 13 q 1078 13 1028 13 q 1181 13 1129 13 q 1276 13 1233 13 q 1339 14 1318 14 q 1317 -33 1328 -4 q 1301 -85 1306 -62 l 932 -85 q 665 -67 782 -85 q 459 0 547 -49 q 307 140 371 49 q 236 22 274 82 q 158 -92 199 -39 l 67 -33 q 153 78 110 14 q 235 210 197 142 q 296 336 272 278 l 390 301 q 357 235 376 271 q 424 144 388 181 q 650 281 538 201 q 861 449 763 360 q 1031 621 960 538 l 171 621 l 171 719 l 638 719 l 638 968 q 399 951 519 958 q 165 942 279 944 q 156 988 164 961 q 140 1033 147 1015 q 413 1047 272 1038 q 688 1069 553 1056 q 941 1099 824 1082 q 1143 1136 1058 1115 l 1224 1051 q 1001 1010 1125 1029 q 742 978 878 992 l 742 719 l 1110 719 l 1131 725 z "},"乐":{"ha":1389,"x_min":60,"x_max":1329,"o":"m 331 388 l 431 354 q 343 221 392 289 q 243 91 294 153 q 143 -19 192 29 q 103 15 129 -6 q 60 47 76 36 q 158 147 108 90 q 252 265 207 203 q 331 388 297 326 m 1281 507 l 775 507 l 775 28 q 761 -46 775 -19 q 715 -83 747 -72 q 626 -101 682 -97 q 481 -103 571 -104 q 466 -52 476 -82 q 444 0 456 -22 q 565 -2 510 -1 q 638 -1 619 -3 q 663 6 656 0 q 671 29 671 11 l 671 507 l 346 507 q 236 503 278 507 q 183 489 194 499 q 168 536 179 506 q 149 585 157 567 q 172 614 163 590 q 192 674 182 638 q 210 756 199 696 q 231 897 221 817 q 242 1056 242 976 q 485 1065 358 1058 q 735 1083 613 1072 q 965 1110 858 1094 q 1151 1146 1072 1125 l 1211 1056 q 1026 1019 1129 1035 q 807 993 922 1004 q 574 975 692 982 q 343 965 456 968 q 317 781 333 874 q 281 610 301 688 l 671 610 l 671 886 l 775 886 l 775 610 l 1281 610 l 1281 507 m 960 344 l 1049 386 q 1153 268 1099 332 q 1254 143 1207 204 q 1329 35 1301 82 l 1233 -15 q 1161 95 1207 32 q 1063 224 1115 158 q 960 344 1010 290 z "},"乒":{"ha":1389,"x_min":75,"x_max":1317,"o":"m 501 239 l 594 179 q 465 79 538 131 q 317 -17 393 28 q 171 -97 242 -62 q 138 -58 158 -81 q 99 -22 117 -36 q 245 54 169 10 q 388 147 321 99 q 501 239 456 196 m 418 692 l 418 369 l 889 369 l 889 692 l 418 692 m 992 369 l 1317 369 l 1317 271 l 75 271 l 75 369 l 314 369 l 314 1074 q 526 1087 417 1079 q 744 1105 636 1094 q 947 1128 851 1115 q 1114 1157 1042 1142 l 1168 1063 q 944 1029 1069 1044 q 683 1003 818 1014 q 418 985 549 992 l 418 789 l 1239 789 l 1239 692 l 992 692 l 992 369 z "},"乓":{"ha":1389,"x_min":75,"x_max":1317,"o":"m 815 165 l 893 229 q 1035 147 960 193 q 1181 53 1111 100 q 1297 -31 1251 7 l 1215 -104 q 1104 -20 1172 -68 q 960 77 1036 28 q 815 165 883 126 m 418 692 l 418 369 l 889 369 l 889 692 l 418 692 m 992 369 l 1317 369 l 1317 271 l 75 271 l 75 369 l 314 369 l 314 1074 q 526 1087 417 1079 q 744 1105 636 1094 q 947 1128 851 1115 q 1114 1157 1042 1142 l 1168 1063 q 944 1029 1069 1044 q 683 1003 818 1014 q 418 985 549 992 l 418 789 l 1239 789 l 1239 692 l 992 692 l 992 369 z "},"乔":{"ha":1389,"x_min":47,"x_max":1340,"o":"m 415 368 l 415 522 l 518 522 l 518 365 q 508 242 518 306 q 469 115 499 178 q 381 -4 440 53 q 222 -108 322 -61 q 185 -67 208 -89 q 143 -32 163 -44 q 290 58 235 10 q 372 160 344 107 q 407 265 399 213 q 415 368 415 318 m 856 -106 l 856 524 l 960 524 l 960 -106 l 856 -106 m 1310 721 l 921 721 q 1105 553 994 626 q 1340 443 1215 481 q 1301 402 1322 428 q 1269 356 1281 376 q 1006 501 1128 406 q 806 721 883 596 l 579 721 q 379 502 494 594 q 118 346 264 410 q 86 390 108 361 q 47 432 64 418 q 453 721 303 531 l 81 721 l 81 821 l 521 821 q 563 901 544 860 q 597 988 582 943 q 385 976 492 981 q 178 969 278 972 q 169 1015 176 989 q 154 1057 163 1040 q 416 1067 281 1060 q 683 1084 551 1074 q 928 1108 814 1094 q 1125 1140 1042 1122 l 1200 1058 q 975 1022 1100 1036 q 714 996 850 1007 q 679 905 699 949 q 639 821 660 861 l 1310 821 l 1310 721 z "},"乖":{"ha":1389,"x_min":74,"x_max":1322,"o":"m 390 535 l 390 713 l 486 713 l 486 -8 l 390 -8 l 390 157 q 249 105 318 131 q 119 58 181 79 l 74 153 q 218 194 135 168 q 390 247 301 219 l 390 444 l 106 444 l 106 535 l 390 535 m 1306 771 l 740 771 l 740 -106 l 640 -106 l 640 771 l 88 771 l 88 864 l 640 864 l 640 1007 q 413 994 526 1000 q 192 986 299 989 q 183 1028 190 1004 q 169 1069 176 1053 q 425 1081 293 1074 q 684 1099 557 1089 q 922 1123 811 1110 q 1115 1153 1033 1136 l 1185 1071 q 978 1040 1093 1053 q 740 1015 864 1026 l 740 864 l 1306 864 l 1306 771 m 1038 100 l 1186 100 q 1214 110 1204 100 q 1228 151 1224 119 q 1233 243 1232 182 q 1275 220 1250 231 q 1322 203 1300 210 q 1305 83 1318 126 q 1266 24 1292 40 q 1196 7 1240 7 l 1026 7 q 919 36 946 7 q 892 147 892 65 l 892 711 l 989 711 l 989 460 q 1116 524 1054 489 q 1219 589 1178 558 l 1293 514 q 1148 438 1229 474 q 989 371 1067 401 l 989 146 q 998 108 989 117 q 1038 100 1007 100 z "},"乘":{"ha":1389,"x_min":53,"x_max":1333,"o":"m 892 740 l 988 740 l 988 599 q 1094 642 1043 619 q 1185 686 1146 665 l 1247 610 q 1122 559 1190 585 q 988 514 1053 533 l 988 401 q 996 372 988 379 q 1035 365 1004 365 l 1171 365 q 1203 383 1194 365 q 1213 468 1211 400 q 1253 446 1228 456 q 1300 433 1278 436 q 1265 308 1290 340 q 1182 276 1240 276 l 1022 276 q 918 303 944 276 q 892 401 892 329 l 892 740 m 113 300 l 92 389 q 231 408 151 396 q 397 435 311 421 l 397 557 l 132 557 l 132 642 l 397 642 l 397 738 l 493 738 l 493 289 l 397 289 l 397 353 l 113 300 m 746 778 l 746 460 q 896 277 804 364 q 1100 124 988 190 q 1333 22 1213 58 q 1297 -19 1317 7 q 1265 -64 1278 -44 q 980 90 1115 -11 q 746 321 844 190 l 746 -104 l 640 -104 l 640 314 q 408 90 543 188 q 119 -58 272 -7 q 90 -13 108 -39 q 53 28 71 13 q 287 127 175 63 q 490 277 399 192 q 640 458 582 363 l 640 778 l 93 778 l 93 872 l 640 872 l 640 1000 q 419 987 531 992 q 206 979 308 982 q 197 1024 204 999 q 182 1067 189 1049 q 433 1078 303 1071 q 690 1097 563 1086 q 928 1122 817 1108 q 1124 1154 1040 1136 l 1171 1064 q 975 1033 1085 1046 q 746 1008 865 1019 l 746 872 l 1293 872 l 1293 778 l 746 778 z "},"乙":{"ha":1389,"x_min":129,"x_max":1299,"o":"m 415 54 l 1060 54 q 1137 76 1110 54 q 1176 160 1164 99 q 1193 340 1189 222 q 1246 317 1215 328 q 1299 301 1276 307 q 1264 83 1289 158 q 1188 -22 1239 7 q 1050 -50 1138 -50 l 426 -50 q 202 1 275 -50 q 129 142 129 53 q 135 197 129 168 q 165 264 142 225 q 236 358 188 303 q 367 494 285 414 q 574 684 449 574 q 879 943 700 794 l 138 943 l 138 1047 l 1025 1047 l 1050 1054 l 1122 1003 q 1101 988 1115 993 q 753 700 897 822 q 515 492 610 578 q 365 348 421 406 q 281 253 308 290 q 247 192 254 215 q 239 150 239 168 q 287 77 239 100 q 415 54 335 54 z "},"九":{"ha":1389,"x_min":51,"x_max":1350,"o":"m 1063 15 l 1204 15 q 1233 31 1224 15 q 1248 89 1243 46 q 1254 215 1253 132 q 1301 188 1272 200 q 1350 169 1329 176 q 1333 17 1346 74 q 1291 -62 1319 -39 q 1211 -86 1263 -86 l 1047 -86 q 937 -53 967 -86 q 907 74 907 -21 l 907 706 l 589 706 q 551 456 578 575 q 473 233 525 338 q 337 44 421 129 q 128 -106 253 -42 q 95 -62 118 -86 q 51 -24 72 -37 q 297 162 208 51 q 428 410 386 272 q 482 706 469 549 l 115 706 l 115 808 l 489 808 q 492 975 492 890 q 493 1147 493 1060 l 603 1147 q 601 976 601 1061 q 596 808 600 890 l 969 808 l 969 807 l 1011 807 l 1011 72 q 1020 26 1011 36 q 1063 15 1029 15 z "},"乞":{"ha":1389,"x_min":57,"x_max":1299,"o":"m 1286 883 l 371 883 q 263 742 319 808 q 147 624 206 675 q 104 662 132 639 q 57 699 76 685 q 254 904 163 781 q 403 1164 346 1028 l 508 1132 q 474 1058 493 1094 q 433 985 454 1021 l 1286 985 l 1286 883 m 453 24 l 1090 22 q 1151 37 1129 22 q 1184 94 1174 51 q 1197 221 1194 136 q 1299 186 1244 196 q 1268 17 1290 75 q 1202 -60 1246 -40 q 1082 -79 1158 -79 l 465 -79 q 273 -37 335 -79 q 211 76 211 4 q 219 127 211 100 q 256 192 226 154 q 348 283 285 229 q 520 413 411 336 q 797 594 629 489 l 282 594 l 282 694 l 974 694 l 997 699 l 1072 646 q 1062 638 1068 643 q 1049 629 1056 633 q 709 417 843 504 q 496 274 575 331 q 378 181 417 217 q 329 123 340 144 q 318 86 318 101 q 355 38 318 53 q 453 24 392 24 z "},"也":{"ha":1389,"x_min":47,"x_max":1317,"o":"m 564 17 l 1053 17 q 1151 36 1118 17 q 1198 109 1183 56 q 1221 261 1213 163 q 1268 236 1240 247 q 1317 219 1296 225 q 1283 43 1307 108 q 1207 -50 1260 -22 q 1054 -78 1154 -78 l 568 -78 q 407 -60 465 -78 q 325 6 349 -42 q 301 140 301 54 l 301 574 l 75 503 l 47 596 l 301 674 l 301 1068 l 401 1068 l 401 704 l 689 793 l 689 1160 l 790 1160 l 790 824 l 1113 924 l 1121 931 l 1142 946 l 1214 914 l 1208 894 q 1196 574 1206 700 q 1164 386 1186 447 q 1117 310 1144 333 q 1053 282 1089 288 q 974 275 1021 276 q 890 275 928 274 q 882 324 889 294 q 864 371 875 353 q 942 367 900 368 q 1003 367 985 367 q 1044 378 1026 367 q 1075 432 1061 390 q 1098 575 1090 476 q 1107 824 1106 674 l 790 725 l 790 189 l 689 189 l 689 693 l 401 604 l 401 138 q 414 63 401 89 q 462 26 426 36 q 564 17 497 17 z "},"习":{"ha":1389,"x_min":147,"x_max":1229,"o":"m 975 463 l 994 365 q 706 265 853 315 q 426 168 560 214 q 185 86 292 122 l 147 189 q 383 263 247 219 q 672 359 519 307 q 975 463 825 411 m 325 781 l 394 847 q 525 756 456 807 q 658 657 594 706 q 763 569 722 608 l 689 490 q 588 581 650 529 q 457 685 526 632 q 325 781 388 738 m 1229 1061 l 1229 1003 q 1221 544 1225 731 q 1209 242 1217 358 q 1189 63 1201 125 q 1157 -26 1176 0 q 1108 -75 1135 -61 q 1042 -92 1081 -89 q 941 -94 1003 -96 q 819 -90 879 -93 q 810 -40 819 -68 q 786 8 801 -12 q 919 2 860 3 q 1006 1 978 1 q 1038 6 1025 1 q 1061 24 1051 10 q 1089 101 1078 42 q 1107 272 1100 161 q 1118 552 1114 382 q 1125 961 1122 722 l 169 961 l 169 1061 l 1229 1061 z "},"乡":{"ha":1389,"x_min":106,"x_max":1233,"o":"m 1124 633 l 1233 596 q 987 249 1140 386 q 626 29 833 113 q 161 -101 418 -54 q 138 -47 156 -79 q 106 3 119 -15 q 621 140 397 47 q 986 403 844 233 q 659 376 790 388 q 446 358 528 365 q 319 344 364 350 q 251 335 274 339 q 213 325 228 331 q 199 373 210 340 q 178 428 189 406 q 265 456 217 433 q 382 514 314 478 q 515 589 425 535 q 714 718 604 643 q 488 699 572 707 q 357 687 403 692 q 291 677 311 682 q 258 668 271 672 q 244 718 254 685 q 224 774 233 751 q 278 794 250 776 q 344 838 307 811 q 405 883 365 851 q 494 958 444 914 q 597 1052 544 1001 q 696 1157 650 1103 l 792 1097 q 615 930 707 1010 q 429 786 522 850 l 847 813 q 935 883 892 847 q 1019 953 979 918 l 1113 885 q 797 650 958 757 q 475 460 636 543 l 1057 501 q 1092 565 1075 532 q 1124 633 1110 599 z "},"书":{"ha":1389,"x_min":89,"x_max":1317,"o":"m 1317 932 l 1253 854 q 1181 917 1225 882 q 1088 987 1138 951 q 994 1051 1039 1022 l 1056 1119 q 1149 1058 1100 1092 q 1243 991 1199 1024 q 1317 932 1288 958 m 686 819 l 686 549 l 1007 549 l 1007 819 l 686 819 m 1108 549 l 1308 549 q 1308 530 1308 549 q 1304 500 1307 511 q 1283 276 1294 363 q 1257 141 1271 189 q 1222 72 1243 93 q 1175 42 1200 50 q 1114 31 1150 33 q 1026 30 1083 29 q 903 33 968 31 q 892 84 901 57 q 869 132 883 111 q 994 125 935 126 q 1078 124 1053 124 q 1112 126 1099 124 q 1136 138 1125 128 q 1171 227 1156 156 q 1199 450 1186 299 l 686 450 l 686 -106 l 583 -106 l 583 450 l 89 450 l 89 549 l 583 549 l 583 819 l 181 819 l 181 919 l 583 919 l 583 1157 l 686 1157 l 686 919 l 1108 919 l 1108 549 z "},"买":{"ha":1389,"x_min":79,"x_max":1297,"o":"m 1121 732 l 1036 774 q 1090 865 1061 813 q 1142 972 1118 917 l 160 972 l 160 1071 l 1176 1071 l 1176 1072 l 1196 1072 l 1213 1078 l 1288 1047 q 1207 878 1251 964 q 1121 732 1163 792 m 638 747 l 579 668 q 506 720 551 692 q 408 776 460 749 q 310 822 357 803 l 365 892 q 464 849 413 874 q 561 797 515 824 q 638 747 607 771 m 483 553 l 425 475 q 352 525 397 499 q 256 577 307 551 q 158 622 206 603 l 214 692 q 311 650 260 674 q 408 601 363 626 q 483 553 454 575 m 739 169 l 792 242 q 976 157 883 203 q 1149 65 1068 111 q 1288 -24 1229 18 l 1222 -103 q 1088 -12 1165 -60 q 920 82 1010 35 q 739 169 831 129 m 782 419 l 1297 419 l 1297 322 l 753 322 q 642 131 715 214 q 445 -12 568 47 q 133 -110 322 -71 q 110 -65 126 -90 q 79 -22 94 -39 q 358 56 247 8 q 539 170 469 104 q 646 322 608 236 l 99 322 l 99 419 l 679 419 q 710 631 703 514 q 721 888 717 747 l 824 888 q 812 635 819 751 q 782 419 804 518 z "},"乱":{"ha":1389,"x_min":60,"x_max":1331,"o":"m 625 74 l 625 357 l 229 357 l 229 74 l 625 74 m 476 1004 l 476 776 l 782 776 l 782 682 l 476 682 l 476 450 l 726 450 l 726 -71 l 625 -71 l 625 -19 l 229 -19 l 229 -79 l 132 -79 l 132 450 l 375 450 l 375 682 l 60 682 l 60 776 l 375 776 l 375 986 q 242 968 310 976 q 111 953 175 960 q 100 995 108 971 q 82 1036 92 1019 q 299 1065 188 1049 q 508 1103 410 1082 q 675 1150 607 1125 l 754 1072 q 624 1035 694 1051 q 476 1004 554 1018 m 1008 8 l 1171 8 q 1210 30 1197 8 q 1228 108 1222 51 q 1238 268 1235 165 q 1283 241 1257 254 q 1331 222 1308 228 q 1312 40 1325 108 q 1268 -57 1299 -28 q 1179 -86 1238 -86 l 997 -86 q 906 -71 939 -86 q 860 -17 874 -56 q 847 92 847 22 l 847 1146 l 949 1146 l 949 90 q 960 24 949 39 q 1008 8 971 8 z "},"乳":{"ha":1389,"x_min":56,"x_max":1335,"o":"m 665 1157 l 728 1071 q 536 1028 646 1046 q 310 997 426 1010 q 86 978 193 985 q 75 1021 83 996 q 57 1064 67 1046 q 276 1085 163 1072 q 492 1117 390 1099 q 665 1157 594 1135 m 447 774 l 357 760 q 347 857 356 800 q 324 963 338 914 l 408 975 q 435 871 424 928 q 447 774 446 814 m 235 749 l 149 725 q 126 821 143 765 q 88 924 108 876 l 168 944 q 210 844 192 899 q 235 749 228 789 m 654 988 l 749 950 q 671 815 714 885 q 592 697 628 746 l 514 729 q 564 809 538 764 q 614 901 590 854 q 654 988 638 949 m 458 433 l 458 371 q 607 384 532 378 q 757 396 682 390 l 757 300 q 608 286 683 293 q 458 272 532 279 l 458 10 q 449 -55 458 -32 q 408 -90 440 -78 q 331 -103 379 -100 q 214 -106 283 -106 q 200 -57 210 -83 q 181 -11 190 -31 q 276 -12 233 -12 q 335 -12 319 -12 q 354 -6 350 -11 q 358 11 358 -1 l 358 263 q 203 249 278 256 q 67 238 129 243 l 56 340 q 195 350 118 344 q 358 363 272 356 l 358 485 l 396 485 q 468 541 432 510 q 536 604 504 572 l 115 604 l 115 697 l 628 697 l 651 703 l 717 650 q 594 535 664 593 q 458 433 525 478 m 982 8 l 1167 8 q 1210 31 1196 8 q 1230 111 1224 53 q 1239 276 1236 169 q 1286 248 1258 261 q 1335 229 1314 235 q 1315 42 1329 111 q 1269 -58 1301 -28 q 1174 -87 1236 -87 l 968 -87 q 872 -72 907 -87 q 822 -15 836 -56 q 808 97 808 25 l 808 1136 l 914 1136 l 914 96 q 926 24 914 40 q 982 8 939 8 z "},"乾":{"ha":1389,"x_min":63,"x_max":1338,"o":"m 218 542 l 218 429 l 558 429 l 558 542 l 218 542 m 218 726 l 218 617 l 558 617 l 558 726 l 218 726 m 435 349 l 435 233 l 696 233 l 696 139 l 435 139 l 435 -106 l 335 -106 l 335 139 l 63 139 l 63 233 l 335 233 l 335 349 l 125 349 l 125 806 l 335 806 l 335 924 l 79 924 l 79 1015 l 335 1015 l 335 1163 l 435 1163 l 435 1015 l 683 1015 l 683 924 l 435 924 l 435 806 l 654 806 l 654 729 q 773 924 722 810 q 854 1161 824 1039 l 956 1140 q 928 1046 943 1093 q 896 954 914 999 l 1326 954 l 1326 860 l 856 860 q 726 650 799 736 q 694 678 715 661 q 654 708 672 696 l 654 349 l 435 349 m 907 11 l 1186 11 q 1221 24 1208 11 q 1240 81 1233 38 q 1247 211 1246 124 q 1291 190 1267 200 q 1338 178 1315 181 q 1315 6 1332 64 q 1267 -70 1299 -51 q 1183 -89 1236 -89 l 908 -89 q 770 -54 814 -89 q 726 40 726 -19 q 731 81 726 58 q 751 139 735 104 q 803 228 768 174 q 899 364 839 282 q 1054 563 960 446 l 758 563 l 758 657 l 1172 657 l 1240 632 q 1235 621 1238 626 q 1228 610 1232 615 q 1044 387 1117 478 q 929 237 972 296 q 865 142 886 178 q 838 88 844 107 q 832 54 832 68 q 852 22 832 32 q 907 11 872 11 z "},"了":{"ha":1389,"x_min":140,"x_max":1231,"o":"m 1150 1061 l 1231 1003 q 1091 856 1171 931 q 923 716 1011 782 q 750 601 835 650 l 750 28 q 734 -51 750 -24 q 678 -90 718 -78 q 569 -103 639 -101 q 392 -106 499 -106 q 376 -54 389 -83 q 350 -3 363 -25 q 508 -6 436 -6 q 603 -6 581 -7 q 635 3 626 -4 q 643 29 643 11 l 643 692 l 711 692 q 883 815 797 744 q 1035 953 969 885 l 140 953 l 140 1054 l 1128 1054 l 1150 1061 z "},"予":{"ha":1389,"x_min":79,"x_max":1319,"o":"m 1238 654 l 1319 615 q 1199 433 1264 525 q 1071 278 1135 342 l 988 331 q 1069 430 1026 372 q 1150 547 1113 488 l 756 547 l 756 24 q 741 -49 756 -24 q 690 -85 726 -74 q 592 -99 654 -96 q 440 -101 531 -101 q 424 -51 435 -79 q 401 -1 413 -24 q 535 -4 474 -4 q 618 -3 597 -4 q 644 4 638 -1 q 651 25 651 10 l 651 547 l 79 547 l 79 646 l 799 646 q 671 709 740 676 q 531 773 601 742 q 399 831 461 804 l 451 907 q 574 857 508 885 q 703 801 639 829 q 840 890 768 839 q 967 992 911 940 l 210 992 l 210 1088 l 1067 1088 l 1090 1093 l 1165 1036 q 995 888 1092 963 q 804 754 899 814 q 886 717 847 736 q 954 682 925 697 l 931 646 l 1217 646 l 1238 654 z "},"争":{"ha":1389,"x_min":64,"x_max":1331,"o":"m 1075 303 l 1075 464 l 738 464 l 738 303 l 1075 303 m 738 711 l 738 558 l 1075 558 l 1075 711 l 738 711 m 796 957 l 447 957 q 374 878 413 918 q 290 803 335 839 l 665 803 q 734 876 700 835 q 796 957 768 918 m 1331 558 l 1331 464 l 1179 464 l 1179 135 l 1075 135 l 1075 208 l 738 208 l 738 21 q 724 -53 738 -28 q 672 -90 710 -78 q 578 -104 638 -101 q 424 -107 518 -107 q 408 -58 419 -86 q 385 -8 396 -29 q 519 -12 458 -11 q 599 -11 581 -12 q 626 -3 618 -8 q 633 21 633 3 l 633 208 l 200 208 l 200 303 l 633 303 l 633 464 l 64 464 l 64 558 l 633 558 l 633 711 l 256 711 l 256 774 q 210 740 233 757 q 164 708 188 724 q 129 747 151 725 q 88 779 107 768 q 321 966 224 861 q 471 1164 418 1071 l 583 1143 q 553 1095 569 1119 q 518 1047 536 1071 l 864 1047 l 881 1053 l 954 1001 q 881 901 924 953 q 793 803 838 849 l 1179 803 l 1179 558 l 1331 558 z "},"事":{"ha":1389,"x_min":71,"x_max":1321,"o":"m 1075 183 l 1075 288 l 742 288 l 742 183 l 1075 183 m 742 467 l 742 369 l 1075 369 l 1075 467 l 742 467 m 340 713 l 639 713 l 639 813 l 340 813 l 340 713 m 1053 813 l 742 813 l 742 713 l 1053 713 l 1053 813 m 1321 369 l 1321 288 l 1178 288 l 1178 42 l 1075 42 l 1075 104 l 742 104 l 742 8 q 727 -61 742 -39 q 681 -94 713 -83 q 592 -108 649 -106 q 450 -111 536 -111 q 435 -67 446 -92 q 414 -24 425 -42 q 531 -25 476 -25 q 604 -25 586 -25 q 631 -17 624 -24 q 639 8 639 -10 l 639 104 l 190 104 l 190 183 l 639 183 l 639 288 l 71 288 l 71 369 l 639 369 l 639 467 l 203 467 l 203 543 l 639 543 l 639 640 l 242 640 l 242 885 l 639 885 l 639 965 l 97 965 l 97 1050 l 639 1050 l 639 1161 l 742 1161 l 742 1050 l 1294 1050 l 1294 965 l 742 965 l 742 885 l 1156 885 l 1156 640 l 742 640 l 742 543 l 1178 543 l 1178 369 l 1321 369 z "},"二":{"ha":1389,"x_min":83,"x_max":1307,"o":"m 200 963 l 1190 963 l 1190 853 l 200 853 l 200 963 m 83 144 l 1307 144 l 1307 32 l 83 32 l 83 144 z "},"于":{"ha":1389,"x_min":81,"x_max":1310,"o":"m 1310 611 l 1310 510 l 761 510 l 761 44 q 744 -40 761 -11 q 689 -81 728 -68 q 581 -97 650 -94 q 407 -100 513 -100 q 388 -47 401 -78 q 363 7 375 -15 q 519 5 449 6 q 614 6 590 4 q 645 15 636 7 q 654 44 654 22 l 654 510 l 81 510 l 81 611 l 654 611 l 654 961 l 176 961 l 176 1063 l 1213 1063 l 1213 961 l 761 961 l 761 611 l 1310 611 z "},"亏":{"ha":1389,"x_min":117,"x_max":1274,"o":"m 1153 1078 l 1153 981 l 251 981 l 251 1078 l 1153 1078 m 1274 672 l 533 672 q 503 578 519 626 q 471 482 486 531 l 1129 482 q 1128 463 1129 482 q 1124 432 1126 443 q 1088 177 1107 276 q 1048 22 1069 78 q 999 -60 1026 -33 q 950 -92 976 -83 q 883 -103 924 -100 q 789 -103 849 -104 q 663 -99 729 -103 q 651 -46 661 -75 q 628 6 642 -17 q 758 -3 696 -1 q 846 -6 819 -6 q 910 10 892 -6 q 964 122 940 33 q 1010 388 988 210 l 438 388 q 412 315 425 350 q 388 251 399 281 l 282 276 q 328 394 304 328 q 376 533 351 461 q 421 672 400 606 l 117 672 l 117 769 l 1274 769 l 1274 672 z "},"云":{"ha":1389,"x_min":83,"x_max":1308,"o":"m 1165 1057 l 1165 953 l 233 953 l 233 1057 l 1165 1057 m 1308 538 l 638 538 q 573 383 608 464 q 501 225 538 303 q 429 82 465 147 q 744 93 578 88 q 1075 106 910 99 q 874 361 979 244 l 969 408 q 1103 256 1038 338 q 1222 94 1168 174 q 1307 -50 1275 14 l 1204 -108 q 1175 -52 1192 -82 q 1139 8 1158 -22 q 763 -8 951 0 q 406 -23 575 -17 q 106 -35 238 -29 l 96 72 l 314 78 q 383 220 349 142 q 450 381 418 299 q 506 538 482 464 l 83 538 l 83 643 l 1308 643 l 1308 538 z "},"互":{"ha":1389,"x_min":76,"x_max":1315,"o":"m 417 381 l 911 381 q 929 533 921 457 q 944 681 938 608 l 482 681 q 449 526 465 603 q 417 381 432 450 m 974 51 l 1315 51 l 1315 -44 l 76 -44 l 76 51 l 863 51 q 880 163 871 103 q 899 286 889 222 l 396 286 l 378 214 l 267 225 q 308 388 286 296 q 353 582 331 481 q 395 785 375 683 q 432 978 415 888 l 124 978 l 124 1074 l 1274 1074 l 1274 978 l 540 978 q 522 879 531 931 q 501 775 513 828 l 1063 775 q 1043 592 1054 689 q 1020 399 1032 496 q 997 212 1008 301 q 974 51 985 122 z "},"五":{"ha":1389,"x_min":83,"x_max":1310,"o":"m 975 521 l 600 521 q 552 281 576 397 q 506 71 528 165 l 975 71 l 975 521 m 1079 71 l 1310 71 l 1310 -29 l 83 -29 l 83 71 l 393 71 q 442 282 417 165 q 490 521 467 399 l 225 521 l 225 622 l 510 622 q 539 778 525 701 q 564 926 553 854 l 171 926 l 171 1028 l 1210 1028 l 1210 926 l 676 926 q 650 777 664 854 q 621 622 636 700 l 1079 622 l 1079 71 z "},"井":{"ha":1389,"x_min":90,"x_max":1301,"o":"m 500 446 l 890 446 l 890 775 l 507 775 l 507 619 q 506 533 507 576 q 500 446 504 489 m 1301 446 l 1301 343 l 996 343 l 996 -106 l 890 -106 l 890 343 l 488 343 q 399 93 465 211 q 192 -119 332 -25 q 151 -80 178 -103 q 104 -44 125 -57 q 292 134 231 36 q 376 343 354 232 l 90 343 l 90 446 l 393 446 q 399 533 397 489 q 400 621 400 576 l 400 775 l 133 775 l 133 876 l 400 876 l 400 1156 l 507 1156 l 507 876 l 890 876 l 890 1157 l 996 1157 l 996 876 l 1269 876 l 1269 775 l 996 775 l 996 446 l 1301 446 z "},"亚":{"ha":1389,"x_min":68,"x_max":1321,"o":"m 574 976 l 574 75 l 797 75 l 797 976 l 574 976 m 907 75 l 1321 75 l 1321 -25 l 68 -25 l 68 75 l 464 75 l 464 976 l 106 976 l 106 1078 l 1289 1078 l 1289 976 l 907 976 l 907 75 m 121 747 l 211 779 q 285 622 247 706 q 354 459 322 538 q 404 322 386 381 l 307 282 q 260 421 290 340 q 193 588 229 501 q 121 747 157 674 m 1040 289 l 950 324 q 1025 462 986 383 q 1100 623 1064 540 q 1160 778 1136 706 l 1258 744 q 1190 585 1228 667 q 1115 426 1153 503 q 1040 289 1076 350 z "},"些":{"ha":1389,"x_min":63,"x_max":1322,"o":"m 1164 463 l 928 463 q 826 476 863 463 q 776 524 790 490 q 763 618 763 558 l 763 1161 l 865 1161 l 865 886 q 1035 955 953 918 q 1174 1026 1118 992 l 1256 947 q 1072 865 1175 904 q 865 794 968 826 l 865 618 q 878 572 865 583 q 939 561 892 561 l 1156 561 q 1197 574 1183 561 q 1217 626 1211 588 q 1226 742 1224 665 q 1272 717 1244 728 q 1322 699 1300 706 q 1300 556 1315 607 q 1253 483 1285 504 q 1164 463 1221 463 m 238 232 l 238 331 l 1168 331 l 1168 232 l 238 232 m 699 596 l 700 503 q 476 473 589 488 q 261 445 364 458 q 75 422 158 432 l 63 522 l 154 532 l 154 1010 l 250 1010 l 250 543 l 372 558 l 372 1161 l 474 1161 l 474 924 l 689 924 l 689 829 l 474 829 l 474 571 l 699 596 m 83 -72 l 83 29 l 1307 29 l 1307 -72 l 83 -72 z "},"亡":{"ha":1389,"x_min":74,"x_max":1315,"o":"m 1315 786 l 344 786 l 344 172 q 378 74 344 104 q 500 44 413 44 l 1049 44 q 1160 48 1099 44 q 1257 57 1221 51 q 1265 5 1260 36 q 1272 -46 1269 -26 q 1181 -54 1246 -51 q 1047 -57 1117 -57 l 511 -57 q 303 -6 368 -57 q 239 178 239 44 l 239 786 l 74 786 l 74 889 l 640 889 l 640 1161 l 743 1161 l 743 889 l 1315 889 l 1315 786 z "},"亢":{"ha":1389,"x_min":58,"x_max":1343,"o":"m 1304 961 l 1304 861 l 86 861 l 86 961 l 639 961 l 639 1163 l 746 1163 l 746 961 l 1304 961 m 1057 14 l 1192 14 q 1225 32 1214 14 q 1241 101 1236 50 q 1249 254 1246 153 q 1294 228 1267 240 q 1343 210 1322 215 q 1326 32 1339 96 q 1283 -58 1313 -32 q 1201 -83 1254 -83 l 1042 -83 q 929 -51 960 -83 q 899 72 899 -19 l 899 599 l 468 599 l 468 433 q 455 290 468 364 q 405 144 442 217 q 301 6 368 71 q 125 -108 233 -58 q 96 -65 118 -92 q 58 -25 74 -37 q 219 76 158 21 q 311 192 281 132 q 352 315 342 253 q 363 436 363 376 l 363 697 l 1003 697 l 1003 72 q 1013 24 1003 35 q 1057 14 1022 14 z "},"交":{"ha":1389,"x_min":60,"x_max":1335,"o":"m 1300 982 l 1300 882 l 90 882 l 90 982 l 640 982 l 640 1164 l 743 1164 l 743 982 l 1300 982 m 858 782 l 940 844 q 1076 747 1006 801 q 1210 638 1147 693 q 1313 538 1274 583 l 1222 467 q 1126 568 1186 513 q 995 680 1065 624 q 858 782 925 736 m 444 839 l 549 799 q 437 669 501 733 q 301 550 372 606 q 164 453 231 494 q 124 495 150 469 q 79 535 99 521 q 215 619 147 571 q 343 724 283 668 q 444 839 403 781 m 894 601 l 1001 571 q 904 378 961 465 q 775 219 847 290 q 1335 -8 990 49 q 1297 -55 1317 -25 q 1267 -106 1278 -85 q 694 147 917 -39 q 438 -6 581 57 q 125 -111 294 -68 q 97 -62 118 -92 q 60 -14 76 -32 q 369 78 229 22 q 618 219 510 135 q 401 564 482 364 l 500 594 q 584 430 535 506 q 697 289 633 354 q 810 431 761 353 q 894 601 860 508 z "},"亥":{"ha":1389,"x_min":72,"x_max":1307,"o":"m 1110 585 l 1204 529 q 1069 367 1144 443 q 903 225 993 290 q 1043 140 971 186 q 1180 50 1115 94 q 1289 -31 1244 6 l 1193 -107 q 1088 -24 1151 -71 q 951 71 1024 22 q 808 161 878 119 q 494 3 664 71 q 133 -108 324 -64 q 108 -59 124 -87 q 72 -11 92 -31 q 498 122 300 39 q 852 320 696 204 q 1110 585 1008 436 m 744 983 l 1307 983 l 1307 886 l 703 886 l 728 874 q 588 735 664 806 q 442 607 511 664 q 521 550 483 579 q 589 493 558 521 q 776 632 692 557 q 922 793 861 707 l 1014 743 q 791 514 922 618 q 501 330 660 410 q 169 197 343 250 q 141 244 158 218 q 106 288 124 269 q 302 353 206 315 q 488 436 399 390 q 344 553 428 492 q 182 660 260 614 l 257 725 q 310 694 282 711 q 364 660 338 678 q 483 769 422 708 q 592 886 544 831 l 85 886 l 85 983 l 639 983 l 639 1163 l 744 1163 l 744 983 z "},"亦":{"ha":1389,"x_min":42,"x_max":1338,"o":"m 282 675 l 388 653 q 278 408 346 522 q 133 215 211 293 q 90 248 119 229 q 42 276 61 267 q 184 454 121 349 q 282 675 247 560 m 1301 822 l 932 822 l 932 28 q 919 -49 932 -22 q 869 -87 906 -75 q 776 -103 835 -100 q 631 -106 718 -106 q 616 -53 626 -83 q 594 0 606 -22 q 719 -2 663 -1 q 793 -3 775 -3 q 819 5 813 -1 q 825 28 825 11 l 825 822 l 607 822 l 607 660 q 597 469 607 569 q 551 265 586 368 q 446 65 517 163 q 256 -118 375 -32 q 221 -77 244 -99 q 179 -42 197 -56 q 356 125 290 36 q 453 307 421 214 q 494 490 485 400 q 504 661 504 581 l 504 822 l 89 822 l 89 924 l 643 924 l 643 1163 l 747 1163 l 747 924 l 1301 924 l 1301 822 m 1011 639 l 1103 678 q 1200 531 1153 610 q 1283 375 1247 451 q 1338 238 1319 299 l 1236 192 q 1186 330 1221 253 q 1106 488 1151 407 q 1011 639 1060 569 z "},"产":{"ha":1389,"x_min":56,"x_max":1285,"o":"m 1249 994 l 1249 896 l 157 896 l 157 994 l 676 994 q 639 1066 663 1028 q 592 1135 615 1104 l 693 1164 q 754 1078 725 1125 q 797 997 783 1032 l 790 994 l 1249 994 m 579 689 l 485 647 q 436 744 469 688 q 368 847 403 800 l 457 883 q 527 785 493 840 q 579 689 561 729 m 1285 643 l 1285 543 l 283 543 l 283 451 q 272 268 283 369 q 231 66 261 167 q 140 -117 200 -35 q 99 -78 126 -101 q 56 -44 71 -54 q 136 118 110 31 q 170 294 163 206 q 178 454 178 382 l 178 643 l 842 643 q 903 758 871 692 q 954 876 936 825 l 1065 840 q 1006 739 1038 790 q 946 643 975 688 l 1285 643 z "},"亩":{"ha":1389,"x_min":89,"x_max":1299,"o":"m 643 629 l 293 629 l 293 403 l 643 403 l 643 629 m 1089 403 l 1089 629 l 744 629 l 744 403 l 1089 403 m 744 68 l 1089 68 l 1089 307 l 744 307 l 744 68 m 293 307 l 293 68 l 643 68 l 643 307 l 293 307 m 192 -107 l 192 728 l 1193 728 l 1193 -101 l 1089 -101 l 1089 -31 l 293 -31 l 293 -107 l 192 -107 m 764 972 l 1299 972 l 1299 872 l 89 872 l 89 972 l 675 972 q 632 1054 657 1010 q 583 1138 607 1099 l 681 1169 q 742 1073 711 1126 q 788 982 774 1019 l 764 972 z "},"享":{"ha":1389,"x_min":81,"x_max":1311,"o":"m 1293 1042 l 1293 951 l 93 951 l 93 1042 l 638 1042 l 638 1163 l 744 1163 l 744 1042 l 1293 1042 m 369 788 l 369 661 l 1022 661 l 1022 788 l 369 788 m 1131 586 l 268 586 l 268 863 l 1131 863 l 1131 586 m 1311 250 l 1311 161 l 746 161 l 746 -1 q 731 -65 746 -44 q 681 -97 717 -86 q 584 -108 646 -107 q 429 -108 522 -108 q 415 -65 425 -89 q 393 -24 404 -42 q 526 -25 464 -25 q 606 -25 588 -25 q 632 -19 625 -24 q 639 1 639 -14 l 639 161 l 81 161 l 81 250 l 639 250 l 639 332 l 700 332 q 820 371 760 349 q 935 417 881 393 l 210 417 l 210 501 l 1083 501 l 1108 506 l 1176 450 q 974 350 1089 396 q 746 272 860 304 l 746 250 l 1311 250 z "},"京":{"ha":1389,"x_min":69,"x_max":1308,"o":"m 1297 1001 l 1297 903 l 94 903 l 94 1001 l 638 1001 l 638 1163 l 744 1163 l 744 1001 l 1297 1001 m 321 288 l 426 254 q 303 88 378 172 q 151 -54 228 4 q 111 -22 135 -39 q 69 7 88 -4 q 168 90 119 43 q 256 188 217 136 q 321 288 296 240 m 367 686 l 367 458 l 1031 458 l 1031 686 l 367 686 m 1138 368 l 744 368 l 744 14 q 732 -55 744 -31 q 683 -90 719 -79 q 588 -103 649 -101 q 436 -106 528 -106 q 422 -57 432 -85 q 401 -10 413 -29 q 531 -11 474 -11 q 607 -10 589 -11 q 633 -4 626 -10 q 639 15 639 1 l 639 368 l 264 368 l 264 776 l 1138 776 l 1138 368 m 951 242 l 1044 286 q 1141 188 1090 242 q 1236 81 1192 133 q 1308 -12 1281 28 l 1208 -64 q 1140 30 1183 -24 q 1048 140 1097 83 q 951 242 999 196 z "},"亭":{"ha":1389,"x_min":89,"x_max":1303,"o":"m 276 243 l 276 329 l 1121 329 l 1121 243 l 753 243 l 753 8 q 738 -60 753 -37 q 683 -93 724 -83 q 578 -106 644 -104 q 414 -107 513 -107 q 398 -60 408 -86 q 376 -15 388 -35 q 522 -17 454 -17 q 608 -17 589 -18 q 636 -9 629 -15 q 643 11 643 -3 l 643 243 l 276 243 m 107 242 l 107 514 l 1286 514 l 1286 242 l 1190 242 l 1190 432 l 199 432 l 199 242 l 107 242 m 1010 671 l 1010 800 l 381 800 l 381 671 l 1010 671 m 278 874 l 1118 874 l 1118 596 l 278 596 l 278 874 m 744 1043 l 1303 1043 l 1303 954 l 89 954 l 89 1043 l 638 1043 l 638 1167 l 744 1167 l 744 1043 z "},"亮":{"ha":1389,"x_min":61,"x_max":1313,"o":"m 1303 1043 l 1303 954 l 89 954 l 89 1043 l 638 1043 l 638 1167 l 744 1167 l 744 1043 l 1303 1043 m 1286 249 l 1190 249 l 1190 421 l 199 421 l 199 249 l 107 249 l 107 504 l 1286 504 l 1286 249 m 1011 663 l 1011 796 l 381 796 l 381 663 l 1011 663 m 279 871 l 1118 871 l 1118 589 l 279 589 l 279 871 m 453 357 l 558 357 q 527 183 550 258 q 456 51 504 107 q 326 -45 408 -6 q 115 -110 244 -85 q 93 -64 110 -90 q 61 -22 76 -37 q 253 28 179 -3 q 367 103 326 58 q 426 211 408 149 q 453 357 444 274 m 969 -11 l 1154 -11 q 1191 1 1179 -11 q 1208 48 1203 13 q 1217 154 1214 83 q 1262 129 1233 140 q 1313 114 1290 118 q 1292 -19 1307 28 q 1248 -83 1278 -65 q 1164 -100 1218 -100 l 956 -100 q 855 -88 890 -100 q 806 -47 819 -76 q 793 35 793 -18 l 793 351 l 903 351 l 903 36 q 915 -3 903 6 q 969 -11 926 -11 z "},"亲":{"ha":1389,"x_min":94,"x_max":1306,"o":"m 1214 990 l 1215 901 l 196 901 l 196 990 l 643 990 l 643 1161 l 744 1161 l 744 990 l 1214 990 m 924 656 l 832 675 q 889 782 858 719 q 935 893 919 844 l 1042 874 q 983 758 1014 817 q 924 656 951 699 m 542 686 l 446 658 q 410 757 436 699 q 354 864 383 815 l 444 886 q 503 783 475 839 q 542 686 531 726 m 1264 329 l 801 329 q 945 197 863 260 q 1121 83 1028 133 q 1306 1 1214 32 q 1268 -40 1288 -14 q 1236 -85 1249 -65 q 1060 3 1149 -50 q 891 124 971 57 q 746 267 811 192 l 746 -107 l 646 -107 l 646 278 q 501 140 583 208 q 331 16 419 72 q 157 -79 242 -40 q 130 -36 147 -60 q 94 3 113 -12 q 265 86 178 35 q 433 201 353 138 q 572 329 513 264 l 129 329 l 129 421 l 646 421 l 646 563 l 103 563 l 103 654 l 1288 654 l 1288 563 l 746 563 l 746 421 l 1264 421 l 1264 329 z "},"人":{"ha":1389,"x_min":51,"x_max":1344,"o":"m 624 1119 l 738 1119 q 736 1090 736 1106 q 735 1056 736 1074 q 748 931 738 1010 q 782 752 758 851 q 848 544 806 653 q 957 332 890 436 q 1119 140 1024 228 q 1344 -8 1214 51 q 1301 -49 1322 -25 q 1268 -93 1279 -72 q 1035 65 1133 -29 q 869 268 938 158 q 758 492 801 378 q 690 710 715 606 q 627 494 668 606 q 522 276 586 383 q 362 73 457 168 q 135 -93 267 -22 q 98 -51 121 -74 q 51 -14 75 -29 q 289 156 192 58 q 448 366 386 254 q 544 592 510 478 q 595 808 579 706 q 616 992 611 911 q 624 1119 621 1074 z "},"亿":{"ha":1389,"x_min":49,"x_max":1297,"o":"m 392 1158 l 489 1128 q 428 988 463 1058 q 357 850 394 917 l 357 -104 l 257 -104 l 257 690 q 184 592 222 639 q 107 506 146 546 q 81 558 99 525 q 49 608 63 590 q 181 763 117 675 q 299 953 244 851 q 392 1158 353 1054 m 746 56 l 1106 54 q 1163 75 1143 54 q 1191 156 1182 96 q 1203 333 1200 217 q 1249 313 1222 322 q 1297 299 1275 303 q 1279 122 1292 190 q 1245 18 1267 54 q 1189 -31 1224 -18 q 1101 -44 1154 -44 l 753 -44 q 573 -1 631 -44 q 515 118 515 43 q 520 165 515 140 q 542 227 525 190 q 594 319 558 264 q 692 456 631 375 q 848 651 754 538 q 1075 919 942 765 l 543 919 l 543 1018 l 1179 1018 l 1204 1022 l 1269 986 q 1263 978 1267 982 q 1254 969 1258 974 q 997 676 1104 800 q 820 464 890 551 q 709 319 750 376 q 648 225 668 261 q 622 167 628 189 q 617 129 617 146 q 652 73 617 90 q 746 56 688 56 z "},"什":{"ha":1389,"x_min":56,"x_max":1321,"o":"m 406 1157 l 503 1126 q 367 843 444 978 l 367 -104 l 265 -104 l 265 682 q 191 583 229 631 q 114 496 153 536 q 88 547 106 514 q 56 597 69 579 q 190 755 125 665 q 311 947 256 844 q 406 1157 367 1050 m 1321 685 l 1321 583 l 947 583 l 947 -107 l 843 -107 l 843 583 l 456 583 l 456 685 l 843 685 l 843 1147 l 947 1147 l 947 685 l 1321 685 z "},"仁":{"ha":1389,"x_min":54,"x_max":1318,"o":"m 1258 928 l 1258 821 l 540 821 l 540 928 l 1258 928 m 411 1158 l 513 1126 q 444 972 482 1049 q 364 821 407 894 l 364 -104 l 263 -104 l 263 664 q 191 574 228 617 q 118 493 154 531 q 90 544 110 511 q 54 594 69 576 q 193 753 126 663 q 316 947 260 843 q 411 1158 372 1050 m 463 101 l 1318 101 l 1318 -6 l 463 -6 l 463 101 z "},"仅":{"ha":1389,"x_min":40,"x_max":1343,"o":"m 411 1153 l 513 1121 q 444 969 482 1044 q 364 824 407 894 l 364 -104 l 263 -104 l 263 671 q 185 573 225 619 q 104 486 146 526 q 75 538 94 506 q 40 589 56 571 q 184 747 115 657 q 311 940 253 836 q 411 1153 369 1044 m 1146 913 l 656 913 q 750 601 692 747 q 892 336 808 456 q 1044 594 979 450 q 1146 913 1108 738 m 1196 1015 l 1263 992 q 1144 574 1224 757 q 956 254 1064 390 q 1129 95 1033 164 q 1343 -17 1225 26 q 1306 -56 1325 -31 q 1276 -100 1288 -81 q 1063 17 1158 -53 q 889 178 967 88 q 697 13 800 82 q 478 -106 593 -57 q 450 -60 468 -86 q 417 -21 432 -35 q 633 91 529 21 q 825 258 736 161 q 667 554 732 390 q 557 908 601 718 l 576 913 l 507 913 l 507 1010 l 1178 1010 l 1196 1015 z "},"仆":{"ha":1389,"x_min":31,"x_max":1354,"o":"m 456 1156 l 558 1125 q 492 985 528 1054 q 417 849 457 915 l 417 -104 l 315 -104 l 315 697 q 210 567 264 629 q 101 454 157 506 q 69 505 92 474 q 31 554 46 536 q 194 722 115 626 q 341 928 274 817 q 456 1156 408 1039 m 1354 435 l 1290 344 q 1173 426 1242 381 q 1027 518 1104 471 q 874 607 950 565 l 874 -104 l 768 -104 l 768 1154 l 874 1154 l 874 719 q 1046 626 956 678 q 1217 524 1136 575 q 1354 435 1299 474 z "},"仇":{"ha":1389,"x_min":53,"x_max":1335,"o":"m 374 1158 l 471 1129 q 409 978 444 1053 q 335 829 374 903 l 335 -107 l 233 -107 l 233 661 q 174 580 204 618 q 113 507 143 542 q 85 558 104 525 q 53 608 67 590 q 178 763 118 675 q 288 953 238 851 q 374 1158 338 1054 m 1147 7 l 1194 7 q 1228 14 1217 7 q 1244 57 1240 24 q 1249 122 1247 78 q 1250 225 1250 165 q 1335 179 1286 193 q 1330 73 1333 128 q 1319 -6 1326 18 q 1303 -45 1314 -31 q 1278 -71 1293 -60 q 1242 -84 1263 -81 q 1201 -87 1221 -87 l 1124 -87 q 1078 -81 1101 -87 q 1039 -61 1056 -75 q 1021 -36 1028 -50 q 1010 6 1014 -22 q 1007 88 1007 35 l 1007 739 l 775 739 q 734 401 765 560 q 634 112 703 242 q 443 -111 565 -18 q 409 -69 432 -92 q 367 -36 386 -47 q 544 165 481 47 q 636 428 607 282 q 674 739 665 574 l 435 739 l 435 839 l 676 839 q 679 997 679 917 q 679 1160 679 1078 l 782 1160 q 781 997 782 1078 q 778 839 781 917 l 1110 839 l 1110 81 q 1121 14 1110 24 q 1147 7 1132 7 z "},"今":{"ha":1389,"x_min":53,"x_max":1340,"o":"m 1047 456 l 1065 461 l 1146 438 q 1069 266 1113 361 q 978 73 1025 171 q 886 -111 931 -25 l 781 -82 q 855 64 817 -14 q 930 218 893 142 q 994 358 967 294 l 214 358 l 214 456 l 1047 456 m 392 725 l 997 725 l 997 631 l 392 631 l 392 725 m 632 1165 l 733 1165 q 906 962 806 1063 q 1119 776 1007 861 q 1340 632 1232 690 q 1303 590 1321 614 q 1271 543 1285 567 q 1108 653 1190 592 q 947 785 1025 715 q 801 926 868 854 q 688 1064 735 997 q 543 884 632 979 q 344 699 454 789 q 118 536 235 608 q 90 577 108 554 q 53 617 71 600 q 229 734 143 668 q 392 874 315 800 q 530 1023 468 949 q 632 1165 592 1097 z "},"介":{"ha":1389,"x_min":56,"x_max":1339,"o":"m 689 1058 q 547 869 635 965 q 349 685 458 772 q 119 532 239 597 q 92 575 111 551 q 56 615 74 599 q 290 769 178 679 q 490 963 401 860 q 629 1163 578 1065 l 736 1163 q 906 948 807 1050 q 1117 765 1004 846 q 1339 633 1229 683 q 1301 590 1319 614 q 1271 542 1283 565 q 1050 683 1161 600 q 845 864 939 767 q 689 1058 751 961 m 883 676 l 990 676 l 990 -104 l 883 -104 l 883 676 m 392 671 l 497 671 l 497 478 q 488 327 497 404 q 447 173 478 250 q 356 25 417 96 q 190 -107 294 -46 q 153 -68 178 -90 q 108 -33 128 -46 q 263 84 206 21 q 347 214 319 147 q 383 348 375 281 q 392 479 392 415 l 392 671 z "},"仍":{"ha":1389,"x_min":32,"x_max":1315,"o":"m 388 1158 l 483 1129 q 342 843 424 979 l 342 -103 l 244 -103 l 244 694 q 90 511 169 590 q 65 561 83 528 q 32 611 46 594 q 169 765 103 678 q 291 953 235 853 q 388 1158 347 1054 m 1076 694 l 1315 694 q 1315 676 1315 694 q 1314 646 1315 657 q 1295 348 1304 471 q 1275 144 1286 225 q 1250 17 1264 63 q 1217 -50 1236 -29 q 1172 -85 1196 -76 q 1113 -99 1149 -94 q 1024 -100 1079 -100 q 906 -96 969 -100 q 896 -44 904 -74 q 874 3 888 -15 q 994 -4 939 -3 q 1071 -6 1049 -6 q 1105 -2 1090 -6 q 1131 14 1119 1 q 1164 96 1150 33 q 1190 281 1178 158 q 1211 599 1201 403 l 1067 599 q 1061 551 1064 574 q 1056 508 1058 528 l 957 515 q 974 649 965 574 q 990 808 982 725 q 1003 968 997 890 l 747 968 q 733 674 744 825 q 693 379 722 524 q 608 109 664 235 q 456 -110 551 -17 q 419 -73 442 -93 q 376 -40 396 -53 q 519 162 467 44 q 597 415 571 279 q 633 693 624 551 q 643 968 642 835 l 483 968 l 483 1064 l 1108 1064 q 1094 882 1103 979 q 1076 694 1086 785 z "},"从":{"ha":1389,"x_min":56,"x_max":1340,"o":"m 676 288 l 599 200 q 519 333 569 257 q 411 482 468 410 q 315 153 376 301 q 156 -107 254 6 q 127 -85 146 -99 q 89 -58 108 -71 q 56 -36 69 -44 q 235 255 171 83 q 327 644 299 426 q 367 1115 356 861 l 478 1111 q 460 853 471 976 q 433 617 450 731 q 528 505 482 564 q 614 390 575 446 q 676 288 653 333 m 863 1113 l 971 1113 q 967 1008 969 1065 q 961 889 965 951 q 1001 640 976 768 q 1069 390 1026 511 q 1178 166 1113 268 q 1340 -7 1244 64 q 1297 -51 1322 -21 q 1260 -106 1272 -82 q 1099 80 1165 -26 q 989 308 1032 186 q 918 556 946 431 q 848 311 893 432 q 730 84 803 190 q 549 -103 657 -22 q 506 -62 531 -83 q 456 -25 482 -40 q 622 133 554 43 q 735 327 690 224 q 804 539 779 431 q 842 752 829 647 q 858 949 854 857 q 863 1113 861 1042 z "},"仑":{"ha":1389,"x_min":61,"x_max":1340,"o":"m 576 39 l 958 39 q 1030 54 1006 39 q 1065 114 1054 69 q 1081 244 1075 158 q 1128 219 1100 231 q 1179 204 1157 208 q 1151 44 1171 101 q 1088 -36 1132 -14 q 961 -58 1044 -58 l 575 -58 q 438 -44 488 -58 q 367 7 388 -31 q 346 113 346 44 l 346 669 l 447 669 l 447 390 q 647 460 549 422 q 829 540 744 497 q 974 625 914 582 l 1067 549 q 885 449 988 496 q 671 363 783 403 q 447 292 558 324 l 447 113 q 472 53 447 68 q 576 39 496 39 m 697 1165 l 790 1122 q 775 1101 783 1111 q 760 1079 767 1090 q 922 921 826 999 q 1127 780 1018 843 q 1340 679 1236 717 q 1299 635 1322 663 q 1263 586 1276 608 q 1063 694 1165 628 q 867 840 961 760 q 701 1007 774 921 q 439 763 589 872 q 132 582 289 653 q 101 627 121 601 q 61 671 81 653 q 305 795 185 719 q 527 965 425 871 q 697 1165 629 1060 z "},"仓":{"ha":1389,"x_min":50,"x_max":1342,"o":"m 689 1164 l 786 1121 q 771 1097 779 1110 q 754 1074 763 1085 q 1024 827 876 928 q 1342 647 1172 726 q 1303 607 1322 631 q 1272 560 1283 583 q 965 749 1107 646 q 699 997 822 851 q 535 822 625 904 q 346 671 444 740 l 1057 671 q 1056 653 1057 671 q 1056 624 1056 635 q 1043 429 1050 504 q 1027 314 1036 354 q 1003 256 1018 274 q 962 228 985 236 q 908 218 939 219 q 827 216 879 215 q 718 219 775 217 q 710 266 717 240 q 693 311 704 292 q 799 304 750 306 q 865 303 847 303 q 915 317 901 303 q 936 390 928 332 q 950 574 944 447 l 428 574 l 428 110 q 438 60 428 78 q 478 37 449 43 q 567 31 508 31 l 965 31 q 1044 47 1018 31 q 1081 107 1069 63 q 1097 240 1092 151 q 1147 215 1117 226 q 1201 197 1178 203 q 1170 33 1192 92 q 1102 -48 1149 -25 q 968 -71 1056 -71 l 565 -71 q 419 -56 472 -71 q 344 -3 365 -42 q 322 108 322 36 l 322 654 q 225 594 275 624 q 124 542 175 565 q 91 586 111 561 q 50 629 71 611 q 299 768 178 686 q 520 951 419 850 q 689 1164 621 1051 z "},"仔":{"ha":1389,"x_min":32,"x_max":1339,"o":"m 410 1153 l 511 1122 q 364 831 451 972 l 364 -103 l 261 -103 l 261 678 q 181 576 222 624 q 96 486 139 528 q 67 538 88 506 q 32 589 47 571 q 178 747 108 657 q 308 940 249 836 q 410 1153 367 1044 m 1339 564 l 1339 464 l 938 464 l 938 28 q 924 -49 938 -22 q 874 -87 910 -75 q 772 -103 838 -100 q 611 -106 707 -106 q 597 -53 607 -83 q 575 -1 586 -24 q 715 -4 651 -4 q 800 -4 779 -4 q 828 3 819 -3 q 836 28 836 10 l 836 464 l 421 464 l 421 564 l 836 564 l 836 767 l 893 767 q 1013 862 953 808 q 1119 968 1072 915 l 536 968 l 536 1065 l 1204 1065 l 1224 1069 l 1293 1022 q 1189 902 1249 963 q 1065 788 1129 842 q 938 690 1000 733 l 938 564 l 1339 564 z "},"他":{"ha":1389,"x_min":31,"x_max":1333,"o":"m 374 1157 l 468 1128 q 403 978 439 1053 q 328 833 368 904 l 328 -104 l 226 -104 l 226 675 q 89 508 163 583 q 63 557 81 525 q 31 606 44 589 q 163 760 99 672 q 281 950 226 849 q 374 1157 335 1051 m 772 6 l 1126 6 q 1191 22 1169 6 q 1222 81 1213 38 q 1238 207 1232 125 q 1284 181 1257 193 q 1333 164 1311 169 q 1306 14 1325 69 q 1247 -65 1288 -42 q 1131 -87 1207 -87 l 768 -87 q 639 -72 686 -87 q 573 -14 592 -56 q 554 103 554 28 l 554 554 l 419 501 l 379 592 l 554 660 l 554 1025 l 656 1025 l 656 700 l 858 779 l 858 1160 l 957 1160 l 957 815 l 1172 899 l 1186 911 l 1204 926 l 1275 897 l 1271 879 q 1269 650 1271 754 q 1265 473 1268 546 q 1254 371 1261 400 q 1224 301 1246 324 q 1171 269 1203 278 q 1103 260 1143 263 q 1031 260 1063 258 q 1022 311 1029 283 q 1006 357 1015 339 q 1065 355 1033 356 q 1111 354 1097 354 q 1142 362 1131 354 q 1158 396 1153 369 q 1169 528 1167 424 q 1174 796 1172 633 l 957 711 l 957 201 l 858 201 l 858 672 l 656 592 l 656 103 q 664 42 656 64 q 698 13 672 21 q 772 6 724 6 z "},"仗":{"ha":1389,"x_min":33,"x_max":1343,"o":"m 411 1153 l 511 1121 q 364 831 449 971 l 364 -104 l 263 -104 l 263 678 q 182 576 224 625 q 96 488 140 528 q 69 538 89 506 q 33 589 49 571 q 179 747 108 657 q 310 940 250 836 q 411 1153 369 1044 m 1019 771 l 1019 764 q 1010 579 1019 674 q 971 391 1000 485 q 882 208 942 297 q 1081 69 967 125 q 1343 -17 1196 13 q 1308 -61 1326 -35 q 1278 -110 1289 -87 q 1019 -16 1132 -75 q 818 126 906 43 q 679 3 761 63 q 486 -110 597 -57 q 454 -66 476 -92 q 414 -25 432 -40 q 609 85 528 26 q 746 208 690 144 q 626 408 676 299 q 542 653 576 518 l 636 672 q 706 467 664 563 q 808 292 749 371 q 898 528 879 407 q 917 764 917 650 l 917 771 l 456 771 l 456 869 l 917 869 l 917 1156 l 1019 1156 l 1019 869 l 1326 869 l 1326 771 l 1019 771 z "},"付":{"ha":1389,"x_min":58,"x_max":1321,"o":"m 411 1153 l 513 1121 q 445 967 482 1043 q 365 818 408 890 l 365 -103 l 263 -103 l 263 658 q 194 569 229 611 q 122 490 158 526 q 93 541 113 508 q 58 592 74 574 q 195 749 129 660 q 317 942 261 839 q 411 1153 372 1046 m 1321 854 l 1321 751 l 1144 751 l 1144 35 q 1127 -51 1144 -24 q 1071 -90 1110 -79 q 958 -106 1031 -103 q 774 -107 886 -108 q 757 -57 769 -87 q 733 -6 744 -26 q 846 -8 792 -7 q 940 -9 900 -10 q 997 -8 981 -8 q 1031 3 1021 -6 q 1040 35 1040 11 l 1040 751 l 481 751 l 481 854 l 1040 854 l 1040 1146 l 1144 1146 l 1144 854 l 1321 854 m 865 269 l 769 218 q 715 321 749 261 q 642 444 681 381 q 568 564 604 508 l 657 606 q 733 490 693 553 q 808 370 772 428 q 865 269 843 313 z "},"仙":{"ha":1389,"x_min":32,"x_max":1272,"o":"m 388 1158 l 483 1129 q 342 843 424 979 l 342 -101 l 244 -101 l 244 694 q 90 511 169 590 q 65 560 83 528 q 32 611 46 593 q 169 765 103 678 q 291 953 235 853 q 388 1158 347 1054 m 1172 790 l 1272 790 l 1272 -71 l 1172 -71 l 1172 38 l 589 38 l 589 -79 l 492 -79 l 492 790 l 589 790 l 589 133 l 824 133 l 824 1119 l 926 1119 l 926 133 l 1172 133 l 1172 790 z "},"代":{"ha":1389,"x_min":35,"x_max":1349,"o":"m 1293 910 l 1213 854 q 1153 926 1190 886 q 1074 1007 1117 965 q 989 1082 1031 1049 l 1064 1132 q 1149 1060 1106 1100 q 1231 981 1193 1019 q 1293 910 1269 942 m 436 1146 l 533 1115 q 465 973 503 1043 q 385 835 428 903 l 385 -104 l 281 -104 l 281 686 q 190 577 236 628 q 94 482 143 526 q 67 533 86 501 q 35 582 49 564 q 189 740 114 650 q 328 933 264 829 q 436 1146 392 1038 m 1319 699 l 900 646 q 963 323 924 463 q 1057 103 1001 183 q 1186 15 1113 22 q 1235 74 1217 14 q 1263 254 1253 135 q 1306 224 1278 240 q 1349 200 1333 207 q 1310 15 1333 82 q 1257 -80 1288 -53 q 1190 -106 1226 -107 q 999 -4 1076 -97 q 874 252 922 89 q 799 632 825 415 l 465 590 l 451 688 l 788 729 q 772 929 779 826 q 761 1140 765 1032 l 864 1140 q 874 935 867 1035 q 890 743 881 835 l 1306 796 l 1319 699 z "},"令":{"ha":1389,"x_min":53,"x_max":1340,"o":"m 1163 489 l 1163 108 q 1151 43 1163 67 q 1107 7 1139 19 q 1022 -8 1075 -6 q 886 -11 968 -11 q 872 40 882 13 q 850 88 861 67 q 963 86 911 86 q 1029 86 1014 86 q 1053 92 1047 88 q 1060 110 1060 97 l 1060 393 l 658 393 l 658 -106 l 550 -106 l 550 393 l 183 393 l 183 489 l 1163 489 m 404 750 l 988 750 l 988 657 l 404 657 l 404 750 m 632 1163 l 735 1163 q 908 967 808 1063 q 1121 792 1008 872 q 1340 660 1233 713 q 1304 617 1322 642 q 1272 571 1286 592 q 1110 673 1193 615 q 949 796 1026 731 q 804 929 871 861 q 689 1061 738 997 q 542 888 632 978 q 344 714 453 799 q 118 563 235 629 q 90 604 108 581 q 53 644 71 628 q 284 796 172 708 q 487 979 396 883 q 632 1163 578 1075 z "},"以":{"ha":1389,"x_min":54,"x_max":1343,"o":"m 819 658 l 722 606 q 670 713 704 654 q 594 833 636 772 q 508 944 553 894 l 600 990 q 689 881 646 940 q 766 763 732 821 q 819 658 800 706 m 622 389 l 646 290 q 451 203 550 247 q 260 118 353 158 q 92 44 168 78 l 54 151 q 143 187 94 167 q 246 229 192 207 l 222 1088 l 328 1092 l 349 272 q 485 330 415 300 q 622 389 554 360 m 1343 -22 l 1257 -101 q 1174 8 1225 -53 q 1065 136 1124 69 q 946 265 1006 203 q 749 51 865 143 q 469 -110 632 -42 q 433 -65 460 -94 q 388 -21 407 -36 q 688 142 567 44 q 885 376 808 240 q 1006 688 963 511 q 1072 1090 1050 865 l 1185 1079 q 1117 678 1160 857 q 1001 360 1075 500 q 1129 228 1064 297 q 1251 94 1194 160 q 1343 -22 1308 29 z "},"仪":{"ha":1389,"x_min":31,"x_max":1338,"o":"m 993 854 l 906 804 q 868 891 893 842 q 813 992 843 940 q 751 1089 782 1044 l 833 1129 q 897 1036 865 1086 q 953 938 928 986 q 993 854 979 890 m 374 1157 l 471 1126 q 404 976 440 1050 q 328 829 368 901 l 328 -103 l 229 -103 l 229 676 q 160 586 196 629 q 89 506 125 543 q 64 556 82 524 q 31 606 46 589 q 163 760 99 672 q 281 950 226 849 q 374 1157 335 1051 m 1163 1082 l 1264 1064 q 1147 616 1221 822 q 942 247 1074 410 q 1117 92 1019 158 q 1338 -18 1215 26 q 1297 -60 1319 -33 q 1264 -108 1275 -87 q 1044 9 1142 -60 q 868 165 946 78 q 681 15 786 83 q 442 -107 575 -54 q 413 -67 432 -90 q 379 -28 394 -43 q 620 91 515 24 q 806 243 725 158 q 623 601 693 399 q 508 1047 553 803 l 607 1060 q 708 656 643 842 q 878 325 774 469 q 1061 669 997 478 q 1163 1082 1125 861 z "},"们":{"ha":1389,"x_min":54,"x_max":1275,"o":"m 317 1154 l 411 1128 q 363 978 390 1053 q 306 832 336 903 l 306 -106 l 206 -106 l 206 632 q 110 486 160 551 q 96 517 106 497 q 75 558 86 538 q 54 589 64 578 q 204 844 136 694 q 317 1154 272 994 m 472 -107 l 472 883 l 572 883 l 572 -107 l 472 -107 m 529 1118 l 610 1161 q 672 1071 640 1119 q 732 976 704 1022 q 775 896 760 931 l 690 847 q 650 929 676 882 q 592 1026 624 976 q 529 1118 561 1076 m 1275 1111 l 1275 25 q 1263 -47 1275 -22 q 1219 -85 1250 -72 q 1135 -100 1189 -97 q 999 -103 1081 -103 q 986 -54 996 -83 q 965 -4 976 -25 q 1076 -7 1025 -7 q 1143 -6 1126 -7 q 1167 2 1161 -4 q 1174 26 1174 8 l 1174 1017 l 799 1017 l 799 1111 l 1275 1111 z "},"仰":{"ha":1389,"x_min":25,"x_max":1296,"o":"m 374 1158 l 467 1129 q 403 983 439 1056 q 328 842 368 911 l 328 -101 l 229 -101 l 229 689 q 158 595 194 639 q 83 513 121 551 q 57 562 75 529 q 25 611 39 594 q 159 765 94 678 q 279 953 224 853 q 374 1158 335 1054 m 594 911 l 594 244 q 704 276 647 260 q 818 308 761 292 l 833 217 q 631 153 732 185 q 444 99 529 122 l 406 193 q 451 205 428 199 q 500 218 474 211 l 500 994 l 550 979 q 674 1067 614 1019 q 771 1154 735 1114 l 869 1096 q 740 1000 814 1049 q 594 911 667 951 m 1296 1019 l 1296 251 q 1286 187 1296 211 q 1249 149 1276 163 q 1172 133 1219 136 q 1051 129 1125 129 q 1042 180 1050 151 q 1022 231 1033 208 q 1117 229 1075 229 q 1172 229 1158 229 q 1193 235 1188 231 q 1199 253 1199 239 l 1199 928 l 956 928 l 956 -106 l 860 -106 l 860 1019 l 1296 1019 z "},"仲":{"ha":1389,"x_min":50,"x_max":1294,"o":"m 368 1160 l 464 1131 q 403 978 438 1054 q 331 829 369 903 l 331 -104 l 232 -104 l 232 668 q 110 510 172 579 q 83 559 101 526 q 50 610 64 592 q 173 765 114 676 q 282 954 232 853 q 368 1160 332 1056 m 922 440 l 1193 440 l 1193 781 l 922 781 l 922 440 m 558 440 l 821 440 l 821 781 l 558 781 l 558 440 m 922 876 l 1294 876 l 1294 264 l 1193 264 l 1193 343 l 922 343 l 922 -104 l 821 -104 l 821 343 l 558 343 l 558 256 l 460 256 l 460 876 l 821 876 l 821 1147 l 922 1147 l 922 876 z "},"件":{"ha":1389,"x_min":50,"x_max":1317,"o":"m 375 1157 l 472 1126 q 409 974 443 1050 q 335 826 375 899 l 335 -104 l 236 -104 l 236 667 q 173 581 206 622 q 108 504 140 540 q 83 556 101 524 q 50 606 64 588 q 176 762 115 674 q 288 951 236 850 q 375 1157 339 1053 m 1317 474 l 1317 372 l 940 372 l 940 -107 l 838 -107 l 838 372 l 442 372 l 442 474 l 838 474 l 838 778 l 619 778 q 572 665 597 718 q 519 567 547 611 q 478 594 506 578 q 431 619 450 610 q 535 832 492 706 q 601 1093 578 958 l 699 1072 q 678 975 689 1024 q 653 879 667 926 l 838 879 l 838 1144 l 940 1144 l 940 879 l 1257 879 l 1257 778 l 940 778 l 940 474 l 1317 474 z "},"价":{"ha":1389,"x_min":28,"x_max":1353,"o":"m 371 1157 l 467 1128 q 324 828 408 975 l 324 -103 l 226 -103 l 226 676 q 158 586 193 629 q 86 506 122 543 q 60 556 78 524 q 28 606 43 589 q 160 760 96 672 q 278 950 224 849 q 371 1157 332 1051 m 622 461 l 622 657 l 722 657 l 722 458 q 714 324 722 397 q 681 174 706 251 q 607 22 657 96 q 474 -117 557 -53 q 440 -81 461 -101 q 400 -47 419 -61 q 523 74 478 8 q 589 210 568 140 q 616 344 610 279 q 622 461 622 410 m 1004 -94 l 1004 658 l 1107 658 l 1107 -94 l 1004 -94 m 796 1136 l 896 1136 q 1025 955 950 1044 q 1185 790 1100 865 q 1353 667 1271 715 q 1321 623 1338 649 q 1292 575 1304 597 q 1126 706 1210 631 q 972 867 1043 782 q 851 1032 900 951 q 741 869 808 954 q 592 706 674 785 q 421 568 510 628 q 394 612 411 588 q 363 654 378 636 q 537 792 453 711 q 689 963 621 872 q 796 1136 757 1053 z "},"任":{"ha":1389,"x_min":35,"x_max":1328,"o":"m 411 1161 l 511 1131 q 444 981 481 1054 q 364 836 407 907 l 364 -107 l 263 -107 l 263 683 q 99 496 183 576 q 72 548 92 515 q 35 599 51 581 q 181 756 111 667 q 310 950 251 846 q 411 1161 369 1054 m 1328 472 l 936 472 l 936 46 l 1307 46 l 1307 -54 l 476 -54 l 476 46 l 833 46 l 833 472 l 424 472 l 424 572 l 833 572 l 833 939 q 665 913 750 925 q 501 890 581 900 q 488 935 499 910 q 469 978 478 960 q 734 1018 599 994 q 990 1069 869 1042 q 1196 1128 1111 1097 l 1272 1042 q 1116 998 1201 1019 q 936 957 1031 976 l 936 572 l 1328 572 l 1328 472 z "},"份":{"ha":1389,"x_min":28,"x_max":1350,"o":"m 371 1157 l 467 1128 q 324 828 408 975 l 324 -103 l 226 -103 l 226 676 q 158 586 193 629 q 86 506 122 543 q 60 556 78 524 q 28 606 43 589 q 160 760 96 672 q 278 950 224 849 q 371 1157 332 1051 m 615 1010 l 715 985 q 644 821 686 904 q 549 661 601 738 q 435 525 496 585 q 403 560 424 540 q 368 593 383 581 q 472 716 424 646 q 557 863 519 786 q 615 1010 594 939 m 533 611 l 1175 611 q 1175 592 1175 611 q 1174 563 1175 574 q 1162 230 1168 354 q 1144 42 1156 106 q 1115 -44 1133 -21 q 1077 -78 1097 -68 q 1028 -90 1057 -87 q 959 -92 1001 -92 q 869 -90 917 -92 q 861 -38 868 -67 q 840 11 854 -10 q 924 6 886 7 q 979 6 963 6 q 1005 9 994 6 q 1024 22 1015 13 q 1044 90 1036 38 q 1059 244 1053 142 q 1069 518 1065 347 l 826 518 q 780 274 814 392 q 678 60 746 157 q 492 -106 610 -37 q 463 -65 482 -89 q 428 -28 444 -42 q 599 116 538 31 q 688 305 660 201 q 724 518 715 408 l 533 518 l 533 611 m 700 1124 l 1076 1124 q 1136 924 1097 1019 q 1229 754 1175 829 q 1350 632 1283 679 q 1309 593 1332 618 q 1272 549 1286 568 q 1105 755 1176 626 q 997 1031 1033 883 l 700 1031 l 700 1124 z "},"仿":{"ha":1389,"x_min":33,"x_max":1329,"o":"m 411 1153 l 513 1122 q 364 831 449 969 l 364 -103 l 261 -103 l 261 676 q 97 488 182 569 q 68 539 88 507 q 33 589 49 571 q 178 747 108 657 q 308 940 249 836 q 411 1153 368 1044 m 1329 824 l 844 824 q 840 715 843 769 q 829 604 836 660 l 1243 604 q 1243 586 1243 604 q 1240 557 1243 568 q 1217 230 1229 354 q 1189 41 1206 106 q 1149 -50 1172 -24 q 1108 -83 1131 -75 q 1053 -94 1085 -92 q 976 -97 1024 -97 q 875 -94 928 -97 q 866 -43 874 -71 q 844 6 858 -15 q 944 0 897 1 q 1008 -1 990 -1 q 1040 2 1028 -1 q 1063 15 1053 6 q 1092 86 1079 33 q 1117 242 1106 139 q 1136 511 1128 344 l 817 511 q 761 274 799 389 q 656 62 724 160 q 481 -107 589 -36 q 447 -67 468 -89 q 404 -31 425 -44 q 578 135 514 38 q 674 347 642 232 q 719 585 707 463 q 735 824 731 707 l 457 824 l 457 924 l 851 924 l 851 1163 l 953 1163 l 953 924 l 1329 924 l 1329 824 z "},"企":{"ha":1389,"x_min":51,"x_max":1340,"o":"m 631 1165 l 735 1165 q 907 954 807 1057 q 1119 767 1007 851 q 1340 626 1232 682 q 1272 538 1303 586 q 1108 646 1192 585 q 946 777 1024 707 q 802 920 868 847 q 689 1064 736 993 q 544 878 633 975 q 345 690 456 781 q 117 529 235 600 q 88 571 107 547 q 51 610 69 594 q 285 772 172 678 q 488 968 397 865 q 631 1165 578 1071 m 756 374 l 756 29 l 1283 29 l 1283 -67 l 110 -67 l 110 29 l 283 29 l 283 540 l 386 540 l 386 29 l 649 29 l 649 790 l 756 790 l 756 467 l 1154 467 l 1154 374 l 756 374 z "},"伊":{"ha":1389,"x_min":31,"x_max":1328,"o":"m 386 1158 l 483 1128 q 342 842 422 978 l 342 -106 l 243 -106 l 243 693 q 168 596 207 642 q 89 510 129 550 q 64 560 82 528 q 31 611 46 593 q 167 765 101 678 q 290 952 233 851 q 386 1158 346 1053 m 1125 417 l 1125 647 l 849 647 l 849 578 q 847 498 849 539 q 840 417 846 457 l 1125 417 m 849 969 l 849 743 l 1125 743 l 1125 969 l 849 969 m 1328 743 l 1328 647 l 1225 647 l 1225 249 l 1125 249 l 1125 321 l 824 321 q 765 161 806 239 q 654 15 725 83 q 471 -110 583 -54 q 441 -69 461 -93 q 403 -31 421 -46 q 623 127 551 35 q 721 321 694 219 l 483 321 l 483 417 l 739 417 q 746 499 744 458 q 747 578 747 539 l 747 647 l 406 647 l 406 743 l 747 743 l 747 969 l 503 969 l 503 1067 l 1225 1067 l 1225 743 l 1328 743 z "},"伍":{"ha":1389,"x_min":28,"x_max":1338,"o":"m 371 1154 l 465 1125 q 408 990 439 1057 q 343 858 378 924 l 343 -106 l 244 -106 l 244 694 q 85 493 169 582 q 60 544 78 513 q 28 594 43 576 q 160 752 97 663 q 278 944 224 842 q 371 1154 332 1047 m 1097 522 l 808 522 q 765 269 786 392 q 725 49 744 147 l 1097 49 l 1097 522 m 1200 49 l 1338 49 l 1338 -47 l 424 -47 l 424 49 l 618 49 q 661 269 639 147 q 704 522 683 392 l 490 522 l 490 619 l 719 619 q 746 791 733 706 q 768 954 758 876 l 489 954 l 489 1051 l 1276 1051 l 1276 954 l 874 954 q 850 790 863 875 q 824 619 838 706 l 1200 619 l 1200 49 z "},"伏":{"ha":1389,"x_min":44,"x_max":1333,"o":"m 1258 881 l 1175 828 q 1133 903 1160 861 q 1074 991 1106 946 q 1010 1074 1042 1036 l 1088 1119 q 1152 1040 1119 1083 q 1213 954 1185 996 q 1258 881 1242 913 m 386 1160 l 485 1129 q 347 839 426 978 l 347 -106 l 246 -106 l 246 676 q 103 501 175 576 q 78 554 96 521 q 44 606 60 588 q 176 761 113 672 q 294 952 240 850 q 386 1160 349 1054 m 1313 653 l 921 653 q 1009 372 954 503 q 1144 142 1064 242 q 1333 -17 1225 43 q 1292 -57 1315 -31 q 1257 -106 1269 -83 q 1022 131 1117 -19 q 871 475 928 281 q 752 173 838 324 q 499 -106 667 22 q 460 -71 485 -89 q 414 -39 436 -53 q 630 182 551 65 q 746 419 708 299 q 794 653 783 539 l 438 653 l 438 754 l 801 754 q 803 797 803 776 q 803 839 803 818 l 803 1160 l 906 1160 l 906 839 q 906 797 906 818 q 904 754 906 776 l 1313 754 l 1313 653 z "},"伐":{"ha":1389,"x_min":57,"x_max":1331,"o":"m 1226 947 l 1158 882 q 1093 944 1133 908 q 1009 1016 1053 979 q 925 1083 965 1053 l 990 1139 q 1075 1075 1031 1110 q 1160 1006 1119 1040 q 1226 947 1200 972 m 411 1156 l 510 1125 q 365 831 451 975 l 365 -103 l 263 -103 l 263 671 q 191 581 228 624 q 118 500 154 538 q 91 549 110 517 q 57 599 72 582 q 194 756 128 667 q 316 947 260 844 q 411 1156 372 1049 m 1151 658 l 1250 622 q 1124 422 1194 515 q 968 249 1053 329 q 1064 64 1011 131 q 1174 -3 1117 -3 q 1218 53 1203 -3 q 1240 242 1233 110 q 1283 210 1258 226 q 1331 188 1308 194 q 1303 9 1321 74 q 1252 -81 1285 -56 q 1165 -107 1219 -107 q 1006 -32 1076 -107 q 882 174 935 43 q 497 -57 710 36 q 466 -10 488 -37 q 428 31 444 17 q 651 138 544 76 q 847 275 757 199 q 799 470 819 365 q 763 692 778 575 l 424 656 l 414 753 l 753 786 q 740 964 744 874 q 733 1146 735 1054 l 839 1146 q 856 797 839 964 l 1289 842 l 1297 746 l 867 701 q 935 356 890 507 q 1055 497 1000 421 q 1151 658 1110 574 z "},"休":{"ha":1389,"x_min":33,"x_max":1356,"o":"m 410 1153 l 513 1121 q 361 824 449 965 l 361 -104 l 260 -104 l 260 675 q 96 492 181 571 q 69 544 89 511 q 33 596 49 578 q 181 751 110 663 q 310 942 251 839 q 410 1153 369 1044 m 1319 710 l 978 710 q 1083 494 1022 600 q 1213 299 1143 388 q 1356 151 1283 210 q 1314 113 1338 138 q 1278 68 1290 89 q 1146 219 1211 131 q 1023 411 1081 307 q 918 626 965 515 l 918 -107 l 817 -107 l 817 597 q 653 294 747 435 q 456 63 558 153 q 419 104 442 81 q 378 142 396 128 q 524 291 453 201 q 658 489 596 381 q 763 710 719 597 l 426 710 l 426 810 l 817 810 l 817 1143 l 918 1143 l 918 810 l 1319 810 l 1319 710 z "},"众":{"ha":1389,"x_min":50,"x_max":1343,"o":"m 628 1158 l 739 1158 q 912 967 813 1058 q 1123 804 1011 876 q 1343 685 1235 732 q 1307 638 1325 664 q 1274 589 1289 613 q 1056 717 1167 642 q 849 881 944 793 q 689 1054 753 968 q 544 885 633 972 q 344 719 454 799 q 115 581 233 640 q 87 625 106 599 q 50 668 68 651 q 283 808 171 726 q 484 981 394 889 q 628 1158 574 1072 m 699 207 l 621 125 q 533 226 589 168 q 415 336 476 283 q 308 85 374 196 q 149 -106 243 -25 q 105 -70 135 -92 q 56 -37 75 -49 q 271 247 199 69 q 369 657 343 424 l 478 646 q 463 542 471 593 q 443 444 454 492 q 540 365 492 407 q 631 281 589 322 q 699 207 672 240 m 885 657 l 994 644 q 983 575 989 610 q 971 507 978 540 q 1042 313 996 413 q 1160 128 1088 214 q 1336 -10 1232 43 q 1295 -55 1318 -26 q 1261 -104 1272 -83 q 1114 17 1178 -54 q 1004 169 1050 88 q 926 335 958 251 q 808 83 879 193 q 636 -107 738 -28 q 592 -72 622 -93 q 543 -37 563 -50 q 776 243 696 67 q 885 657 856 419 z "},"优":{"ha":1389,"x_min":57,"x_max":1318,"o":"m 1231 922 l 1154 865 q 1105 931 1136 894 q 1038 1005 1074 967 q 968 1075 1003 1043 l 1040 1126 q 1110 1059 1074 1096 q 1178 986 1146 1022 q 1231 922 1211 950 m 381 1158 l 478 1129 q 410 969 447 1049 q 332 813 374 889 l 332 -106 l 233 -106 l 233 654 q 176 576 206 614 q 117 507 146 539 q 90 558 108 525 q 57 608 71 590 q 182 765 122 676 q 292 953 242 853 q 381 1158 343 1054 m 1315 736 l 814 736 q 767 410 801 567 q 660 122 732 253 q 461 -100 588 -8 q 426 -59 449 -81 q 385 -25 404 -37 q 570 176 503 58 q 669 438 638 294 q 713 736 701 581 l 407 736 l 407 835 l 719 835 q 724 990 722 913 q 725 1144 725 1068 l 826 1144 q 825 990 826 1068 q 819 835 824 913 l 1315 835 l 1315 736 m 1033 26 l 1174 26 q 1205 42 1194 26 q 1220 103 1215 57 q 1226 240 1225 150 q 1270 215 1243 226 q 1318 196 1297 203 q 1301 35 1314 93 q 1260 -45 1288 -22 q 1182 -68 1232 -68 l 1021 -68 q 912 -37 940 -68 q 883 78 883 -7 l 883 628 l 985 628 l 985 78 q 994 37 985 47 q 1033 26 1003 26 z "},"伙":{"ha":1389,"x_min":32,"x_max":1356,"o":"m 1210 906 l 1322 874 q 1270 737 1299 808 q 1213 600 1242 665 q 1158 485 1185 535 l 1068 515 q 1120 635 1093 567 q 1172 774 1147 703 q 1210 906 1196 846 m 533 454 l 444 500 q 501 609 479 544 q 537 749 524 674 q 554 899 550 824 l 650 885 q 634 726 647 806 q 597 576 621 646 q 533 454 572 506 m 388 1158 l 483 1129 q 342 843 424 979 l 342 -104 l 244 -104 l 244 694 q 90 511 169 590 q 65 560 83 528 q 32 611 46 593 q 169 765 103 678 q 291 953 235 853 q 388 1158 347 1054 m 932 1153 l 932 610 q 942 514 932 572 q 979 386 953 456 q 1053 245 1006 317 q 1176 109 1101 174 q 1356 -4 1250 44 q 1322 -53 1342 -22 q 1289 -104 1301 -83 q 1105 16 1181 -54 q 982 160 1029 86 q 910 300 935 235 q 876 407 885 365 q 845 300 869 365 q 774 161 821 235 q 654 17 728 88 q 474 -104 581 -53 q 444 -57 464 -86 q 408 -10 424 -28 q 583 104 511 39 q 702 242 656 169 q 775 384 749 314 q 812 513 801 454 q 822 610 822 572 l 822 1153 l 932 1153 z "},"会":{"ha":1389,"x_min":56,"x_max":1342,"o":"m 128 374 l 128 469 l 1269 469 l 1269 374 l 618 374 q 539 213 582 297 q 454 54 496 128 q 727 64 583 58 q 1017 75 871 69 q 926 173 974 124 q 833 263 879 222 l 921 310 q 1048 190 985 256 q 1163 62 1111 125 q 1247 -53 1215 -1 l 1154 -110 q 1126 -65 1142 -89 q 1090 -17 1110 -42 q 750 -33 921 -25 q 426 -47 579 -40 q 153 -57 272 -53 l 139 44 q 235 47 183 46 q 343 50 288 49 q 424 210 383 122 q 493 374 465 297 l 128 374 m 364 733 l 1021 733 l 1021 639 l 364 639 l 364 733 m 631 1160 l 736 1160 q 909 967 810 1058 q 1121 803 1008 875 q 1342 685 1233 731 q 1306 642 1324 667 q 1275 593 1289 617 q 1058 721 1168 646 q 851 884 947 796 q 689 1061 754 972 q 544 891 633 978 q 344 725 454 804 q 115 588 233 646 q 90 630 107 606 q 56 669 72 654 q 286 808 175 726 q 488 981 397 889 q 631 1160 578 1072 z "},"伞":{"ha":1389,"x_min":47,"x_max":1347,"o":"m 744 819 l 744 310 l 1311 310 l 1311 210 l 744 210 l 744 -107 l 640 -107 l 640 210 l 74 210 l 74 310 l 640 310 l 640 819 l 744 819 m 281 664 l 367 701 q 427 607 397 658 q 481 506 457 556 q 517 418 506 457 l 425 375 q 391 464 414 414 q 340 567 368 514 q 281 664 311 619 m 1021 701 l 1121 664 q 1033 510 1081 590 q 944 374 985 431 l 865 410 q 921 499 892 449 q 976 603 950 550 q 1021 701 1003 657 m 713 1169 l 794 1124 q 775 1099 785 1111 q 754 1076 765 1088 q 1037 890 886 964 q 1347 763 1188 817 q 1310 721 1329 746 q 1279 672 1290 696 q 976 811 1122 732 q 689 1013 829 890 q 420 813 571 903 q 117 663 269 722 q 86 709 106 683 q 47 753 67 735 q 297 860 172 796 q 531 1003 422 924 q 713 1169 639 1082 z "},"伟":{"ha":1389,"x_min":60,"x_max":1308,"o":"m 382 1157 l 479 1128 q 415 973 450 1050 q 340 822 381 896 l 340 -108 l 240 -108 l 240 660 q 181 578 211 617 q 118 504 150 540 q 92 556 110 524 q 60 604 74 588 q 185 761 125 672 q 295 951 244 850 q 382 1157 346 1053 m 903 471 l 1308 471 q 1308 455 1308 471 q 1306 428 1307 439 q 1288 224 1297 303 q 1268 103 1279 146 q 1242 44 1257 61 q 1210 19 1228 26 q 1169 10 1193 13 q 1119 7 1151 7 q 1051 8 1088 7 q 1044 55 1050 29 q 1026 100 1038 81 q 1087 95 1060 96 q 1126 94 1114 94 q 1164 107 1151 94 q 1187 183 1176 124 q 1207 374 1197 243 l 903 374 l 903 -106 l 804 -106 l 804 374 l 425 374 l 425 471 l 804 471 l 804 631 l 501 631 l 501 726 l 804 726 l 804 881 l 467 881 l 467 978 l 804 978 l 804 1161 l 903 1161 l 903 978 l 1274 978 l 1274 881 l 903 881 l 903 726 l 1233 726 l 1233 631 l 903 631 l 903 471 z "},"传":{"ha":1389,"x_min":29,"x_max":1319,"o":"m 372 1157 l 469 1126 q 326 828 408 974 l 326 -104 l 225 -104 l 225 671 q 158 583 193 625 q 89 506 124 542 q 63 556 81 524 q 29 606 44 588 q 161 760 97 672 q 279 950 225 849 q 372 1157 333 1051 m 1319 644 l 763 644 q 737 559 750 601 q 713 479 724 517 l 1156 479 l 1174 486 l 1244 440 q 1100 276 1182 368 q 939 96 1018 183 q 1023 30 983 63 q 1090 -31 1063 -3 l 1014 -107 q 916 -17 976 -67 q 787 85 856 33 q 653 176 718 136 l 726 239 q 792 198 758 219 q 860 153 826 176 q 967 270 913 210 q 1065 382 1021 331 l 572 382 q 613 503 592 436 q 657 644 635 571 l 408 644 l 408 740 l 686 740 q 709 823 697 781 q 732 906 721 865 l 488 906 l 488 1001 l 758 1001 q 778 1080 768 1042 q 796 1154 788 1118 l 899 1140 q 881 1073 890 1108 q 863 1001 872 1038 l 1257 1001 l 1257 906 l 836 906 q 814 822 826 864 q 790 740 801 781 l 1319 740 l 1319 644 z "},"伤":{"ha":1389,"x_min":32,"x_max":1288,"o":"m 375 1160 l 474 1129 q 406 972 443 1050 q 325 821 368 894 l 325 -104 l 226 -104 l 226 669 q 160 583 194 625 q 92 506 126 542 q 66 558 85 525 q 32 608 47 590 q 164 763 100 675 q 282 953 228 851 q 375 1160 336 1054 m 867 590 l 1256 590 q 1256 572 1256 590 q 1254 543 1256 554 q 1240 231 1249 349 q 1220 51 1232 113 q 1189 -33 1208 -10 q 1147 -65 1171 -56 q 1092 -78 1124 -75 q 1007 -80 1061 -81 q 893 -76 953 -79 q 883 -26 892 -53 q 861 19 875 0 q 976 13 922 14 q 1050 11 1029 11 q 1081 15 1069 11 q 1103 29 1093 18 q 1126 92 1117 43 q 1142 239 1135 142 q 1154 494 1149 336 l 856 494 q 799 253 839 367 q 683 47 758 140 q 482 -111 607 -46 q 452 -69 472 -92 q 415 -33 432 -47 q 598 104 529 24 q 703 284 667 185 q 756 494 740 383 l 479 494 l 479 590 l 767 590 q 775 691 772 640 q 779 793 778 742 l 881 793 q 876 691 879 742 q 867 590 872 640 m 704 957 l 1288 957 l 1288 858 l 653 858 q 579 747 618 799 q 500 654 540 696 q 461 688 488 668 q 417 718 435 707 q 569 913 501 796 q 676 1158 636 1031 l 775 1136 q 743 1045 761 1090 q 704 957 725 1000 z "},"伦":{"ha":1389,"x_min":46,"x_max":1349,"o":"m 367 1160 l 464 1132 q 400 977 435 1054 q 325 826 365 900 l 325 -104 l 226 -104 l 226 665 q 167 583 197 622 q 104 508 136 543 q 77 559 96 526 q 46 610 58 592 q 169 765 110 676 q 280 954 229 853 q 367 1160 331 1056 m 778 13 l 1071 13 q 1126 27 1108 13 q 1153 83 1144 42 q 1165 204 1161 124 q 1210 180 1183 190 q 1258 165 1238 169 q 1235 16 1251 69 q 1181 -59 1218 -37 q 1076 -81 1144 -81 l 772 -81 q 653 -67 696 -81 q 592 -18 610 -53 q 575 81 575 17 l 575 654 l 676 654 l 676 363 q 823 433 747 394 q 969 511 899 471 q 1094 589 1040 551 l 1161 501 q 1008 415 1092 460 q 838 331 924 371 q 676 261 753 292 l 676 81 q 695 26 676 39 q 778 13 714 13 m 840 1169 l 950 1149 q 933 1116 942 1133 q 914 1081 924 1099 q 1038 923 965 1001 q 1192 779 1111 844 q 1349 671 1272 714 q 1310 633 1331 657 q 1276 590 1289 610 q 1131 699 1206 635 q 988 840 1057 764 q 860 996 918 917 q 678 772 785 882 q 429 574 571 663 q 399 615 419 592 q 361 651 379 639 q 574 811 481 724 q 735 992 668 899 q 840 1169 801 1085 z "},"伪":{"ha":1389,"x_min":39,"x_max":1279,"o":"m 700 892 l 608 844 q 553 939 590 885 q 478 1038 515 993 l 564 1078 q 642 983 603 1036 q 700 892 681 931 m 379 1157 l 479 1126 q 413 977 450 1051 q 336 833 376 903 l 336 -104 l 238 -104 l 238 679 q 99 511 171 586 q 72 563 90 531 q 39 611 54 594 q 170 765 107 678 q 287 953 233 853 q 379 1157 340 1053 m 857 803 l 1279 803 q 1278 782 1279 803 q 1278 751 1278 761 q 1262 410 1269 550 q 1244 179 1254 269 q 1222 38 1235 89 q 1190 -36 1208 -12 q 1144 -74 1168 -62 q 1086 -87 1121 -85 q 999 -90 1053 -92 q 885 -86 944 -89 q 874 -35 882 -62 q 851 14 865 -7 q 967 8 914 8 q 1042 7 1019 7 q 1074 10 1061 7 q 1097 28 1088 14 q 1130 119 1117 49 q 1153 331 1143 190 q 1172 701 1164 472 l 846 701 q 787 404 829 553 q 663 126 744 256 q 449 -99 582 -3 q 413 -59 436 -79 q 371 -26 390 -39 q 572 175 496 57 q 688 428 647 293 q 744 701 728 564 l 440 701 l 440 803 l 754 803 q 764 985 763 897 q 767 1150 765 1074 l 871 1150 q 867 983 869 1071 q 857 803 865 896 m 1088 301 l 997 249 q 955 325 982 282 q 895 412 928 368 q 831 493 863 456 l 914 540 q 981 460 947 504 q 1042 375 1014 417 q 1088 301 1071 333 z "},"伯":{"ha":1389,"x_min":51,"x_max":1219,"o":"m 386 1158 l 485 1135 q 422 957 458 1044 q 343 788 385 869 l 343 -108 l 242 -108 l 242 619 q 181 538 213 576 q 115 464 149 500 q 86 511 106 482 q 51 556 67 540 q 248 822 161 663 q 386 1158 335 982 m 611 64 l 1115 64 l 1115 393 l 611 393 l 611 64 m 1115 814 l 611 814 l 611 494 l 1115 494 l 1115 814 m 840 911 l 1219 911 l 1219 -93 l 1115 -93 l 1115 -39 l 611 -39 l 611 -103 l 510 -103 l 510 911 l 735 911 q 776 1038 757 969 q 808 1163 796 1107 l 928 1143 q 885 1025 908 1086 q 840 911 863 964 z "},"估":{"ha":1389,"x_min":31,"x_max":1329,"o":"m 374 1157 l 471 1126 q 325 822 410 971 l 325 -104 l 226 -104 l 226 672 q 160 583 194 625 q 89 504 125 542 q 64 556 82 524 q 31 606 46 588 q 163 760 99 672 q 281 950 226 849 q 374 1157 335 1051 m 1140 51 l 1140 379 l 633 379 l 633 51 l 1140 51 m 1329 758 l 935 758 l 935 476 l 1244 476 l 1244 -101 l 1140 -101 l 1140 -47 l 633 -47 l 633 -107 l 532 -107 l 532 476 l 831 476 l 831 758 l 453 758 l 453 858 l 831 858 l 831 1163 l 935 1163 l 935 858 l 1329 858 l 1329 758 z "},"伴":{"ha":1389,"x_min":32,"x_max":1332,"o":"m 1160 1101 l 1264 1064 q 1183 904 1226 988 q 1104 763 1140 821 l 1021 796 q 1071 890 1044 836 q 1121 999 1097 943 q 1160 1101 1144 1056 m 708 800 l 614 761 q 587 851 606 800 q 544 956 568 901 q 493 1057 519 1010 l 579 1090 q 632 992 607 1044 q 678 889 657 939 q 708 800 699 839 m 388 1158 l 483 1129 q 342 843 424 979 l 342 -101 l 244 -101 l 244 694 q 90 511 169 590 q 65 560 83 528 q 32 611 46 593 q 169 765 103 678 q 291 953 235 853 q 388 1158 347 1054 m 1332 382 l 1332 285 l 919 285 l 919 -106 l 815 -106 l 815 285 l 418 285 l 418 382 l 815 382 l 815 624 l 475 624 l 475 721 l 815 721 l 815 1146 l 919 1146 l 919 721 l 1272 721 l 1272 624 l 919 624 l 919 382 l 1332 382 z "},"伶":{"ha":1389,"x_min":32,"x_max":1354,"o":"m 388 1158 l 483 1129 q 342 843 424 979 l 342 -101 l 244 -101 l 244 694 q 90 511 169 590 q 65 560 83 528 q 32 611 46 593 q 169 765 103 678 q 291 953 235 853 q 388 1158 347 1054 m 1240 513 l 1240 144 q 1229 80 1240 104 q 1186 44 1218 56 q 1099 30 1153 32 q 964 28 1046 28 q 950 77 960 50 q 931 124 940 104 q 1044 122 994 122 q 1113 122 1094 121 q 1133 128 1128 124 q 1139 146 1139 132 l 1139 418 l 822 418 l 822 -107 l 722 -107 l 722 418 l 442 418 l 442 513 l 1240 513 m 800 1151 l 899 1151 q 1030 989 954 1069 q 1190 840 1106 908 q 1354 726 1274 772 q 1322 683 1339 708 q 1293 636 1306 657 q 1124 761 1208 689 l 1124 671 l 606 671 l 606 764 l 1121 764 q 973 906 1043 831 q 854 1051 903 982 q 744 905 811 982 q 594 756 676 828 q 424 629 513 685 q 398 673 414 649 q 367 714 382 697 q 540 840 456 767 q 692 994 624 913 q 800 1151 760 1076 z "},"伸":{"ha":1389,"x_min":28,"x_max":1300,"o":"m 371 1157 l 467 1128 q 324 828 408 975 l 324 -103 l 226 -103 l 226 676 q 158 586 193 629 q 86 506 122 543 q 60 556 78 524 q 28 606 43 589 q 160 760 96 672 q 278 950 224 849 q 371 1157 332 1051 m 922 374 l 1200 374 l 1200 567 l 922 567 l 922 374 m 551 374 l 821 374 l 821 567 l 551 567 l 551 374 m 821 850 l 551 850 l 551 658 l 821 658 l 821 850 m 1200 850 l 922 850 l 922 658 l 1200 658 l 1200 850 m 922 943 l 1300 943 l 1300 215 l 1200 215 l 1200 278 l 922 278 l 922 -104 l 821 -104 l 821 278 l 551 278 l 551 206 l 454 206 l 454 943 l 821 943 l 821 1156 l 922 1156 l 922 943 z "},"伺":{"ha":1389,"x_min":31,"x_max":1278,"o":"m 369 1157 l 464 1126 q 401 976 436 1051 q 325 831 365 901 l 325 -103 l 225 -103 l 225 674 q 158 584 193 626 q 89 504 124 542 q 63 556 81 524 q 31 606 44 588 q 161 760 99 672 q 278 950 224 849 q 369 1157 332 1051 m 1078 854 l 1078 763 l 463 763 l 463 854 l 1078 854 m 899 536 l 614 536 l 614 267 l 899 267 l 899 536 m 994 176 l 614 176 l 614 81 l 518 81 l 518 626 l 994 626 l 994 176 m 1278 1088 l 1278 31 q 1264 -46 1278 -18 q 1215 -86 1250 -74 q 1119 -103 1181 -100 q 961 -106 1058 -106 q 948 -53 958 -85 q 926 -1 938 -22 q 1060 -3 1000 -3 q 1140 -3 1119 -4 q 1167 6 1160 -1 q 1175 32 1175 14 l 1175 993 l 479 993 l 479 1088 l 1278 1088 z "},"似":{"ha":1389,"x_min":28,"x_max":1354,"o":"m 999 660 l 907 615 q 865 717 893 660 q 801 835 836 775 q 731 946 767 894 l 817 985 q 890 874 854 933 q 954 760 925 815 q 999 660 983 704 m 371 1157 l 467 1128 q 324 828 408 975 l 324 -103 l 226 -103 l 226 676 q 158 586 193 629 q 86 506 122 543 q 60 556 78 524 q 28 606 43 589 q 160 760 96 672 q 278 950 224 849 q 371 1157 332 1051 m 879 386 l 899 297 q 653 199 776 249 q 429 113 529 150 l 386 213 q 454 234 418 222 q 531 260 490 246 l 524 1082 l 622 1083 l 631 296 q 754 340 692 317 q 879 386 817 364 m 1354 -32 l 1274 -107 q 1215 -17 1251 -68 q 1138 89 1179 33 q 1054 196 1096 144 q 871 17 981 93 q 606 -115 761 -58 q 576 -70 597 -99 q 539 -24 556 -42 q 846 127 728 35 q 1030 355 964 219 q 1125 676 1096 490 q 1163 1106 1154 861 l 1268 1101 q 1222 633 1257 833 q 1110 285 1188 432 q 1201 174 1154 232 q 1288 63 1247 117 q 1354 -32 1329 8 z "},"佃":{"ha":1389,"x_min":29,"x_max":1268,"o":"m 371 1157 l 467 1126 q 321 822 406 971 l 321 -104 l 222 -104 l 222 671 q 86 507 156 579 q 61 557 79 525 q 29 606 43 589 q 161 762 97 674 q 278 951 225 850 q 371 1157 332 1051 m 925 78 l 1167 78 l 1167 485 l 925 485 l 925 78 m 596 485 l 596 78 l 825 78 l 825 485 l 596 485 m 825 981 l 596 981 l 596 585 l 825 585 l 825 981 m 1167 585 l 1167 981 l 925 981 l 925 585 l 1167 585 m 497 1081 l 1268 1081 l 1268 -94 l 1167 -94 l 1167 -24 l 596 -24 l 596 -107 l 497 -107 l 497 1081 z "},"但":{"ha":1389,"x_min":43,"x_max":1336,"o":"m 1111 694 l 1111 965 l 651 965 l 651 694 l 1111 694 m 1111 321 l 1111 599 l 651 599 l 651 321 l 1111 321 m 1219 1063 l 1219 224 l 546 224 l 546 1063 l 1219 1063 m 389 1157 l 489 1125 q 422 974 458 1049 q 344 828 386 899 l 344 -104 l 243 -104 l 243 671 q 174 581 210 624 q 103 501 139 539 q 76 555 94 521 q 43 607 58 589 q 176 761 113 674 q 295 950 240 849 q 389 1157 350 1051 m 429 46 l 1336 46 l 1336 -51 l 429 -51 l 429 46 z "},"位":{"ha":1389,"x_min":32,"x_max":1335,"o":"m 457 890 l 817 890 l 817 1146 l 921 1146 l 921 890 l 1300 890 l 1300 793 l 457 793 l 457 890 m 776 143 l 675 121 q 656 287 671 190 q 619 488 640 383 q 572 683 597 592 l 664 700 q 714 506 690 608 q 754 308 738 403 q 776 143 771 213 m 388 1158 l 483 1128 q 418 983 454 1056 q 342 842 382 911 l 342 -101 l 244 -101 l 244 693 q 170 597 208 643 q 92 513 132 551 q 65 563 83 531 q 32 614 46 596 q 169 766 103 679 q 291 953 235 853 q 388 1158 347 1054 m 1003 56 l 1335 56 l 1335 -42 l 424 -42 l 424 56 l 903 56 q 951 203 926 121 q 999 374 976 285 q 1042 550 1022 463 q 1075 713 1061 638 l 1186 693 q 1132 476 1163 590 q 1068 251 1101 361 q 1003 56 1035 142 z "},"低":{"ha":1389,"x_min":28,"x_max":1353,"o":"m 371 1157 l 467 1128 q 324 828 408 975 l 324 -103 l 226 -103 l 226 676 q 158 586 193 629 q 86 506 122 543 q 60 556 78 524 q 28 606 43 589 q 160 760 96 672 q 278 950 224 849 q 371 1157 332 1051 m 456 -69 l 456 22 l 1044 22 l 1044 -69 l 456 -69 m 608 678 l 903 678 q 886 954 889 811 q 747 933 817 943 q 608 915 676 924 l 608 678 m 1328 585 l 1014 585 q 1068 305 1035 426 q 1142 116 1101 183 q 1224 49 1182 49 q 1257 94 1246 49 q 1272 240 1268 139 q 1311 208 1288 224 q 1353 186 1335 193 q 1331 41 1346 93 q 1288 -32 1315 -11 q 1215 -53 1260 -53 q 1078 31 1138 -53 q 977 258 1018 114 q 913 585 936 401 l 608 585 l 608 229 q 765 256 683 242 q 929 286 847 271 l 933 194 q 672 144 803 169 q 438 101 540 119 l 415 197 l 508 213 l 508 1021 l 576 999 q 800 1031 688 1013 q 1013 1071 913 1049 q 1182 1117 1113 1093 l 1263 1038 q 1135 1003 1204 1019 q 989 972 1065 988 q 994 822 990 896 q 1004 678 999 747 l 1328 678 l 1328 585 z "},"住":{"ha":1389,"x_min":32,"x_max":1332,"o":"m 388 1158 l 483 1129 q 342 843 424 979 l 342 -101 l 244 -101 l 244 694 q 90 511 169 590 q 65 560 83 528 q 32 611 46 593 q 169 765 103 678 q 291 953 235 853 q 388 1158 347 1054 m 942 40 l 1332 40 l 1332 -58 l 438 -58 l 438 40 l 839 40 l 839 388 l 519 388 l 519 486 l 839 486 l 839 790 l 474 790 l 474 888 l 947 888 q 865 956 914 919 q 762 1028 815 992 q 660 1092 708 1064 l 728 1165 q 838 1099 779 1136 q 948 1025 896 1063 q 1033 956 1000 988 l 974 888 l 1311 888 l 1311 790 l 942 790 l 942 486 l 1271 486 l 1271 388 l 942 388 l 942 40 z "},"佐":{"ha":1389,"x_min":32,"x_max":1333,"o":"m 388 1158 l 483 1129 q 342 843 424 979 l 342 -101 l 244 -101 l 244 694 q 90 511 169 590 q 65 560 83 528 q 32 611 46 593 q 169 765 103 678 q 291 953 235 853 q 388 1158 347 1054 m 1333 782 l 779 782 q 744 648 763 714 q 704 521 726 582 l 1301 521 l 1301 426 l 1018 426 l 1018 36 l 1329 36 l 1329 -62 l 571 -62 l 571 36 l 917 36 l 917 426 l 683 426 l 683 464 q 572 225 635 335 q 428 26 510 115 q 390 67 415 42 q 346 106 365 92 q 544 399 465 226 q 672 782 622 572 l 417 782 l 417 879 l 694 879 q 720 1013 708 944 q 742 1151 732 1081 l 847 1139 q 826 1007 838 1072 q 801 879 814 942 l 1333 879 l 1333 782 z "},"佑":{"ha":1389,"x_min":31,"x_max":1332,"o":"m 386 1161 l 483 1131 q 342 846 425 988 l 342 -104 l 243 -104 l 243 696 q 168 599 207 644 q 89 514 129 554 q 64 565 82 532 q 31 615 46 597 q 167 768 101 681 q 290 956 233 856 q 386 1161 346 1057 m 1167 419 l 735 419 l 735 82 l 1167 82 l 1167 419 m 1332 792 l 821 792 q 772 650 799 719 q 711 515 744 581 l 1268 515 l 1268 -89 l 1167 -89 l 1167 -15 l 735 -15 l 735 -101 l 635 -101 l 635 383 q 544 265 593 321 q 438 163 496 208 q 405 202 425 178 q 369 240 385 226 q 579 487 496 343 q 714 792 663 631 l 422 792 l 422 892 l 743 892 q 797 1158 776 1025 l 903 1142 q 879 1017 893 1081 q 849 892 865 954 l 1332 892 l 1332 792 z "},"体":{"ha":1389,"x_min":49,"x_max":1347,"o":"m 353 1157 l 449 1128 q 392 980 424 1054 q 325 835 361 906 l 325 -104 l 226 -104 l 226 664 q 108 504 171 578 q 81 555 100 522 q 49 606 63 588 q 166 762 110 674 q 270 951 222 850 q 353 1157 318 1053 m 1319 783 l 972 783 q 1073 557 1014 668 q 1202 353 1132 446 q 1347 200 1272 261 q 1306 163 1329 186 q 1269 118 1283 139 q 1130 281 1197 185 q 1006 492 1063 378 q 906 726 949 606 l 906 244 l 1129 244 l 1129 150 l 906 150 l 906 -99 l 806 -99 l 806 150 l 579 150 l 579 244 l 806 244 l 806 717 q 703 484 761 597 q 578 276 646 371 q 438 115 511 182 q 402 156 424 133 q 363 193 381 179 q 510 348 439 254 q 640 554 581 442 q 743 783 700 667 l 417 783 l 417 883 l 806 883 l 806 1157 l 906 1157 l 906 883 l 1319 883 l 1319 783 z "},"何":{"ha":1389,"x_min":58,"x_max":1332,"o":"m 374 1161 l 469 1131 q 413 990 443 1061 q 346 851 382 919 l 346 -104 l 244 -104 l 244 682 q 181 592 214 635 q 115 514 149 550 q 90 565 108 532 q 58 614 71 597 q 181 769 122 682 q 289 958 239 857 q 374 1161 339 1058 m 850 642 l 611 642 l 611 349 l 850 349 l 850 642 m 946 257 l 611 257 l 611 161 l 513 161 l 513 733 l 946 733 l 946 257 m 1332 1028 l 1332 928 l 1231 928 l 1231 36 q 1215 -46 1231 -19 q 1163 -85 1199 -72 q 1055 -101 1124 -97 q 885 -104 986 -104 q 870 -51 882 -82 q 847 1 858 -21 q 999 -1 931 -1 q 1090 0 1068 -1 q 1121 8 1113 1 q 1129 36 1129 15 l 1129 928 l 472 928 l 472 1028 l 1332 1028 z "},"佘":{"ha":1389,"x_min":51,"x_max":1342,"o":"m 369 332 l 467 303 q 339 125 415 211 q 185 -19 263 39 q 146 16 171 -4 q 103 46 121 36 q 253 174 181 99 q 369 332 325 250 m 1231 403 l 743 403 l 743 4 q 731 -58 743 -36 q 689 -90 719 -79 q 607 -104 658 -101 q 479 -107 556 -107 q 463 -60 474 -86 q 442 -17 453 -35 q 549 -18 501 -18 q 613 -17 597 -18 q 640 7 640 -17 l 640 403 l 158 403 l 158 496 l 1231 496 l 1231 403 m 388 725 l 1007 725 l 1007 633 l 388 633 l 388 725 m 901 292 l 985 339 q 1090 246 1035 297 q 1193 144 1144 194 q 1272 54 1242 94 l 1183 1 q 1108 92 1156 40 q 1007 196 1061 143 q 901 292 953 249 m 633 1154 l 733 1154 q 908 967 807 1057 q 1121 804 1008 876 q 1342 685 1233 732 q 1306 642 1324 667 q 1276 594 1289 617 q 1060 724 1171 649 q 851 887 949 800 q 689 1060 754 974 q 542 892 632 979 q 341 726 451 806 q 113 588 231 647 q 85 628 103 604 q 51 668 68 653 q 285 807 172 726 q 488 978 397 888 q 633 1154 579 1068 z "},"余":{"ha":1389,"x_min":57,"x_max":1338,"o":"m 369 286 l 465 253 q 369 140 424 196 q 257 34 315 83 q 143 -53 199 -15 q 106 -17 131 -39 q 64 17 82 4 q 232 138 150 67 q 369 286 314 210 m 1265 374 l 743 374 l 743 18 q 730 -51 743 -26 q 685 -89 717 -76 q 599 -103 653 -100 q 463 -106 544 -107 q 447 -56 458 -85 q 422 -8 435 -26 q 538 -10 485 -10 q 607 -10 590 -10 q 631 -3 624 -8 q 638 18 638 3 l 638 374 l 136 374 l 136 469 l 638 469 l 638 646 l 331 646 l 331 736 q 226 670 279 701 q 119 611 174 639 q 92 654 110 631 q 57 694 74 678 q 286 827 175 750 q 488 990 397 904 q 632 1158 578 1076 l 735 1158 q 908 979 808 1065 q 1119 824 1008 893 q 1338 710 1231 754 q 1301 667 1319 692 q 1271 619 1283 642 q 1057 743 1167 671 q 851 898 947 815 q 689 1063 754 981 q 538 899 629 983 q 335 739 446 814 l 1049 739 l 1049 646 l 743 646 l 743 469 l 1265 469 l 1265 374 m 903 240 l 985 294 q 1102 202 1042 253 q 1216 101 1163 151 q 1303 8 1269 50 l 1215 -56 q 1131 38 1183 -14 q 1019 144 1079 90 q 903 240 960 197 z "},"佛":{"ha":1389,"x_min":28,"x_max":1308,"o":"m 371 1157 l 467 1128 q 324 828 408 975 l 324 -103 l 226 -103 l 226 676 q 158 586 193 629 q 86 506 122 543 q 60 556 78 524 q 28 606 43 589 q 160 760 96 672 q 278 950 224 849 q 371 1157 332 1051 m 764 435 l 925 435 l 925 596 l 765 596 l 765 521 q 765 477 765 499 q 764 435 765 456 m 508 435 l 671 435 q 672 477 672 456 q 672 521 672 499 l 672 596 l 538 596 q 523 515 531 556 q 508 435 515 474 m 765 868 l 765 686 l 925 686 l 925 868 l 765 868 m 1175 868 l 1017 868 l 1017 686 l 1175 686 l 1175 868 m 1017 435 l 1308 435 q 1308 420 1308 435 q 1307 394 1308 406 q 1294 163 1301 235 q 1268 67 1286 90 q 1239 44 1254 51 q 1200 35 1224 38 q 1147 33 1181 33 q 1075 35 1113 33 q 1068 79 1074 54 q 1053 121 1063 104 q 1114 116 1086 117 q 1154 115 1142 115 q 1175 117 1165 115 q 1190 126 1185 119 q 1205 188 1200 139 q 1214 344 1210 236 l 1017 344 l 1017 -104 l 925 -104 l 925 344 l 756 344 q 713 169 744 253 q 619 16 682 86 q 451 -110 557 -54 q 420 -74 440 -94 q 385 -42 400 -53 q 535 67 478 7 q 621 198 592 128 q 661 344 650 268 l 490 344 q 484 317 488 331 q 478 292 481 303 l 385 297 q 413 415 399 349 q 440 553 426 482 q 461 686 453 625 l 672 686 l 672 868 l 436 868 l 436 957 l 672 957 l 672 1146 l 765 1146 l 765 957 l 925 957 l 925 1146 l 1017 1146 l 1017 957 l 1268 957 l 1268 596 l 1017 596 l 1017 435 z "},"作":{"ha":1389,"x_min":56,"x_max":1331,"o":"m 399 1157 l 497 1125 q 433 975 469 1050 q 356 828 396 900 l 356 -104 l 253 -104 l 253 668 q 186 581 221 622 q 115 503 151 539 q 100 535 111 515 q 77 574 89 554 q 56 606 65 594 q 188 760 125 672 q 306 950 251 849 q 399 1157 360 1051 m 1331 832 l 903 832 l 903 633 l 1299 633 l 1299 538 l 903 538 l 903 328 l 1318 328 l 1318 231 l 903 231 l 903 -106 l 799 -106 l 799 832 l 703 832 q 506 543 611 661 q 468 578 493 557 q 425 613 443 600 q 544 763 488 678 q 649 945 601 847 q 731 1144 697 1043 l 829 1118 q 793 1024 813 1071 q 753 931 774 976 l 1331 931 l 1331 832 z "},"你":{"ha":1389,"x_min":28,"x_max":1326,"o":"m 371 1157 l 468 1128 q 401 976 438 1051 q 325 831 365 901 l 325 -103 l 226 -103 l 226 676 q 158 586 193 629 q 86 504 122 543 q 60 556 78 524 q 28 606 43 588 q 160 760 96 672 q 278 950 224 849 q 371 1157 332 1051 m 624 571 l 725 551 q 639 290 692 415 q 522 79 586 165 q 481 109 508 92 q 433 136 453 126 q 547 332 499 215 q 624 571 596 449 m 1211 800 l 950 800 l 950 19 q 940 -49 950 -24 q 901 -86 929 -74 q 828 -103 874 -100 q 718 -107 783 -107 q 703 -55 714 -85 q 682 -3 693 -25 q 771 -4 731 -4 q 825 -4 811 -4 q 849 19 849 -4 l 849 800 l 638 800 q 503 561 578 658 q 464 594 490 572 q 421 626 438 615 q 556 863 497 722 q 649 1156 614 1004 l 750 1133 q 676 896 718 1013 l 1239 896 l 1256 900 l 1326 883 q 1296 726 1313 807 q 1265 589 1279 644 l 1179 606 q 1194 695 1186 643 q 1211 800 1203 747 m 1051 551 l 1142 582 q 1217 425 1182 508 q 1278 262 1251 342 q 1315 118 1304 182 l 1217 85 q 1181 229 1206 149 q 1122 394 1156 310 q 1051 551 1089 479 z "},"佣":{"ha":1389,"x_min":28,"x_max":1288,"o":"m 371 1157 l 468 1126 q 401 975 438 1050 q 325 829 365 900 l 325 -104 l 226 -104 l 226 676 q 158 586 193 629 q 86 504 122 543 q 60 556 78 524 q 28 606 43 588 q 160 760 96 672 q 278 950 224 849 q 371 1157 332 1051 m 938 418 l 1189 418 l 1189 643 l 938 643 l 938 418 m 599 418 l 839 418 l 839 643 l 603 643 l 603 560 q 599 418 603 493 m 839 963 l 603 963 l 603 735 l 839 735 l 839 963 m 1189 735 l 1189 963 l 938 963 l 938 735 l 1189 735 m 1288 1056 l 1288 18 q 1277 -49 1288 -25 q 1239 -86 1267 -72 q 1164 -101 1211 -99 q 1046 -104 1117 -104 q 1034 -56 1043 -85 q 1015 -7 1025 -28 q 1108 -9 1067 -8 q 1163 -8 1149 -10 q 1189 19 1189 -8 l 1189 326 l 938 326 l 938 -92 l 839 -92 l 839 326 l 590 326 q 542 94 576 210 q 439 -111 508 -21 q 402 -75 426 -96 q 361 -46 378 -54 q 456 145 426 40 q 495 358 486 250 q 504 560 504 465 l 504 1056 l 1288 1056 z "},"佩":{"ha":1389,"x_min":44,"x_max":1336,"o":"m 304 1154 l 396 1129 q 353 989 378 1060 q 300 850 328 918 l 300 -104 l 207 -104 l 207 657 q 153 569 181 611 q 99 489 126 526 q 76 541 93 507 q 44 593 58 575 q 195 846 128 697 q 304 1154 263 994 m 596 781 l 596 865 l 1056 865 l 1056 781 l 875 781 l 875 633 l 1044 633 l 1044 161 q 1039 119 1044 135 q 1017 94 1033 104 q 977 82 1001 85 q 921 79 953 79 q 894 149 914 115 l 963 149 q 975 161 975 149 l 975 568 l 865 568 l 865 -92 l 794 -92 l 794 568 l 679 568 l 679 76 l 610 76 l 610 633 l 785 633 l 785 781 l 596 781 m 450 1092 l 1210 1092 q 1207 753 1208 915 q 1207 452 1206 590 q 1213 211 1208 314 q 1228 51 1218 108 q 1256 -7 1238 -7 q 1269 26 1264 -7 q 1276 113 1274 58 q 1278 228 1278 167 q 1307 194 1290 211 q 1336 165 1324 176 q 1324 6 1332 64 q 1297 -78 1315 -53 q 1246 -103 1279 -103 q 1167 -23 1193 -103 q 1131 204 1140 57 q 1120 554 1121 351 q 1119 1003 1119 757 l 538 1003 l 538 713 q 533 521 538 625 q 516 306 529 417 q 478 89 503 194 q 413 -107 453 -17 q 377 -78 401 -94 q 338 -56 353 -61 q 399 130 376 31 q 432 332 421 229 q 447 532 443 435 q 450 713 450 629 l 450 1092 z "},"佳":{"ha":1389,"x_min":61,"x_max":1328,"o":"m 824 686 l 824 883 l 525 883 l 525 981 l 824 981 l 824 1163 l 926 1163 l 926 981 l 1238 981 l 1238 883 l 926 883 l 926 686 l 1300 686 l 1300 588 l 457 588 l 457 686 l 824 686 m 375 1157 l 472 1129 q 410 975 444 1051 q 338 825 376 899 l 338 -107 l 236 -107 l 236 657 q 178 577 208 615 q 119 504 149 539 q 92 556 111 524 q 61 606 74 588 q 183 762 125 674 q 291 951 242 850 q 375 1157 340 1053 m 926 44 l 1328 44 l 1328 -56 l 413 -56 l 413 44 l 824 44 l 824 276 l 496 276 l 496 374 l 824 374 l 824 532 l 926 532 l 926 374 l 1261 374 l 1261 276 l 926 276 l 926 44 z "},"使":{"ha":1389,"x_min":32,"x_max":1344,"o":"m 388 1165 l 485 1135 q 419 989 456 1063 q 342 846 382 915 l 342 -112 l 243 -112 l 243 697 q 168 601 207 646 q 90 517 129 556 q 65 567 83 535 q 32 617 47 600 q 169 771 103 683 q 291 960 235 858 q 388 1165 347 1061 m 583 485 l 829 485 q 831 516 831 500 q 831 547 831 532 l 831 690 l 583 690 l 583 485 m 1188 690 l 932 690 l 932 547 q 932 516 932 532 q 931 485 932 500 l 1188 485 l 1188 690 m 1286 397 l 925 397 q 896 258 917 325 q 833 131 875 192 q 1067 38 938 74 q 1344 -17 1197 1 q 1311 -60 1328 -33 q 1283 -110 1294 -86 q 1008 -47 1136 -87 q 772 58 879 -6 q 644 -36 721 7 q 458 -111 567 -79 q 431 -67 450 -94 q 396 -25 413 -40 q 569 37 499 1 q 689 115 640 72 q 488 340 564 208 l 574 368 q 649 268 606 314 q 749 183 693 222 q 799 286 782 232 q 824 397 817 340 l 488 397 l 488 778 l 831 778 l 831 914 l 447 914 l 447 1008 l 831 1008 l 831 1156 l 932 1156 l 932 1008 l 1332 1008 l 1332 914 l 932 914 l 932 778 l 1286 778 l 1286 397 z "},"侄":{"ha":1389,"x_min":32,"x_max":1336,"o":"m 472 686 l 615 692 q 684 831 649 753 q 744 981 719 910 l 496 981 l 496 1074 l 1308 1074 l 1308 981 l 863 981 q 794 835 831 911 q 721 696 757 760 q 917 705 815 700 q 1122 715 1018 710 q 992 869 1058 799 l 1071 917 q 1172 804 1121 865 q 1267 683 1224 743 q 1336 576 1311 624 l 1250 522 q 1222 573 1239 546 q 1185 629 1206 600 q 932 613 1058 621 q 690 599 806 606 q 481 589 575 593 l 472 686 m 388 1158 l 483 1129 q 342 843 424 979 l 342 -104 l 244 -104 l 244 694 q 90 511 169 590 q 65 560 83 528 q 32 611 46 593 q 169 765 103 678 q 291 953 235 853 q 388 1158 347 1054 m 932 299 l 932 43 l 1329 43 l 1329 -53 l 439 -53 l 439 43 l 832 43 l 832 299 l 515 299 l 515 392 l 832 392 l 832 571 l 932 571 l 932 392 l 1254 392 l 1254 299 l 932 299 z "},"侈":{"ha":1389,"x_min":28,"x_max":1325,"o":"m 371 1157 l 467 1128 q 324 828 408 975 l 324 -103 l 226 -103 l 226 676 q 158 586 193 629 q 86 506 122 543 q 60 556 78 524 q 28 606 43 589 q 160 760 96 672 q 278 950 224 849 q 371 1157 332 1051 m 1090 957 l 763 957 q 729 929 746 943 q 693 900 713 915 q 802 830 746 869 q 900 754 858 790 q 1006 849 957 799 q 1090 957 1054 900 m 1164 1049 l 1231 1011 q 1097 808 1179 897 q 910 649 1014 718 q 691 533 807 581 q 456 454 575 485 q 433 497 449 474 q 404 535 418 521 q 617 600 511 558 q 818 699 724 642 q 725 775 779 735 q 618 847 671 815 q 547 804 583 825 q 471 764 511 783 q 440 803 460 782 q 404 835 421 824 q 659 990 551 901 q 824 1158 767 1078 l 931 1138 q 893 1090 913 1114 q 851 1043 874 1067 l 1146 1043 l 1164 1049 m 1189 447 l 863 447 q 769 375 819 411 q 890 293 829 339 q 993 207 950 247 q 1104 315 1054 256 q 1189 447 1154 375 m 1258 539 l 1325 506 q 1189 261 1275 365 q 989 83 1103 157 q 743 -37 875 10 q 469 -112 611 -85 q 447 -66 461 -93 q 418 -22 432 -39 q 679 42 553 0 q 911 150 806 83 q 809 238 869 190 q 689 322 749 285 q 597 271 646 296 q 496 222 549 246 q 465 262 485 240 q 428 296 446 283 q 731 461 606 365 q 924 649 857 557 l 1035 625 q 956 533 1000 579 l 1239 533 l 1258 539 z "},"例":{"ha":1389,"x_min":31,"x_max":1283,"o":"m 326 1157 l 422 1131 q 311 856 376 989 l 311 -106 l 215 -106 l 215 676 q 152 578 185 625 q 85 492 119 532 q 60 544 78 511 q 31 596 43 578 q 145 756 90 665 q 247 949 200 846 q 326 1157 293 1051 m 778 713 l 589 713 q 565 636 578 674 q 536 563 551 599 q 630 495 582 532 q 711 426 678 458 q 778 713 754 553 m 428 999 l 428 1092 l 929 1092 l 929 999 l 653 999 q 635 902 644 951 q 614 803 625 853 l 806 803 l 824 806 l 883 788 q 733 228 843 451 q 464 -110 624 6 q 433 -67 454 -92 q 397 -31 413 -42 q 553 119 483 29 q 675 331 624 210 q 594 406 643 365 q 497 481 546 447 q 454 408 478 442 q 404 342 431 374 q 376 378 394 357 q 342 413 357 400 q 444 584 403 486 q 513 790 486 682 q 553 999 539 899 l 428 999 m 1028 1006 l 1028 210 l 936 210 l 936 1006 l 1028 1006 m 1189 1140 l 1283 1140 l 1283 24 q 1272 -49 1283 -24 q 1228 -87 1260 -75 q 1146 -103 1199 -100 q 1011 -107 1093 -107 q 998 -58 1007 -87 q 978 -7 989 -28 q 1090 -8 1040 -8 q 1157 -8 1140 -8 q 1182 -1 1175 -7 q 1189 24 1189 6 l 1189 1140 z "},"侍":{"ha":1389,"x_min":32,"x_max":1329,"o":"m 375 1157 l 472 1128 q 406 975 442 1051 q 328 826 369 899 l 328 -104 l 228 -104 l 228 669 q 161 582 196 624 q 92 504 126 540 q 65 556 83 524 q 32 604 47 588 q 164 760 100 672 q 282 950 228 849 q 375 1157 336 1051 m 550 283 l 636 331 q 703 251 669 294 q 765 167 738 208 q 808 90 793 125 l 717 39 q 676 115 703 72 q 616 203 649 158 q 550 283 583 247 m 1329 617 l 1126 617 l 1126 464 l 1321 464 l 1321 369 l 1126 369 l 1126 19 q 1114 -51 1126 -28 q 1068 -86 1101 -74 q 978 -101 1035 -99 q 839 -104 922 -104 q 824 -55 835 -82 q 803 -6 814 -28 q 922 -8 868 -7 q 993 -7 975 -8 q 1016 0 1010 -6 q 1022 19 1022 6 l 1022 369 l 440 369 l 440 464 l 1022 464 l 1022 617 l 421 617 l 421 713 l 822 713 l 822 889 l 507 889 l 507 983 l 822 983 l 822 1156 l 926 1156 l 926 983 l 1254 983 l 1254 889 l 926 889 l 926 713 l 1329 713 l 1329 617 z "},"供":{"ha":1389,"x_min":35,"x_max":1329,"o":"m 376 1158 l 474 1128 q 408 978 444 1053 q 332 831 372 903 l 332 -104 l 231 -104 l 231 675 q 164 585 199 628 q 93 507 129 543 q 67 558 85 525 q 35 608 49 590 q 167 763 103 675 q 284 953 231 851 q 376 1158 338 1054 m 672 249 l 771 218 q 647 42 719 128 q 506 -103 575 -43 q 467 -69 492 -89 q 424 -39 442 -49 q 562 92 494 15 q 672 249 629 168 m 986 199 l 1067 244 q 1163 147 1115 200 q 1250 42 1210 93 q 1314 -50 1290 -10 l 1226 -108 q 1165 -11 1204 -65 q 1078 98 1125 43 q 986 199 1032 153 m 744 767 l 744 428 l 1015 428 l 1015 767 l 744 767 m 1115 428 l 1329 428 l 1329 326 l 432 326 l 432 428 l 644 428 l 644 767 l 465 767 l 465 867 l 644 867 l 644 1146 l 744 1146 l 744 867 l 1015 867 l 1015 1147 l 1115 1147 l 1115 867 l 1313 867 l 1313 767 l 1115 767 l 1115 428 z "},"依":{"ha":1389,"x_min":25,"x_max":1357,"o":"m 376 1158 l 471 1129 q 406 981 442 1054 q 329 838 369 907 l 329 -101 l 232 -101 l 232 689 q 85 513 161 589 q 58 563 76 531 q 25 614 40 596 q 160 767 94 679 q 281 954 225 854 q 376 1158 336 1054 m 1249 679 l 1325 607 q 1185 494 1261 551 q 1040 392 1108 436 q 1173 156 1094 258 q 1357 -6 1251 53 q 1317 -45 1339 -19 q 1283 -92 1296 -71 q 1076 106 1161 -18 q 935 394 990 231 q 844 749 879 558 q 766 644 808 694 q 676 546 724 593 l 676 72 q 833 108 753 89 q 993 144 913 126 l 1001 50 q 802 2 903 26 q 609 -44 701 -22 q 440 -85 517 -67 l 408 15 q 488 32 444 22 q 579 51 532 42 l 579 457 q 408 332 496 386 q 376 374 397 347 q 338 417 354 401 q 576 588 463 486 q 768 811 690 690 l 392 811 l 392 908 l 807 908 l 807 1146 l 911 1146 l 911 908 l 1306 908 l 1306 811 l 928 811 q 963 636 943 722 q 1010 472 983 550 q 1138 576 1072 519 q 1249 679 1204 632 z "},"侠":{"ha":1389,"x_min":49,"x_max":1339,"o":"m 367 1161 l 463 1133 q 401 981 435 1057 q 328 833 367 904 l 328 -110 l 228 -110 l 228 668 q 168 585 199 625 q 106 511 138 546 q 79 561 97 528 q 49 611 61 594 q 172 767 113 679 q 281 956 231 856 q 367 1161 331 1057 m 1317 400 l 926 400 q 1083 139 981 249 q 1339 -21 1186 29 q 1301 -60 1321 -35 q 1271 -106 1282 -86 q 1028 53 1128 -51 q 868 300 929 157 q 728 78 825 185 q 449 -110 632 -28 q 417 -67 438 -93 q 378 -28 397 -42 q 599 96 515 28 q 728 242 683 164 q 793 400 774 319 l 415 400 l 415 496 l 810 496 q 815 579 814 538 q 817 661 817 621 l 817 867 l 461 867 l 461 964 l 817 964 l 817 1149 l 919 1149 l 919 964 l 1288 964 l 1288 867 l 919 867 l 919 660 q 918 579 919 621 q 911 496 917 538 l 1317 496 l 1317 400 m 511 790 l 597 819 q 658 690 629 760 q 697 571 686 619 l 604 536 q 569 659 596 588 q 511 790 542 731 m 1093 532 l 1017 564 q 1057 644 1036 599 q 1097 735 1078 689 q 1128 819 1115 782 l 1228 783 q 1160 650 1196 719 q 1093 532 1125 581 z "},"侣":{"ha":1389,"x_min":46,"x_max":1242,"o":"m 1092 731 l 1092 1014 l 638 1014 l 638 731 l 1092 731 m 1193 1107 l 1193 638 l 540 638 l 540 1107 l 1193 1107 m 343 1154 l 438 1128 q 388 991 415 1060 q 331 857 361 922 l 331 -107 l 229 -107 l 229 669 q 166 572 199 618 q 100 486 133 526 q 76 538 93 504 q 46 590 58 571 q 161 750 106 660 q 263 944 217 840 q 343 1154 310 1047 m 582 67 l 1136 67 l 1136 379 l 582 379 l 582 67 m 481 474 l 1242 474 l 1242 -94 l 1136 -94 l 1136 -28 l 582 -28 l 582 -103 l 481 -103 l 481 474 z "},"侥":{"ha":1389,"x_min":49,"x_max":1335,"o":"m 410 958 l 688 986 q 670 1072 678 1028 q 660 1161 663 1115 l 761 1161 q 772 1077 764 1118 q 789 996 779 1036 l 1254 1042 l 1263 950 l 817 906 q 903 746 854 815 q 1028 817 971 778 q 1126 901 1085 856 l 1218 864 q 1103 762 1169 808 q 960 676 1038 715 q 1058 601 1007 628 q 1160 576 1110 575 q 1203 606 1192 576 q 1219 713 1214 636 q 1303 672 1257 682 q 1278 556 1294 597 q 1232 499 1261 515 q 1157 482 1203 482 q 1003 522 1078 482 q 867 633 929 563 q 678 567 775 596 q 486 517 582 538 q 458 560 476 532 q 424 603 439 588 q 622 645 524 619 q 810 704 721 671 q 758 795 782 747 q 715 896 733 843 l 419 867 l 410 958 m 361 1160 l 457 1132 q 398 982 431 1056 q 328 836 365 908 l 328 -104 l 229 -104 l 229 672 q 169 585 200 626 q 106 508 138 544 q 79 561 97 526 q 49 614 61 596 q 225 859 143 714 q 361 1160 307 1004 m 1064 -1 l 1197 -1 q 1224 8 1215 -1 q 1238 49 1233 18 q 1243 142 1242 79 q 1286 119 1258 129 q 1335 103 1314 108 q 1316 -14 1329 28 q 1278 -72 1303 -56 q 1208 -87 1253 -87 l 1050 -87 q 940 -61 967 -87 q 913 38 913 -35 l 913 332 l 749 332 q 708 133 739 218 q 608 -11 676 49 q 414 -110 539 -71 q 388 -65 407 -90 q 353 -26 368 -40 q 522 52 463 4 q 609 169 582 100 q 644 332 636 239 l 382 332 l 382 424 l 1299 424 l 1299 332 l 1018 332 l 1018 39 q 1026 6 1018 14 q 1064 -1 1035 -1 z "},"侦":{"ha":1389,"x_min":40,"x_max":1313,"o":"m 606 675 l 606 203 l 511 203 l 511 768 l 779 768 l 779 1158 l 881 1158 l 881 1042 l 1275 1042 l 1275 947 l 881 947 l 881 768 l 1218 768 l 1218 206 l 1119 206 l 1119 675 l 606 675 m 383 1158 l 481 1131 q 416 979 453 1054 q 339 833 379 904 l 339 -104 l 240 -104 l 240 679 q 171 589 207 632 q 99 507 135 546 q 74 558 92 525 q 40 608 56 590 q 172 763 108 675 q 290 953 236 851 q 383 1158 344 1054 m 810 393 l 810 582 l 908 582 l 908 390 q 894 265 908 331 q 835 133 879 199 q 703 7 790 68 q 469 -104 615 -54 q 442 -62 461 -86 q 408 -24 424 -37 q 628 72 547 19 q 749 179 710 124 q 799 290 788 235 q 810 393 810 344 m 911 111 l 968 179 q 1092 116 1026 153 q 1217 41 1158 79 q 1313 -29 1275 3 l 1253 -107 q 1159 -34 1217 -74 q 1036 44 1101 6 q 911 111 971 82 z "},"侧":{"ha":1389,"x_min":42,"x_max":1278,"o":"m 492 996 l 492 214 l 408 214 l 408 1074 l 876 1074 l 876 217 l 790 217 l 790 996 l 492 996 m 285 1161 l 375 1138 q 333 1001 357 1069 q 285 865 310 932 l 285 -103 l 199 -103 l 199 672 q 149 581 174 625 q 96 499 124 538 q 73 547 90 517 q 42 596 56 578 q 183 852 119 703 q 285 1161 246 1001 m 681 901 l 681 432 q 672 289 681 363 q 635 144 663 215 q 557 8 608 72 q 421 -107 506 -57 q 396 -74 414 -93 q 367 -46 378 -56 q 522 98 472 18 q 586 264 571 178 q 601 433 601 350 l 601 901 l 681 901 m 665 142 l 728 182 q 796 106 761 147 q 861 26 831 65 q 910 -43 892 -12 l 843 -93 q 797 -20 826 -61 q 733 63 768 21 q 665 142 699 106 m 1071 1031 l 1071 204 l 988 204 l 988 1031 l 1071 1031 m 1190 1150 l 1278 1150 l 1278 14 q 1267 -50 1278 -28 q 1232 -83 1256 -72 q 1163 -99 1206 -96 q 1050 -103 1119 -103 q 1039 -58 1047 -83 q 1022 -12 1031 -32 q 1112 -14 1072 -14 q 1164 -14 1151 -14 q 1185 -7 1179 -12 q 1190 14 1190 -1 l 1190 1150 z "},"侨":{"ha":1389,"x_min":31,"x_max":1343,"o":"m 368 1156 l 464 1126 q 322 828 403 969 l 322 -106 l 226 -106 l 226 676 q 88 504 160 581 q 63 556 81 524 q 31 604 44 588 q 161 760 99 672 q 277 949 224 849 q 368 1156 331 1050 m 626 385 l 626 463 l 726 463 l 726 382 q 706 218 726 307 q 635 43 686 129 q 489 -114 583 -43 q 453 -78 478 -99 q 414 -47 429 -57 q 549 94 504 18 q 610 245 594 169 q 626 385 626 321 m 982 -104 l 982 461 l 1083 461 l 1083 -104 l 982 -104 m 1296 701 l 1031 701 q 1172 552 1088 621 q 1343 446 1256 483 q 1307 410 1326 432 q 1275 368 1288 388 q 1144 454 1210 401 q 1023 571 1079 507 q 928 701 967 635 l 788 701 q 633 503 724 588 q 418 358 542 419 q 390 401 410 375 q 356 442 371 428 q 538 551 458 486 q 675 701 617 617 l 410 701 l 410 794 l 726 794 q 763 883 747 836 q 792 981 779 929 q 653 969 722 975 q 522 961 585 964 q 512 1005 521 981 q 494 1047 503 1029 q 731 1066 608 1054 q 966 1095 854 1078 q 1156 1133 1078 1113 l 1215 1047 q 1068 1015 1150 1029 q 896 992 986 1001 q 832 794 871 882 l 1296 794 l 1296 701 z "},"侮":{"ha":1389,"x_min":28,"x_max":1346,"o":"m 1311 901 l 628 901 q 479 674 560 767 q 438 703 465 686 q 392 731 411 721 q 529 926 467 811 q 631 1163 592 1042 l 729 1138 q 702 1065 717 1101 q 672 993 688 1029 l 1311 993 l 1311 901 m 371 1157 l 467 1128 q 324 828 408 975 l 324 -103 l 226 -103 l 226 676 q 158 586 193 629 q 86 506 122 543 q 60 556 78 524 q 28 606 43 589 q 160 760 96 672 q 278 950 224 849 q 371 1157 332 1051 m 896 178 l 1100 178 q 1108 270 1104 218 q 1115 386 1113 322 l 917 386 q 906 276 911 329 q 896 178 901 222 m 825 386 l 631 386 q 616 279 624 332 q 601 178 608 226 l 801 178 q 814 276 808 222 q 825 386 819 329 m 849 682 l 667 682 q 655 582 661 633 q 642 478 649 531 l 833 478 q 842 583 838 531 q 849 682 846 635 m 925 478 l 1119 478 q 1124 575 1122 524 q 1126 682 1125 626 l 942 682 q 935 583 939 635 q 925 478 931 531 m 1346 386 l 1213 386 q 1206 272 1210 324 q 1200 178 1203 221 l 1318 178 l 1318 88 l 1190 88 q 1149 -56 1175 -24 q 1109 -90 1131 -81 q 1057 -103 1088 -100 q 980 -105 1028 -106 q 881 -101 932 -104 q 872 -58 879 -83 q 856 -17 865 -33 q 950 -22 907 -21 q 1011 -22 993 -22 q 1041 -19 1029 -22 q 1061 -3 1053 -17 q 1076 30 1069 8 q 1089 88 1083 51 l 586 88 l 576 25 l 478 32 q 506 194 492 101 q 533 386 519 286 l 385 386 l 385 478 l 544 478 q 564 631 556 556 q 578 772 572 706 l 1225 772 l 1225 724 q 1217 478 1221 586 l 1346 478 l 1346 386 z "},"侯":{"ha":1389,"x_min":28,"x_max":1344,"o":"m 371 1157 l 467 1128 q 324 828 408 975 l 324 -103 l 226 -103 l 226 676 q 158 586 193 629 q 86 506 122 543 q 60 556 78 524 q 28 606 43 589 q 160 760 96 672 q 278 950 224 849 q 371 1157 332 1051 m 1324 256 l 932 256 q 1094 76 989 149 q 1344 -24 1199 4 q 1310 -65 1329 -39 q 1279 -111 1290 -92 q 1040 -3 1140 -76 q 874 178 939 69 q 741 26 835 100 q 467 -107 647 -49 q 439 -68 458 -92 q 401 -29 419 -44 q 614 56 533 10 q 737 153 694 103 q 796 256 779 204 l 407 256 l 407 349 l 811 349 q 813 365 813 357 q 813 382 813 374 l 813 525 l 611 525 q 560 442 588 482 q 506 371 533 403 q 465 398 492 382 q 418 422 438 414 q 524 567 476 482 q 603 744 572 653 l 421 744 l 421 836 l 1040 836 l 1040 1007 l 558 1007 l 558 1097 l 1142 1097 l 1142 836 l 1322 836 l 1322 744 l 646 744 l 703 731 q 657 615 683 669 l 1246 615 l 1246 525 l 917 525 l 917 381 q 917 365 917 372 q 915 349 917 357 l 1324 349 l 1324 256 z "},"侵":{"ha":1389,"x_min":28,"x_max":1346,"o":"m 1310 346 l 1213 346 l 1213 490 l 526 490 l 526 346 l 433 346 l 433 572 l 1310 572 l 1310 346 m 1222 1107 l 1222 660 l 504 660 l 504 742 l 1122 742 l 1122 846 l 551 846 l 551 924 l 1122 924 l 1122 1024 l 524 1024 l 524 1107 l 1222 1107 m 371 1157 l 467 1128 q 324 828 408 975 l 324 -103 l 226 -103 l 226 676 q 158 586 193 629 q 86 506 122 543 q 60 556 78 524 q 28 606 43 589 q 160 760 96 672 q 278 950 224 849 q 371 1157 332 1051 m 1067 306 l 693 306 q 773 210 726 254 q 879 131 819 167 q 984 210 936 167 q 1067 306 1032 254 m 1144 393 l 1210 363 q 1111 203 1171 274 q 975 81 1051 133 q 1149 19 1056 44 q 1346 -19 1243 -6 q 1313 -60 1331 -33 q 1283 -107 1294 -87 q 1068 -56 1169 -87 q 881 22 967 -25 q 683 -59 788 -26 q 467 -111 578 -92 q 447 -65 461 -92 q 418 -22 432 -37 q 610 18 517 -7 q 786 82 703 43 q 597 282 669 165 l 664 306 l 539 306 l 539 389 l 1126 389 l 1144 393 z "},"便":{"ha":1389,"x_min":56,"x_max":1342,"o":"m 360 1157 l 457 1128 q 397 972 431 1050 q 325 821 364 894 l 325 -104 l 226 -104 l 226 653 q 172 575 200 613 q 115 504 143 538 q 88 556 107 524 q 56 606 69 588 q 174 762 117 674 q 278 951 231 850 q 360 1157 326 1053 m 592 431 l 833 431 q 835 467 835 449 q 835 504 835 486 l 835 574 l 592 574 l 592 431 m 592 793 l 592 650 l 835 650 l 835 793 l 592 793 m 1161 793 l 936 793 l 936 650 l 1161 650 l 1161 793 m 1161 431 l 1161 574 l 936 574 l 936 504 q 936 467 936 486 q 933 431 936 449 l 1161 431 m 1263 350 l 925 350 q 891 223 915 285 q 819 104 867 161 q 1058 34 926 60 q 1342 -3 1190 8 q 1308 -48 1325 -21 q 1281 -99 1292 -75 q 990 -51 1125 -83 q 746 33 856 -19 q 616 -46 692 -10 q 438 -111 540 -82 q 409 -67 428 -93 q 375 -26 390 -42 q 538 24 468 -4 q 656 86 607 51 q 545 174 596 125 q 457 282 494 222 l 544 315 q 626 223 579 264 q 731 149 672 182 q 794 245 772 194 q 825 350 815 296 l 494 350 l 494 874 l 835 874 l 835 989 l 458 989 l 458 1082 l 1310 1082 l 1310 989 l 936 989 l 936 874 l 1263 874 l 1263 350 z "},"促":{"ha":1389,"x_min":31,"x_max":1336,"o":"m 328 1157 l 422 1131 q 374 995 400 1063 q 317 863 347 928 l 317 -107 l 215 -107 l 215 674 q 151 575 185 621 q 85 489 118 529 q 60 540 78 507 q 31 593 43 574 q 146 753 90 663 q 248 947 201 843 q 328 1157 294 1050 m 628 1006 l 628 721 l 1129 721 l 1129 1006 l 628 1006 m 931 319 l 931 35 q 1008 25 968 28 q 1089 22 1047 22 q 1136 22 1103 22 q 1208 22 1169 22 q 1283 22 1247 22 q 1336 22 1318 22 q 1317 -25 1326 4 q 1303 -75 1307 -54 l 1082 -75 q 883 -56 974 -75 q 719 17 792 -36 q 592 171 646 71 q 526 17 565 86 q 436 -110 488 -53 q 397 -77 424 -97 q 353 -47 371 -57 q 494 181 447 42 q 558 493 540 319 l 657 483 q 628 303 647 389 q 713 150 661 206 q 829 64 764 94 l 829 628 l 529 628 l 529 1099 l 1231 1099 l 1231 628 l 931 628 l 931 417 l 1256 417 l 1256 319 l 931 319 z "},"俄":{"ha":1389,"x_min":31,"x_max":1336,"o":"m 1306 854 l 1225 815 q 1189 896 1213 850 q 1138 990 1165 942 q 1082 1078 1110 1038 l 1160 1111 q 1217 1024 1189 1071 q 1269 933 1246 978 q 1306 854 1293 889 m 328 1154 l 422 1126 q 373 990 400 1058 q 314 854 346 921 l 314 -107 l 215 -107 l 215 671 q 151 573 185 619 q 85 485 118 526 q 60 538 78 504 q 31 590 43 571 q 146 750 90 660 q 248 944 201 840 q 328 1154 294 1047 m 1188 575 l 1279 550 q 1082 208 1201 360 q 1139 48 1106 106 q 1211 -10 1172 -10 q 1244 44 1232 -10 q 1258 219 1256 97 q 1296 189 1274 204 q 1336 167 1318 174 q 1314 1 1329 61 q 1272 -83 1299 -58 q 1199 -108 1244 -108 q 1085 -49 1132 -108 q 1006 117 1038 11 q 807 -58 914 18 q 775 -20 797 -43 q 738 17 753 3 q 863 111 803 58 q 978 225 924 164 q 947 419 960 314 q 925 642 933 524 l 700 642 l 700 429 l 886 479 l 897 386 q 799 359 849 372 q 700 331 749 346 l 700 19 q 688 -49 700 -26 q 649 -85 676 -72 q 571 -101 619 -97 q 451 -104 522 -104 q 440 -56 449 -83 q 419 -7 431 -28 q 517 -8 472 -8 q 575 -7 561 -8 q 597 -1 590 -7 q 603 19 603 4 l 603 304 l 392 246 l 363 346 q 473 372 411 357 q 603 406 535 388 l 603 642 l 374 642 l 374 733 l 603 733 l 603 954 q 502 929 553 940 q 403 907 451 918 q 392 948 401 925 q 372 988 382 971 q 532 1028 450 1006 q 688 1076 614 1050 q 813 1126 761 1101 l 889 1047 q 700 979 806 1011 l 700 733 l 922 733 q 915 935 917 832 q 911 1147 913 1039 l 1013 1147 q 1013 933 1011 1038 q 1019 733 1015 829 l 1306 733 l 1306 642 l 1024 642 q 1039 476 1031 554 q 1058 331 1047 397 q 1188 575 1135 442 z "},"俊":{"ha":1389,"x_min":28,"x_max":1347,"o":"m 428 801 l 419 901 q 499 903 457 903 q 588 906 542 904 q 664 1035 625 964 q 728 1164 703 1107 l 838 1133 q 769 1020 807 1079 q 696 910 732 961 q 896 916 792 913 q 1106 924 1000 919 q 994 1039 1051 985 l 1075 1085 q 1174 989 1124 1042 q 1269 885 1225 936 q 1340 793 1314 835 l 1251 739 q 1220 786 1238 761 q 1181 838 1203 811 l 1010 829 l 1010 644 q 1017 617 1010 624 q 1054 611 1025 611 l 1183 611 q 1215 628 1207 611 q 1225 714 1222 646 q 1265 693 1240 703 q 1310 679 1289 683 q 1277 557 1301 588 q 1196 526 1253 526 l 1044 526 q 963 536 992 526 q 925 572 935 546 q 915 643 915 597 l 915 825 l 760 817 q 718 660 749 728 q 625 546 688 593 q 454 467 563 499 q 431 508 447 485 q 399 544 414 531 q 547 604 493 568 q 628 692 601 640 q 663 813 654 744 l 428 801 m 371 1157 l 467 1128 q 324 828 408 975 l 324 -103 l 226 -103 l 226 676 q 158 586 193 629 q 86 506 122 543 q 60 556 78 524 q 28 606 43 589 q 160 760 96 672 q 278 950 224 849 q 371 1157 332 1051 m 714 346 l 706 338 q 781 246 738 289 q 876 165 825 203 q 975 248 931 203 q 1053 346 1019 293 l 714 346 m 1126 433 l 1193 400 q 1095 240 1154 311 q 963 111 1036 168 q 1347 -18 1131 18 q 1312 -60 1331 -33 q 1282 -107 1293 -87 q 874 53 1050 -61 q 665 -44 776 -6 q 438 -106 554 -82 q 416 -60 431 -86 q 388 -18 401 -33 q 598 33 494 0 q 790 114 701 65 q 638 276 701 186 q 558 217 599 244 q 478 165 518 189 q 442 200 465 178 q 400 233 418 222 q 611 376 511 290 q 771 565 711 463 l 864 535 q 790 429 832 479 l 1108 429 l 1126 433 z "},"俏":{"ha":1389,"x_min":28,"x_max":1339,"o":"m 371 1157 l 467 1128 q 324 828 408 975 l 324 -103 l 226 -103 l 226 676 q 158 586 193 629 q 86 506 122 543 q 60 556 78 524 q 28 606 43 589 q 160 760 96 672 q 278 950 224 849 q 371 1157 332 1051 m 638 1074 l 735 1049 q 635 861 694 953 q 514 706 575 769 q 474 735 500 718 q 428 763 447 753 q 548 904 493 821 q 638 1074 603 988 m 663 260 l 1128 260 l 1128 411 l 663 411 l 663 260 m 1128 643 l 663 643 l 663 499 l 1128 499 l 1128 643 m 1228 735 l 1228 10 q 1217 -53 1228 -31 q 1179 -89 1207 -76 q 1103 -103 1150 -100 q 990 -106 1057 -106 q 974 -58 985 -86 q 953 -12 964 -31 q 1047 -15 1004 -14 q 1103 -14 1089 -15 q 1128 11 1128 -12 l 1128 174 l 663 174 l 663 -106 l 563 -106 l 563 735 l 839 735 l 839 1163 l 940 1163 l 940 735 l 1228 735 m 1028 1042 l 1111 1083 q 1201 988 1157 1040 q 1283 883 1246 935 q 1339 788 1319 831 l 1250 740 q 1195 836 1231 783 q 1117 943 1160 889 q 1028 1042 1074 997 z "},"俐":{"ha":1389,"x_min":46,"x_max":1276,"o":"m 326 1161 l 421 1133 q 371 988 399 1061 q 311 846 343 915 l 311 -103 l 215 -103 l 215 663 q 160 574 189 617 q 101 494 131 532 q 77 547 94 514 q 46 600 60 581 q 156 760 104 669 q 251 953 207 850 q 326 1161 294 1056 m 693 643 l 693 615 q 737 563 708 599 q 797 488 765 528 q 856 413 829 447 q 893 364 882 379 l 835 279 q 797 338 821 303 q 745 413 772 374 q 693 488 718 453 l 693 -93 l 597 -93 l 597 449 q 500 247 554 343 q 390 88 446 151 q 365 135 381 108 q 336 181 349 163 q 432 309 385 233 q 519 472 479 385 q 588 643 560 558 l 375 643 l 375 736 l 597 736 l 597 963 q 503 943 550 953 q 411 926 456 933 q 399 965 408 943 q 381 1001 390 986 q 538 1035 457 1017 q 692 1074 619 1053 q 815 1118 765 1096 l 888 1043 q 797 1013 846 1028 q 693 983 747 997 l 693 736 l 890 736 l 890 643 l 693 643 m 1042 1006 l 1042 206 l 953 206 l 953 1006 l 1042 1006 m 1181 1144 l 1276 1144 l 1276 24 q 1264 -47 1276 -24 q 1224 -83 1251 -69 q 1146 -98 1196 -94 q 1021 -101 1096 -101 q 1010 -54 1018 -82 q 990 -4 1001 -26 q 1092 -6 1046 -6 q 1153 -7 1138 -7 q 1174 0 1168 -6 q 1181 24 1181 6 l 1181 1144 z "},"俗":{"ha":1389,"x_min":28,"x_max":1353,"o":"m 1307 844 l 1221 786 q 1150 882 1194 828 q 1053 992 1106 936 q 950 1094 1000 1047 l 1031 1143 q 1135 1045 1082 1099 q 1233 940 1188 992 q 1307 844 1279 888 m 669 1136 l 771 1107 q 645 927 719 1015 q 499 778 571 839 q 458 812 485 790 q 413 844 432 833 q 556 976 488 899 q 669 1136 625 1054 m 371 1157 l 467 1128 q 324 828 408 975 l 324 -103 l 226 -103 l 226 676 q 158 586 193 629 q 86 506 122 543 q 60 556 78 524 q 28 606 43 589 q 160 760 96 672 q 278 950 224 849 q 371 1157 332 1051 m 1088 336 l 649 336 l 649 47 l 1088 47 l 1088 336 m 550 -108 l 550 429 l 1190 429 l 1190 -100 l 1088 -100 l 1088 -46 l 649 -46 l 649 -108 l 550 -108 m 804 878 l 903 878 q 1033 715 958 796 q 1190 567 1107 635 q 1353 456 1272 500 q 1320 413 1338 438 q 1292 365 1303 388 q 1131 484 1213 415 q 979 628 1050 553 q 860 776 908 704 q 749 629 817 707 q 601 479 682 551 q 431 351 519 407 q 405 395 421 371 q 375 436 389 419 q 546 564 463 490 q 697 719 629 638 q 804 878 765 801 z "},"俘":{"ha":1389,"x_min":28,"x_max":1329,"o":"m 371 1157 l 467 1128 q 324 828 408 975 l 324 -103 l 226 -103 l 226 676 q 158 586 193 629 q 86 506 122 543 q 60 556 78 524 q 28 606 43 589 q 160 760 96 672 q 278 950 224 849 q 371 1157 332 1051 m 1161 1149 l 1236 1069 q 1053 1031 1156 1049 q 841 999 950 1013 q 628 976 732 986 q 551 811 593 892 q 465 672 508 731 q 423 701 451 685 q 375 726 394 717 q 477 885 431 792 q 554 1071 524 978 l 611 1057 q 813 1083 711 1068 q 1006 1114 915 1097 q 1161 1149 1097 1131 m 1036 968 l 1118 1013 q 1199 925 1158 972 q 1274 831 1239 878 q 1329 749 1308 785 l 1242 697 q 1189 781 1222 733 q 1115 877 1156 828 q 1036 968 1075 926 m 928 742 l 835 717 q 811 823 829 761 q 772 939 793 885 l 861 958 q 903 845 883 907 q 928 742 922 783 m 932 403 l 932 343 l 1328 343 l 1328 251 l 932 251 l 932 8 q 920 -58 932 -35 q 874 -93 908 -82 q 788 -108 842 -106 q 654 -110 733 -110 q 641 -61 651 -89 q 619 -12 631 -33 q 733 -15 681 -14 q 800 -14 785 -15 q 824 -8 818 -12 q 829 11 829 -3 l 829 251 l 411 251 l 411 343 l 829 343 l 829 468 l 878 468 q 968 519 922 490 q 1053 576 1014 547 l 524 576 l 524 668 l 1158 668 l 1181 672 l 1247 622 q 1101 503 1186 561 q 932 403 1015 444 z "},"保":{"ha":1389,"x_min":36,"x_max":1357,"o":"m 386 1158 l 483 1129 q 417 981 453 1054 q 342 840 382 908 l 342 -103 l 243 -103 l 243 689 q 170 594 208 639 q 94 511 132 550 q 68 560 86 528 q 36 611 50 593 q 171 765 106 678 q 292 953 236 853 q 386 1158 347 1054 m 626 1004 l 626 750 l 1142 750 l 1142 1004 l 626 1004 m 1321 392 l 992 392 q 1097 251 1038 319 q 1224 126 1157 182 q 1357 33 1290 69 q 1319 -5 1340 19 q 1283 -49 1297 -29 q 1097 113 1190 13 q 932 328 1003 214 l 932 -107 l 829 -107 l 829 324 q 658 111 757 210 q 458 -46 560 13 q 424 -2 444 -26 q 386 36 404 22 q 528 127 458 72 q 661 250 599 182 q 769 392 724 318 l 426 392 l 426 486 l 829 486 l 829 658 l 529 658 l 529 1097 l 1244 1097 l 1244 658 l 932 658 l 932 486 l 1321 486 l 1321 392 z "},"信":{"ha":1389,"x_min":32,"x_max":1331,"o":"m 1200 1096 l 1200 1011 l 564 1011 l 564 1096 l 1200 1096 m 388 1158 l 483 1129 q 342 843 424 979 l 342 -101 l 244 -101 l 244 694 q 90 511 169 590 q 65 560 83 528 q 32 611 46 593 q 169 765 103 678 q 291 953 235 853 q 388 1158 347 1054 m 1135 249 l 632 249 l 632 44 l 1135 44 l 1135 249 m 532 -106 l 532 332 l 1238 332 l 1238 -101 l 1135 -101 l 1135 -40 l 632 -40 l 632 -106 l 532 -106 m 547 439 l 547 522 l 1222 522 l 1222 439 l 547 439 m 1225 714 l 1225 629 l 547 629 l 547 714 l 1225 714 m 433 906 l 1331 906 l 1331 819 l 433 819 l 433 906 z "},"俩":{"ha":1389,"x_min":46,"x_max":1310,"o":"m 308 1154 l 400 1129 q 358 999 382 1064 q 310 871 335 933 l 310 -107 l 215 -107 l 215 671 q 160 576 189 621 q 101 490 131 531 q 77 540 94 508 q 46 590 60 572 q 197 845 128 696 q 308 1154 265 994 m 939 775 l 939 971 l 781 971 l 781 775 l 939 775 m 1310 971 l 1025 971 l 1025 775 l 1269 775 l 1269 25 q 1260 -37 1269 -14 q 1222 -72 1250 -60 q 1147 -86 1194 -83 q 1033 -89 1100 -89 q 1022 -43 1031 -69 q 1003 3 1013 -17 q 1097 1 1054 1 q 1154 3 1140 1 q 1178 26 1178 3 l 1178 683 l 1025 683 q 1022 613 1024 650 q 1015 538 1019 575 q 1077 431 1047 488 q 1131 324 1107 375 q 1168 233 1156 272 l 1103 175 q 1059 285 1088 222 q 996 413 1031 349 q 943 249 978 329 q 851 99 908 168 q 822 131 842 113 q 788 161 803 150 q 883 326 851 235 q 926 510 915 417 q 939 683 938 604 l 779 683 q 767 522 776 607 q 825 428 797 476 q 867 347 853 379 l 810 286 q 783 347 800 313 q 746 415 767 381 q 693 256 728 335 q 601 107 658 176 q 572 142 592 122 q 536 172 553 161 q 632 333 600 244 q 676 514 664 422 q 689 683 688 606 l 535 683 l 535 -104 l 440 -104 l 440 775 l 690 775 l 690 971 l 413 971 l 413 1068 l 1310 1068 l 1310 971 z "},"俭":{"ha":1389,"x_min":43,"x_max":1338,"o":"m 342 1158 l 436 1131 q 314 831 385 975 l 314 -104 l 215 -104 l 215 653 q 97 489 160 564 q 74 541 92 507 q 43 594 56 575 q 159 754 104 664 q 261 948 214 844 q 342 1158 308 1051 m 569 640 l 569 731 q 396 606 488 661 q 367 648 386 621 q 333 689 349 675 q 606 892 481 767 q 807 1169 732 1018 l 897 1138 q 885 1112 892 1124 q 871 1086 878 1100 q 1003 948 925 1018 q 1169 817 1082 878 q 1338 714 1257 756 q 1308 669 1324 696 q 1285 622 1292 642 q 1122 732 1206 669 q 960 866 1038 794 q 821 1007 882 938 q 704 860 768 929 q 569 731 640 790 l 1113 731 l 1113 640 l 569 640 m 919 236 l 832 221 q 818 321 828 265 q 796 435 808 376 q 769 546 783 494 l 853 560 q 880 450 867 508 q 904 336 893 392 q 919 236 915 281 m 486 504 l 567 526 q 610 412 589 472 q 647 293 631 351 q 669 189 663 235 l 586 163 q 563 269 579 210 q 528 390 547 328 q 486 504 508 451 m 1133 540 l 1231 514 q 1164 361 1200 442 q 1090 203 1128 281 q 1017 63 1053 126 l 1292 63 l 1292 -33 l 390 -33 l 390 63 l 922 63 q 999 210 960 126 q 1074 381 1038 294 q 1133 540 1110 468 z "},"修":{"ha":1389,"x_min":29,"x_max":1358,"o":"m 326 1154 l 422 1128 q 315 860 376 990 l 315 -106 l 215 -106 l 215 671 q 151 572 185 619 q 83 485 118 525 q 60 538 78 504 q 29 590 43 572 q 145 750 90 660 q 247 944 200 840 q 326 1154 293 1047 m 767 926 l 764 922 q 935 742 824 824 q 1024 826 983 781 q 1094 926 1064 872 l 767 926 m 1314 926 l 1203 926 q 1120 798 1168 857 q 1014 690 1072 739 q 1171 617 1085 649 q 1358 567 1257 586 q 1328 527 1344 551 q 1301 483 1311 503 q 1104 546 1194 507 q 940 633 1014 585 q 775 541 864 581 q 589 471 686 501 q 560 512 579 486 q 526 551 542 538 q 706 610 621 575 q 863 690 790 644 q 778 769 815 728 q 714 850 742 810 q 593 718 654 772 q 562 746 583 729 q 524 774 540 763 l 524 124 l 433 124 l 433 997 l 524 997 l 524 786 q 674 955 606 856 q 785 1163 743 1054 l 878 1139 q 849 1075 864 1107 q 817 1011 835 1043 l 1314 1011 l 1314 926 m 1099 403 l 1178 371 q 1049 266 1125 314 q 884 181 972 218 q 703 118 796 144 q 678 153 693 133 q 649 186 664 174 q 822 239 736 207 q 981 313 908 271 q 1099 403 1053 354 m 967 536 l 1046 504 q 885 386 982 439 q 689 301 788 333 q 662 333 678 315 q 631 363 646 350 q 756 407 693 381 q 875 467 819 433 q 967 536 931 500 m 1228 251 l 1317 214 q 1143 71 1249 132 q 906 -32 1038 10 q 628 -100 775 -74 q 604 -57 619 -81 q 574 -18 589 -33 q 840 39 714 3 q 1066 128 965 75 q 1228 251 1167 182 z "},"俯":{"ha":1389,"x_min":31,"x_max":1331,"o":"m 326 1154 l 422 1128 q 373 991 400 1060 q 314 857 346 922 l 314 -106 l 215 -106 l 215 672 q 152 574 185 621 q 85 486 119 526 q 60 539 78 506 q 31 590 43 572 q 145 750 90 660 q 247 944 200 840 q 326 1154 293 1047 m 763 872 l 858 850 q 821 753 842 803 q 776 656 800 704 l 776 -103 l 686 -103 l 686 499 q 634 427 661 461 q 578 364 607 393 q 556 390 569 375 q 529 417 542 404 q 496 152 521 288 q 415 -90 471 17 q 377 -58 403 -76 q 335 -33 351 -40 q 408 182 385 65 q 437 416 431 299 q 443 631 443 533 l 443 992 l 824 992 l 824 1153 l 925 1153 l 925 992 l 1318 992 l 1318 901 l 536 901 l 536 631 q 532 447 536 546 q 630 576 585 504 q 709 726 675 649 q 763 872 743 803 m 1331 660 l 1331 571 l 1221 571 l 1221 7 q 1210 -57 1221 -35 q 1171 -90 1199 -79 q 1094 -104 1143 -101 q 972 -107 1046 -107 q 961 -62 969 -89 q 942 -18 953 -36 q 1042 -19 997 -19 q 1101 -19 1088 -19 q 1123 -12 1117 -18 q 1129 7 1129 -7 l 1129 571 l 838 571 l 838 660 l 1129 660 l 1129 861 l 1221 861 l 1221 660 l 1331 660 m 1051 208 l 971 174 q 925 305 957 228 q 857 447 893 382 l 932 474 q 1004 335 971 410 q 1051 208 1038 261 z "},"俱":{"ha":1389,"x_min":31,"x_max":1324,"o":"m 642 433 l 642 307 l 1093 307 l 1093 433 l 642 433 m 1093 1024 l 642 1024 l 642 906 l 1093 906 l 1093 1024 m 1093 632 l 642 632 l 642 508 l 1093 508 l 1093 632 m 1093 708 l 1093 831 l 642 831 l 642 708 l 1093 708 m 406 307 l 543 307 l 543 1110 l 1194 1110 l 1194 307 l 1322 307 l 1322 214 l 406 214 l 406 307 m 372 1160 l 469 1131 q 404 979 440 1054 q 328 833 368 904 l 328 -104 l 229 -104 l 229 678 q 160 588 196 631 q 89 507 125 544 q 63 558 81 526 q 31 607 44 590 q 163 763 99 675 q 280 953 226 851 q 372 1160 333 1054 m 697 194 l 779 139 q 637 3 722 67 q 463 -108 551 -61 q 432 -72 451 -93 q 397 -37 413 -51 q 565 69 483 7 q 697 194 647 132 m 961 131 l 1026 193 q 1134 119 1078 160 q 1241 38 1190 78 q 1324 -36 1292 -3 l 1254 -108 q 1174 -33 1224 -75 q 1069 52 1125 8 q 961 131 1013 96 z "},"俺":{"ha":1389,"x_min":29,"x_max":1357,"o":"m 600 228 l 806 228 l 806 381 l 600 381 l 600 228 m 972 894 l 764 894 q 697 783 733 836 q 618 682 660 729 l 806 682 l 806 810 l 900 810 l 900 682 l 1108 682 q 972 894 1025 781 m 900 599 l 900 458 l 1117 458 l 1117 599 l 900 599 m 600 599 l 600 458 l 806 458 l 806 599 l 600 599 m 900 228 l 1117 228 l 1117 381 l 900 381 l 900 228 m 1208 144 l 900 144 l 900 49 q 913 -3 900 10 q 969 -15 926 -15 l 1179 -15 q 1217 -2 1204 -15 q 1236 47 1231 11 q 1244 149 1242 82 q 1285 126 1261 136 q 1331 113 1310 115 q 1311 -16 1325 31 q 1267 -81 1297 -62 q 1185 -100 1238 -100 l 961 -100 q 866 -87 900 -100 q 819 -42 832 -75 q 806 49 806 -10 l 806 144 l 600 144 l 600 69 l 507 69 l 507 574 q 461 536 485 554 q 413 503 438 518 q 380 544 403 518 q 342 583 357 569 q 514 718 436 639 q 650 894 592 797 l 404 894 l 404 976 q 367 905 386 940 q 326 833 347 869 l 326 -104 l 228 -104 l 228 683 q 88 518 161 592 q 61 567 79 535 q 29 618 43 600 q 163 769 99 683 q 283 956 228 856 q 378 1158 339 1056 l 472 1129 q 442 1058 458 1093 q 408 986 426 1022 l 699 986 q 734 1070 718 1026 q 764 1158 750 1114 l 864 1138 q 838 1060 853 1099 q 808 986 824 1022 l 1321 986 l 1321 894 l 1074 894 q 1201 721 1125 801 q 1357 596 1276 640 q 1320 560 1340 582 q 1289 519 1300 538 q 1208 579 1247 544 l 1208 144 z "},"倍":{"ha":1389,"x_min":28,"x_max":1335,"o":"m 467 1004 l 828 1004 l 828 1161 l 932 1161 l 932 1004 l 1307 1004 l 1307 911 l 467 911 l 467 1004 m 1083 646 l 994 667 q 1025 739 1010 697 q 1054 823 1040 781 q 1076 900 1068 865 l 1181 878 q 1132 753 1157 817 q 1083 646 1107 690 m 747 674 l 653 647 q 626 756 647 692 q 582 876 606 821 l 671 899 q 720 782 699 846 q 747 674 742 718 m 371 1157 l 467 1128 q 324 828 408 975 l 324 -103 l 226 -103 l 226 676 q 158 586 193 629 q 86 506 122 543 q 60 556 78 524 q 28 606 43 589 q 160 760 96 672 q 278 950 224 849 q 371 1157 332 1051 m 1129 318 l 640 318 l 640 53 l 1129 53 l 1129 318 m 539 -107 l 539 414 l 1233 414 l 1233 -99 l 1129 -99 l 1129 -42 l 640 -42 l 640 -107 l 539 -107 m 410 639 l 1335 639 l 1335 543 l 410 543 l 410 639 z "},"倒":{"ha":1389,"x_min":31,"x_max":1282,"o":"m 914 996 l 667 996 q 617 854 643 928 q 563 719 590 781 q 672 726 615 722 q 789 735 729 731 q 717 871 754 808 l 790 899 q 849 799 821 853 q 898 695 876 746 q 929 604 919 644 l 850 574 q 839 612 846 592 q 824 654 832 632 q 592 633 706 643 q 389 614 479 622 l 379 708 q 424 711 400 710 q 472 714 447 713 q 519 851 496 774 q 561 996 543 928 l 413 996 l 413 1082 l 914 1082 l 914 996 m 326 1154 l 422 1128 q 311 853 376 986 l 311 -106 l 215 -106 l 215 674 q 152 576 185 622 q 85 490 119 531 q 60 542 78 508 q 31 594 43 576 q 145 753 90 664 q 247 946 200 843 q 326 1154 293 1049 m 706 104 l 928 139 l 932 53 q 642 2 786 26 q 386 -40 497 -22 l 369 53 q 480 69 419 60 q 608 89 540 79 l 608 340 l 410 340 l 410 431 l 608 431 l 608 594 l 706 594 l 706 431 l 894 431 l 894 340 l 706 340 l 706 104 m 1040 982 l 1040 226 l 949 226 l 949 982 l 1040 982 m 1189 1136 l 1282 1136 l 1282 19 q 1271 -51 1282 -26 q 1232 -87 1260 -75 q 1161 -104 1206 -100 q 1053 -108 1117 -108 q 1039 -59 1049 -89 q 1018 -7 1029 -29 q 1109 -8 1068 -8 q 1164 -8 1150 -8 q 1184 -3 1179 -8 q 1189 18 1189 3 l 1189 1136 z "},"倔":{"ha":1389,"x_min":31,"x_max":1283,"o":"m 326 1154 l 422 1128 q 373 991 400 1060 q 314 857 346 922 l 314 -106 l 215 -106 l 215 672 q 152 574 185 621 q 85 486 119 526 q 60 539 78 506 q 31 590 43 572 q 145 750 90 660 q 247 944 200 840 q 326 1154 293 1047 m 1172 1015 l 583 1015 l 583 843 l 1172 843 l 1172 1015 m 1271 749 l 583 749 l 583 682 q 578 497 583 597 q 556 292 572 396 q 506 91 539 189 q 419 -87 474 -7 q 381 -56 407 -74 q 338 -31 356 -39 q 419 137 389 47 q 463 322 449 226 q 482 509 478 417 q 486 682 486 601 l 486 1110 l 1271 1110 l 1271 749 m 1193 292 l 1283 292 l 1283 -99 l 1193 -99 l 1193 -39 l 713 -39 l 713 -104 l 621 -104 l 621 292 l 713 292 l 713 47 l 907 47 l 907 354 l 653 354 l 653 658 l 736 658 l 736 438 l 907 438 l 907 719 l 999 719 l 999 438 l 1175 438 l 1175 658 l 1263 658 l 1263 354 l 999 354 l 999 47 l 1193 47 l 1193 292 z "},"倘":{"ha":1389,"x_min":28,"x_max":1328,"o":"m 1328 825 l 1244 768 q 1188 850 1224 804 q 1108 943 1151 896 q 1024 1029 1065 990 l 1101 1078 q 1187 995 1143 1040 q 1268 906 1231 950 q 1328 825 1306 861 m 371 1157 l 467 1128 q 324 828 408 975 l 324 -103 l 226 -103 l 226 676 q 158 586 193 629 q 86 506 122 543 q 60 556 78 524 q 28 606 43 589 q 160 760 96 672 q 278 950 224 849 q 371 1157 332 1051 m 610 1075 l 707 1046 q 604 891 664 968 q 488 761 544 814 q 447 790 474 772 q 401 818 421 808 q 515 938 460 868 q 610 1075 571 1007 m 971 447 l 775 447 l 775 239 l 971 239 l 971 447 m 1056 158 l 775 158 l 775 67 l 692 67 l 692 525 l 1056 525 l 1056 158 m 1269 758 l 1269 14 q 1257 -53 1269 -29 q 1213 -89 1244 -78 q 1128 -103 1182 -100 q 990 -106 1074 -106 q 978 -58 988 -86 q 957 -12 968 -31 q 1072 -14 1019 -14 q 1140 -14 1124 -14 q 1165 -7 1158 -12 q 1171 14 1171 -1 l 1171 665 l 579 665 l 579 -104 l 482 -104 l 482 758 l 819 758 l 819 1163 l 924 1163 l 924 758 l 1269 758 z "},"候":{"ha":1389,"x_min":26,"x_max":1349,"o":"m 326 1154 l 422 1128 q 373 993 400 1060 q 315 863 346 926 l 315 -106 l 215 -106 l 215 675 q 150 574 183 622 q 81 485 117 526 q 57 538 74 504 q 26 590 40 572 q 143 750 88 660 q 246 944 199 840 q 326 1154 293 1047 m 429 119 l 429 1003 l 521 1003 l 521 119 l 429 119 m 1338 260 l 1001 260 q 1057 153 1019 208 q 1165 52 1094 99 q 1349 -24 1235 6 q 1315 -64 1332 -39 q 1288 -108 1297 -89 q 1122 -35 1189 -79 q 1013 63 1056 10 q 944 169 971 115 q 827 21 910 93 q 592 -110 744 -51 q 563 -70 582 -93 q 526 -33 544 -47 q 718 54 647 6 q 824 156 789 103 q 872 260 860 208 l 564 260 l 564 350 l 885 350 l 885 372 l 885 525 l 736 525 q 689 446 714 483 q 636 379 664 408 q 598 406 622 390 q 556 432 574 422 q 655 572 611 490 q 725 740 699 653 l 561 740 l 561 829 l 1064 829 l 1064 1007 l 657 1007 l 657 1094 l 1158 1094 l 1158 829 l 1304 829 l 1304 740 l 763 740 l 821 726 q 801 669 813 697 q 779 613 790 640 l 1290 613 l 1290 525 l 986 525 l 986 371 l 986 350 l 1338 350 l 1338 260 z "},"倚":{"ha":1389,"x_min":29,"x_max":1329,"o":"m 463 1018 l 825 1018 q 842 1151 838 1075 l 947 1151 q 940 1083 944 1117 q 931 1018 936 1049 l 1290 1018 l 1290 929 l 910 929 q 901 907 906 918 q 893 885 897 896 q 1033 824 960 858 q 1174 756 1107 790 q 1286 694 1240 722 l 1222 615 q 1120 676 1182 642 q 988 745 1058 710 q 850 810 918 781 q 709 692 799 739 q 472 614 619 644 q 449 656 465 632 q 418 696 433 681 q 678 784 592 728 q 801 929 765 840 l 463 929 l 463 1018 m 371 1157 l 469 1126 q 403 974 439 1050 q 325 828 367 899 l 325 -104 l 226 -104 l 226 675 q 88 504 158 579 q 61 556 79 524 q 29 606 43 588 q 161 760 97 672 q 278 950 225 849 q 371 1157 332 1051 m 842 329 l 604 329 l 604 163 l 842 163 l 842 329 m 936 85 l 604 85 l 604 4 l 513 4 l 513 406 l 936 406 l 936 85 m 1329 603 l 1329 511 l 1204 511 l 1204 8 q 1191 -59 1204 -36 q 1144 -93 1178 -82 q 1053 -106 1111 -104 q 906 -108 996 -108 q 894 -63 903 -89 q 874 -17 885 -37 q 999 -19 942 -18 q 1074 -18 1056 -19 q 1097 -11 1090 -17 q 1103 8 1103 -6 l 1103 511 l 403 511 l 403 603 l 1329 603 z "},"借":{"ha":1389,"x_min":28,"x_max":1340,"o":"m 371 1157 l 467 1128 q 324 828 408 975 l 324 -103 l 226 -103 l 226 676 q 158 586 193 629 q 86 506 122 543 q 60 556 78 524 q 28 606 43 589 q 160 760 96 672 q 278 950 224 849 q 371 1157 332 1051 m 1115 418 l 642 418 l 642 271 l 1115 271 l 1115 418 m 642 39 l 1115 39 l 1115 189 l 642 189 l 642 39 m 543 -110 l 543 506 l 1217 506 l 1217 -104 l 1115 -104 l 1115 -49 l 642 -49 l 642 -110 l 543 -110 m 738 899 l 738 710 l 996 710 l 996 899 l 738 899 m 1096 710 l 1340 710 l 1340 615 l 396 615 l 396 710 l 639 710 l 639 899 l 454 899 l 454 989 l 639 989 l 639 1149 l 738 1149 l 738 989 l 996 989 l 996 1149 l 1096 1149 l 1096 989 l 1289 989 l 1289 899 l 1096 899 l 1096 710 z "},"倡":{"ha":1389,"x_min":38,"x_max":1265,"o":"m 1097 893 l 1097 1022 l 619 1022 l 619 893 l 1097 893 m 1097 682 l 1097 814 l 619 814 l 619 682 l 1097 682 m 1201 1106 l 1201 599 l 518 599 l 518 1106 l 1201 1106 m 364 1157 l 463 1128 q 399 971 435 1049 q 322 818 363 893 l 322 -104 l 221 -104 l 221 654 q 161 573 192 611 q 99 499 131 535 q 72 553 90 518 q 38 606 53 588 q 164 762 103 674 q 276 951 225 850 q 364 1157 328 1053 m 560 39 l 1160 39 l 1160 186 l 560 186 l 560 39 m 1160 413 l 560 413 l 560 274 l 1160 274 l 1160 413 m 458 501 l 1265 501 l 1265 -99 l 1160 -99 l 1160 -51 l 560 -51 l 560 -106 l 458 -106 l 458 501 z "},"倦":{"ha":1389,"x_min":28,"x_max":1344,"o":"m 371 1157 l 467 1128 q 324 828 408 975 l 324 -103 l 226 -103 l 226 676 q 158 586 193 629 q 86 506 122 543 q 60 556 78 524 q 28 606 43 589 q 160 760 96 672 q 278 950 224 849 q 371 1157 332 1051 m 622 435 l 1107 435 q 1058 503 1081 467 q 1014 579 1035 540 l 724 579 q 676 504 701 540 q 622 435 650 468 m 922 806 l 825 806 q 797 732 811 768 q 768 663 783 696 l 974 663 q 947 733 960 697 q 922 806 933 768 m 1329 579 l 1121 579 q 1223 453 1167 510 q 1344 361 1279 397 q 1308 324 1328 347 q 1276 279 1288 300 q 1111 429 1183 339 q 1111 415 1111 424 q 1110 399 1111 406 q 1102 229 1108 283 q 1079 157 1096 175 q 1010 126 1058 129 q 952 125 990 125 q 871 128 914 125 q 865 165 869 144 q 850 203 860 186 q 921 197 889 199 q 965 197 953 196 q 1000 207 992 197 q 1010 249 1007 217 q 1015 350 1014 281 l 700 350 l 700 44 q 717 2 700 11 q 796 -7 735 -7 l 1081 -7 q 1131 3 1114 -7 q 1154 43 1147 13 q 1164 133 1161 74 q 1207 112 1181 121 q 1254 97 1233 103 q 1231 -23 1247 19 q 1182 -81 1215 -65 q 1089 -97 1149 -97 l 790 -97 q 677 -86 718 -97 q 619 -44 636 -75 q 603 44 603 -12 l 603 413 q 421 261 524 326 q 385 299 410 276 q 344 336 361 322 q 607 579 504 428 l 399 579 l 399 663 l 657 663 q 719 806 693 731 l 540 806 l 540 871 q 511 837 526 853 q 481 806 496 821 q 445 835 468 818 q 406 863 422 853 q 508 976 460 911 q 588 1110 557 1042 l 676 1085 q 623 985 654 1035 q 557 890 592 935 l 747 890 q 781 1021 767 953 q 804 1163 794 1089 l 906 1151 q 881 1017 894 1082 q 850 890 867 951 l 1185 890 q 1115 981 1154 935 q 1040 1065 1076 1026 l 1115 1108 q 1193 1026 1154 1071 q 1265 937 1232 981 q 1318 858 1299 893 l 1238 807 q 1218 842 1229 822 q 1192 881 1207 861 l 1192 806 l 1014 806 q 1074 663 1039 729 l 1329 663 l 1329 579 z "},"债":{"ha":1389,"x_min":56,"x_max":1315,"o":"m 814 872 l 814 960 l 465 960 l 465 1042 l 814 1042 l 814 1161 l 911 1161 l 911 1042 l 1240 1042 l 1240 960 l 911 960 l 911 872 l 1203 872 l 1203 797 l 911 797 l 911 697 l 1299 697 l 1299 619 l 429 619 l 429 697 l 814 697 l 814 797 l 507 797 l 507 872 l 814 872 m 1221 146 l 1124 146 l 1124 463 l 599 463 l 599 146 l 504 146 l 504 536 l 1221 536 l 1221 146 m 339 1157 l 436 1131 q 385 987 414 1058 q 325 846 357 915 l 325 -104 l 226 -104 l 226 663 q 173 580 200 619 q 118 504 146 540 q 90 555 110 522 q 56 606 71 588 q 217 855 143 708 q 339 1157 292 1001 m 900 379 l 900 258 q 885 167 900 215 q 826 69 871 118 q 694 -26 782 19 q 458 -107 606 -71 q 431 -69 450 -92 q 397 -35 413 -47 q 620 32 539 -6 q 741 109 701 69 q 792 188 781 149 q 803 260 803 226 l 803 379 l 900 379 m 897 71 l 949 136 q 1078 88 1010 115 q 1210 31 1147 60 q 1315 -24 1274 1 l 1261 -97 q 1159 -42 1221 -72 q 1028 19 1097 -11 q 897 71 960 49 z "},"值":{"ha":1389,"x_min":50,"x_max":1326,"o":"m 369 1160 l 464 1131 q 399 969 435 1050 q 321 815 363 889 l 321 -106 l 225 -106 l 225 660 q 167 581 197 618 q 107 508 138 543 q 81 559 100 526 q 50 610 63 592 q 174 766 114 678 q 283 955 233 854 q 369 1160 333 1056 m 625 138 l 625 24 l 1107 24 l 1107 138 l 625 138 m 1107 719 l 625 719 l 625 603 l 1107 603 l 1107 719 m 1107 408 l 1107 526 l 625 526 l 625 408 l 1107 408 m 625 333 l 625 214 l 1107 214 l 1107 333 l 625 333 m 1203 24 l 1326 24 l 1326 -65 l 400 -65 l 400 24 l 532 24 l 532 800 l 771 800 q 784 861 778 828 q 797 929 790 894 l 458 929 l 458 1019 l 813 1019 q 823 1094 818 1057 q 831 1161 828 1131 l 940 1154 q 928 1089 935 1124 q 914 1019 921 1054 l 1285 1019 l 1285 929 l 896 929 q 880 861 888 894 q 864 800 872 828 l 1203 800 l 1203 24 z "},"倾":{"ha":1389,"x_min":29,"x_max":1329,"o":"m 754 843 l 922 843 q 945 913 933 875 q 965 986 957 951 l 696 986 l 696 1075 l 1324 1075 l 1324 986 l 1074 986 q 1045 912 1060 949 q 1015 843 1031 875 l 1260 843 l 1260 204 l 1167 204 l 1167 753 l 844 753 l 844 201 l 754 201 l 754 843 m 306 1158 l 399 1132 q 353 1001 378 1067 q 301 872 329 936 l 301 -106 l 207 -106 l 207 683 q 81 493 147 574 q 58 545 75 511 q 29 597 40 579 q 188 850 115 701 q 306 1158 260 999 m 525 283 l 689 364 q 689 317 688 343 q 692 276 690 292 q 567 206 615 233 q 493 163 519 179 q 454 136 467 146 q 435 118 442 126 q 418 165 431 138 q 394 210 406 192 q 422 237 408 217 q 435 297 435 257 l 435 1010 l 525 1010 l 525 749 l 701 749 l 701 660 l 525 660 l 525 283 m 1043 681 l 1043 393 q 1033 260 1043 329 q 989 125 1022 192 q 887 -2 956 58 q 701 -108 818 -62 q 677 -76 693 -94 q 646 -44 661 -57 q 814 49 751 -4 q 908 163 876 103 q 949 283 939 222 q 958 394 958 343 l 958 681 l 1043 681 m 1011 107 l 1069 169 q 1164 104 1114 140 q 1258 33 1214 68 q 1329 -32 1301 -3 l 1269 -106 q 1199 -38 1242 -75 q 1106 37 1156 -1 q 1011 107 1057 75 z "},"假":{"ha":1389,"x_min":54,"x_max":1338,"o":"m 1261 1100 l 1261 672 l 872 672 l 872 761 l 1165 761 l 1165 1011 l 872 1011 l 872 1100 l 1261 1100 m 296 1154 l 392 1133 q 350 988 374 1060 q 300 846 326 915 l 300 -106 l 201 -106 l 201 633 q 156 557 179 594 q 108 488 133 519 q 85 540 101 507 q 54 592 68 574 q 195 844 133 694 q 296 1154 257 994 m 725 1013 l 533 1013 l 533 758 l 725 758 l 725 1013 m 801 174 l 533 174 l 533 -103 l 438 -103 l 438 1100 l 817 1100 l 817 669 l 533 669 l 533 521 l 786 521 l 786 433 l 533 433 l 533 261 l 801 261 l 801 174 m 1169 478 l 940 478 q 988 343 960 408 q 1054 221 1015 278 q 1121 339 1092 275 q 1169 478 1150 403 m 1221 568 l 1279 549 q 1213 322 1256 422 q 1110 143 1169 221 q 1215 44 1157 88 q 1338 -26 1272 0 q 1305 -63 1324 -40 q 1275 -106 1286 -86 q 1153 -29 1210 -75 q 1050 74 1097 17 q 919 -32 990 14 q 769 -110 849 -78 q 746 -69 761 -92 q 715 -33 731 -47 q 866 40 794 -6 q 994 149 938 86 q 917 297 951 218 q 860 463 883 376 l 922 478 l 833 478 l 833 565 l 1203 565 l 1221 568 z "},"偎":{"ha":1389,"x_min":28,"x_max":1339,"o":"m 1135 885 l 1135 1021 l 918 1021 l 918 885 l 1135 885 m 1135 667 l 1135 806 l 918 806 l 918 667 l 1135 667 m 614 806 l 614 667 l 826 667 l 826 806 l 614 806 m 614 1021 l 614 885 l 826 885 l 826 1021 l 614 1021 m 1231 1104 l 1231 585 l 521 585 l 521 1104 l 1231 1104 m 371 1157 l 467 1128 q 324 828 408 975 l 324 -103 l 226 -103 l 226 676 q 158 586 193 629 q 86 506 122 543 q 60 556 78 524 q 28 606 43 589 q 160 760 96 672 q 278 950 224 849 q 371 1157 332 1051 m 1240 369 l 1310 300 q 1192 223 1257 261 q 1071 154 1128 185 q 1191 47 1124 93 q 1339 -26 1258 1 q 1302 -66 1321 -40 q 1272 -111 1283 -92 q 1001 85 1108 -47 q 838 400 894 218 l 671 400 l 671 51 q 824 75 744 63 q 983 100 904 88 l 988 11 q 700 -37 844 -14 q 444 -79 556 -60 l 422 17 q 492 26 454 21 q 571 38 529 32 l 571 400 l 418 400 l 418 493 l 1328 493 l 1328 400 l 933 400 q 974 304 951 350 q 1024 217 996 258 q 1139 292 1078 250 q 1240 369 1200 335 z "},"偏":{"ha":1389,"x_min":31,"x_max":1325,"o":"m 326 1154 l 422 1128 q 373 991 400 1060 q 314 857 346 922 l 314 -106 l 215 -106 l 215 672 q 152 574 185 621 q 85 486 119 526 q 60 539 78 506 q 31 590 43 572 q 145 750 90 660 q 247 944 200 840 q 326 1154 293 1047 m 1074 249 l 1204 249 l 1204 407 l 1074 407 l 1074 249 m 867 249 l 997 249 l 997 407 l 867 407 l 867 249 m 665 249 l 792 249 l 792 407 l 665 407 l 665 249 m 1169 821 l 599 821 l 599 674 l 1169 674 l 1169 821 m 1297 490 l 1297 -4 q 1290 -58 1297 -36 q 1263 -90 1282 -79 q 1208 -104 1240 -101 q 1129 -107 1176 -107 q 1117 -62 1126 -87 q 1099 -19 1108 -37 q 1155 -21 1131 -21 q 1189 -19 1179 -21 q 1204 -4 1204 -19 l 1204 168 l 1074 168 l 1074 -99 l 997 -99 l 997 168 l 867 168 l 867 -99 l 792 -99 l 792 168 l 665 168 l 665 -108 l 578 -108 l 578 361 q 524 142 561 251 q 422 -58 488 32 q 387 -24 411 -43 q 346 6 363 -4 q 431 163 399 79 q 478 333 463 246 q 499 504 494 421 q 504 658 504 588 l 504 903 l 1271 903 l 1271 592 l 597 592 q 593 490 597 543 l 1297 490 m 444 1085 l 1325 1085 l 1325 997 l 444 997 l 444 1085 z "},"做":{"ha":1389,"x_min":31,"x_max":1344,"o":"m 328 1154 l 422 1128 q 372 988 400 1058 q 311 850 343 918 l 311 -107 l 215 -107 l 215 674 q 151 576 185 622 q 85 490 118 531 q 60 542 78 507 q 31 594 43 576 q 146 753 90 664 q 248 946 201 843 q 328 1154 294 1049 m 1174 804 l 982 804 q 978 792 981 799 q 974 778 976 785 q 1008 559 986 672 q 1069 339 1031 446 q 1135 553 1110 438 q 1174 804 1160 669 m 732 136 l 732 446 l 510 446 l 510 136 l 732 136 m 1329 804 l 1265 804 q 1210 490 1244 632 q 1118 232 1175 347 q 1214 88 1158 154 q 1344 -25 1269 22 q 1310 -63 1331 -39 q 1281 -107 1290 -87 q 1160 5 1213 -58 q 1067 140 1107 68 q 956 3 1018 65 q 814 -108 893 -58 q 784 -72 804 -94 q 749 -37 764 -50 q 906 83 839 14 q 1019 236 972 151 q 956 428 981 329 q 915 624 931 526 q 849 500 883 553 q 838 515 844 507 q 824 533 831 524 l 824 46 l 510 46 l 510 -44 l 418 -44 l 418 536 l 574 536 l 574 799 l 382 799 l 382 893 l 574 893 l 574 1146 l 672 1146 l 672 893 l 851 893 l 851 799 l 672 799 l 672 536 l 821 536 q 783 578 801 563 q 897 840 853 685 q 965 1161 942 994 l 1058 1146 q 1035 1019 1049 1082 q 1006 894 1022 956 l 1329 894 l 1329 804 z "},"停":{"ha":1389,"x_min":28,"x_max":1335,"o":"m 439 1028 l 824 1028 l 824 1157 l 926 1157 l 926 1028 l 1322 1028 l 1322 938 l 439 938 l 439 1028 m 643 789 l 643 658 l 1113 658 l 1113 789 l 643 789 m 1214 586 l 546 586 l 546 861 l 1214 861 l 1214 586 m 371 1157 l 467 1128 q 324 828 408 975 l 324 -103 l 226 -103 l 226 676 q 158 586 193 629 q 86 506 122 543 q 60 556 78 524 q 28 606 43 589 q 160 760 96 672 q 278 950 224 849 q 371 1157 332 1051 m 574 244 l 574 329 l 1189 329 l 1189 244 l 925 244 l 925 4 q 914 -59 925 -37 q 869 -92 903 -81 q 784 -105 838 -103 q 653 -107 731 -107 q 640 -60 650 -86 q 621 -14 631 -35 q 731 -16 682 -15 q 796 -15 781 -17 q 818 -10 813 -15 q 824 7 824 -6 l 824 244 l 574 244 m 415 506 l 1335 506 l 1335 269 l 1240 269 l 1240 422 l 508 422 l 508 267 l 415 267 l 415 506 z "},"健":{"ha":1389,"x_min":35,"x_max":1343,"o":"m 1168 961 l 1008 961 l 1008 857 l 1168 857 l 1168 961 m 1168 668 l 1168 776 l 1008 776 l 1008 668 l 1168 668 m 914 857 l 914 961 l 711 961 l 711 1042 l 914 1042 l 914 1151 l 1008 1151 l 1008 1042 l 1257 1042 l 1257 857 l 1340 857 l 1340 776 l 1257 776 l 1257 589 l 1008 589 l 1008 483 l 1274 483 l 1274 403 l 1008 403 l 1008 294 l 1314 294 l 1314 215 l 1008 215 l 1008 56 l 914 56 l 914 215 l 649 215 l 649 294 l 914 294 l 914 403 l 689 403 l 689 483 l 914 483 l 914 589 l 711 589 l 711 668 l 914 668 l 914 776 l 618 776 l 618 857 l 914 857 m 306 1154 l 397 1129 q 353 999 378 1064 q 300 872 328 935 l 300 -103 l 208 -103 l 208 693 q 149 600 179 644 q 86 518 118 556 q 63 569 79 535 q 35 621 46 603 q 191 860 119 719 q 306 1154 263 1001 m 611 664 l 667 653 q 627 379 654 501 q 560 163 600 257 q 729 44 629 75 q 961 13 829 13 q 1011 13 974 13 q 1097 13 1049 13 q 1196 13 1146 13 q 1285 13 1246 13 q 1343 14 1325 14 q 1322 -32 1333 -4 q 1308 -81 1311 -60 l 957 -81 q 701 -49 810 -81 q 514 72 592 -17 q 447 -24 483 19 q 367 -100 410 -67 q 339 -62 357 -85 q 306 -25 321 -39 q 456 157 393 38 q 356 444 393 267 l 436 469 q 500 260 461 343 q 544 410 526 329 q 572 582 563 490 l 454 582 l 424 517 l 338 538 q 403 678 369 603 q 468 827 436 753 q 524 961 500 901 l 378 961 l 378 1047 l 567 1047 l 583 1053 l 649 1033 q 576 858 618 957 q 490 661 535 760 l 596 661 l 611 664 z "},"偶":{"ha":1389,"x_min":46,"x_max":1299,"o":"m 371 1157 l 467 1128 q 401 970 438 1049 q 325 818 365 892 l 325 -108 l 226 -108 l 226 660 q 104 504 168 575 q 77 556 96 524 q 46 606 58 588 q 171 762 111 674 q 282 951 231 850 q 371 1157 333 1053 m 613 665 l 826 665 l 826 801 l 613 801 l 613 665 m 613 1014 l 613 879 l 826 879 l 826 1014 l 613 1014 m 1142 879 l 1142 1014 l 918 1014 l 918 879 l 1142 879 m 1142 665 l 1142 801 l 918 801 l 918 665 l 1142 665 m 1299 475 l 1299 1 q 1288 -60 1299 -39 q 1247 -93 1278 -82 q 1164 -107 1217 -104 q 1032 -108 1111 -110 q 1021 -64 1029 -89 q 1003 -21 1013 -39 q 1113 -24 1064 -24 q 1175 -22 1161 -24 q 1197 -16 1190 -21 q 1203 3 1203 -11 l 1203 386 l 918 386 l 918 211 l 1049 222 q 1024 272 1036 249 q 999 318 1011 296 l 1061 342 q 1136 203 1101 278 q 1185 76 1171 129 l 1118 50 q 1103 95 1113 71 q 1083 147 1094 119 q 834 119 957 133 q 613 93 711 104 l 593 183 q 701 192 642 188 q 826 203 761 197 l 826 386 l 549 386 l 549 -107 l 450 -107 l 450 475 l 826 475 l 826 583 l 515 583 l 515 1096 l 1242 1096 l 1242 583 l 918 583 l 918 475 l 1299 475 z "}}}
